<svg width="100" height="18" viewBox="0 0 100 18" fill="none" xmlns="http://www.w3.org/2000/svg">
<path d="M8.50279 0.844154C8.29542 0.884949 8.08805 0.990332 7.90448 1.15351C7.75831 1.28268 7.66312 1.46286 6.71807 3.37335C5.65064 5.52521 5.63365 5.5592 5.40248 5.61699C5.35829 5.62719 4.34185 5.77677 3.14524 5.95354C0.769022 6.29688 0.741826 6.30368 0.446073 6.56884C0.371285 6.64023 0.259103 6.79661 0.197913 6.91899C0.0925296 7.12975 0.0857307 7.16715 0.0857307 7.50369C0.0857307 8.0884 0.0109426 7.99321 1.89764 9.83572C2.7917 10.7026 3.54638 11.4641 3.57697 11.5252C3.61097 11.583 3.63816 11.6782 3.63816 11.7326C3.63816 11.787 3.47499 12.7763 3.27442 13.9253C2.85629 16.3423 2.84949 16.4443 3.01946 16.7944C3.15884 17.0766 3.4274 17.3281 3.69935 17.4301C3.93732 17.5219 4.36565 17.5355 4.57641 17.4539C4.6512 17.4267 5.59285 16.9406 6.66708 16.3763C8.38381 15.4686 8.63537 15.3462 8.77135 15.3462C8.90732 15.3462 9.15548 15.4686 10.9028 16.3899C12.2456 17.097 12.9493 17.4471 13.0955 17.4845C13.653 17.6273 14.2547 17.3349 14.5232 16.7944C14.6932 16.4443 14.6864 16.3423 14.2683 13.9253C14.0677 12.7763 13.9045 11.7904 13.9045 11.7394C13.9045 11.6884 13.9283 11.5966 13.9555 11.5388C13.9827 11.4777 14.7408 10.7162 15.6349 9.84252C17.5351 7.98981 17.457 8.0884 17.457 7.50369C17.457 7.16715 17.4502 7.12975 17.3448 6.91899C17.219 6.65723 17.032 6.47706 16.7703 6.35808C16.5663 6.26289 16.5085 6.25269 13.7991 5.86175C12.2762 5.64079 12.0654 5.6034 11.9668 5.53201C11.8717 5.46402 11.6881 5.11387 10.828 3.37335C9.87957 1.45946 9.78778 1.28268 9.63821 1.15351C9.31186 0.864552 8.92772 0.759169 8.50279 0.844154Z" fill="url(#paint0_linear_668_3231)"/>
<path d="M28.9098 0.844154C28.7024 0.884949 28.495 0.990332 28.3115 1.15351C28.1653 1.28268 28.0701 1.46286 27.1251 3.37335C26.0576 5.52521 26.0406 5.5592 25.8095 5.61699C25.7653 5.62719 24.7488 5.77677 23.5522 5.95354C21.176 6.29688 21.1488 6.30368 20.8531 6.56884C20.7783 6.64023 20.6661 6.79661 20.6049 6.91899C20.4995 7.12975 20.4927 7.16715 20.4927 7.50369C20.4927 8.0884 20.4179 7.99321 22.3046 9.83572C23.1987 10.7026 23.9534 11.4641 23.984 11.5252C24.018 11.583 24.0451 11.6782 24.0451 11.7326C24.0451 11.787 23.882 12.7763 23.6814 13.9253C23.2633 16.3423 23.2565 16.4443 23.4264 16.7944C23.5658 17.0766 23.8344 17.3281 24.1063 17.4301C24.3443 17.5219 24.7726 17.5355 24.9834 17.4539C25.0582 17.4267 25.9998 16.9406 27.0741 16.3763C28.7908 15.4686 29.0423 15.3462 29.1783 15.3462C29.3143 15.3462 29.5625 15.4686 31.3098 16.3899C32.6526 17.097 33.3563 17.4471 33.5024 17.4845C34.0599 17.6273 34.6617 17.3349 34.9302 16.7944C35.1002 16.4443 35.0934 16.3423 34.6753 13.9253C34.4747 12.7763 34.3115 11.7904 34.3115 11.7394C34.3115 11.6884 34.3353 11.5966 34.3625 11.5388C34.3897 11.4777 35.1478 10.7162 36.0418 9.84252C37.9421 7.98981 37.8639 8.0884 37.8639 7.50369C37.8639 7.16715 37.8571 7.12975 37.7518 6.91899C37.626 6.65723 37.439 6.47706 37.1773 6.35808C36.9733 6.26289 36.9155 6.25269 34.2061 5.86175C32.6832 5.64079 32.4724 5.6034 32.3738 5.53201C32.2786 5.46402 32.0951 5.11387 31.235 3.37335C30.2866 1.45946 30.1948 1.28268 30.0452 1.15351C29.7188 0.864552 29.3347 0.759169 28.9098 0.844154Z" fill="url(#paint1_linear_668_3231)"/>
<path d="M49.3168 0.844154C49.1094 0.884949 48.902 0.990332 48.7184 1.15351C48.5723 1.28268 48.4771 1.46286 47.532 3.37335C46.4646 5.52521 46.4476 5.5592 46.2164 5.61699C46.1723 5.62719 45.1558 5.77677 43.9592 5.95354C41.583 6.29688 41.5558 6.30368 41.26 6.56884C41.1852 6.64023 41.0731 6.79661 41.0119 6.91899C40.9065 7.12975 40.8997 7.16715 40.8997 7.50369C40.8997 8.0884 40.8249 7.99321 42.7116 9.83572C43.6057 10.7026 44.3603 11.4641 44.3909 11.5252C44.4249 11.583 44.4521 11.6782 44.4521 11.7326C44.4521 11.787 44.289 12.7763 44.0884 13.9253C43.6703 16.3423 43.6635 16.4443 43.8334 16.7944C43.9728 17.0766 44.2414 17.3281 44.5133 17.4301C44.7513 17.5219 45.1796 17.5355 45.3904 17.4539C45.4652 17.4267 46.4068 16.9406 47.481 16.3763C49.1978 15.4686 49.4493 15.3462 49.5853 15.3462C49.7213 15.3462 49.9694 15.4686 51.7168 16.3899C53.0596 17.097 53.7632 17.4471 53.9094 17.4845C54.4669 17.6273 55.0686 17.3349 55.3372 16.7944C55.5072 16.4443 55.5004 16.3423 55.0822 13.9253C54.8817 12.7763 54.7185 11.7904 54.7185 11.7394C54.7185 11.6884 54.7423 11.5966 54.7695 11.5388C54.7967 11.4777 55.5548 10.7162 56.4488 9.84252C58.3491 7.98981 58.2709 8.0884 58.2709 7.50369C58.2709 7.16715 58.2641 7.12975 58.1587 6.91899C58.033 6.65723 57.846 6.47706 57.5842 6.35808C57.3803 6.26289 57.3225 6.25269 54.6131 5.86175C53.0902 5.64079 52.8794 5.6034 52.7808 5.53201C52.6856 5.46402 52.502 5.11387 51.642 3.37335C50.6935 1.45946 50.6017 1.28268 50.4522 1.15351C50.1258 0.864552 49.7417 0.759169 49.3168 0.844154Z" fill="url(#paint2_linear_668_3231)"/>
<path d="M69.7237 0.844154C69.5164 0.884949 69.309 0.990332 69.1254 1.15351C68.9793 1.28268 68.8841 1.46286 67.939 3.37335C66.8716 5.52521 66.8546 5.5592 66.6234 5.61699C66.5792 5.62719 65.5628 5.77677 64.3662 5.95354C61.99 6.29688 61.9628 6.30368 61.667 6.56884C61.5922 6.64023 61.4801 6.79661 61.4189 6.91899C61.3135 7.12975 61.3067 7.16715 61.3067 7.50369C61.3067 8.0884 61.2319 7.99321 63.1186 9.83572C64.0126 10.7026 64.7673 11.4641 64.7979 11.5252C64.8319 11.583 64.8591 11.6782 64.8591 11.7326C64.8591 11.787 64.6959 12.7763 64.4954 13.9253C64.0772 16.3423 64.0704 16.4443 64.2404 16.7944C64.3798 17.0766 64.6483 17.3281 64.9203 17.4301C65.1583 17.5219 65.5866 17.5355 65.7974 17.4539C65.8721 17.4267 66.8138 16.9406 67.888 16.3763C69.6048 15.4686 69.8563 15.3462 69.9923 15.3462C70.1283 15.3462 70.3764 15.4686 72.1238 16.3899C73.4665 17.097 74.1702 17.4471 74.3164 17.4845C74.8739 17.6273 75.4756 17.3349 75.7442 16.7944C75.9141 16.4443 75.9073 16.3423 75.4892 13.9253C75.2886 12.7763 75.1255 11.7904 75.1255 11.7394C75.1255 11.6884 75.1493 11.5966 75.1765 11.5388C75.2037 11.4777 75.9617 10.7162 76.8558 9.84252C78.7561 7.98981 78.6779 8.0884 78.6779 7.50369C78.6779 7.16715 78.6711 7.12975 78.5657 6.91899C78.4399 6.65723 78.253 6.47706 77.9912 6.35808C77.7872 6.26289 77.7295 6.25269 75.0201 5.86175C73.4971 5.64079 73.2864 5.6034 73.1878 5.53201C73.0926 5.46402 72.909 5.11387 72.049 3.37335C71.1005 1.45946 71.0087 1.28268 70.8592 1.15351C70.5328 0.864552 70.1487 0.759169 69.7237 0.844154Z" fill="url(#paint3_linear_668_3231)"/>
<path d="M90.1307 0.844154C89.9234 0.884949 89.716 0.990332 89.5324 1.15351C89.3862 1.28268 89.2911 1.46286 88.346 3.37335C87.2786 5.52521 87.2616 5.5592 87.0304 5.61699C86.9862 5.62719 85.9698 5.77677 84.7732 5.95354C82.397 6.29688 82.3698 6.30368 82.074 6.56884C81.9992 6.64023 81.887 6.79661 81.8258 6.91899C81.7205 7.12975 81.7137 7.16715 81.7137 7.50369C81.7137 8.0884 81.6389 7.99321 83.5256 9.83572C84.4196 10.7026 85.1743 11.4641 85.2049 11.5252C85.2389 11.583 85.2661 11.6782 85.2661 11.7326C85.2661 11.787 85.1029 12.7763 84.9024 13.9253C84.4842 16.3423 84.4774 16.4443 84.6474 16.7944C84.7868 17.0766 85.0553 17.3281 85.3273 17.4301C85.5652 17.5219 85.9936 17.5355 86.2043 17.4539C86.2791 17.4267 87.2208 16.9406 88.295 16.3763C90.0117 15.4686 90.2633 15.3462 90.3993 15.3462C90.5353 15.3462 90.7834 15.4686 92.5307 16.3899C93.8735 17.097 94.5772 17.4471 94.7234 17.4845C95.2809 17.6273 95.8826 17.3349 96.1512 16.7944C96.3211 16.4443 96.3143 16.3423 95.8962 13.9253C95.6956 12.7763 95.5325 11.7904 95.5325 11.7394C95.5325 11.6884 95.5563 11.5966 95.5834 11.5388C95.6106 11.4777 96.3687 10.7162 97.2628 9.84252C99.1631 7.98981 99.0849 8.0884 99.0849 7.50369C99.0849 7.16715 99.0781 7.12975 98.9727 6.91899C98.8469 6.65723 98.66 6.47706 98.3982 6.35808C98.1942 6.26289 98.1364 6.25269 95.4271 5.86175C93.9041 5.64079 93.6933 5.6034 93.5948 5.53201C93.4996 5.46402 93.316 5.11387 92.4559 3.37335C91.5075 1.45946 91.4157 1.28268 91.2661 1.15351C90.9398 0.864552 90.5556 0.759169 90.1307 0.844154Z" fill="url(#paint4_linear_668_3231)"/>
<defs>
<linearGradient id="paint0_linear_668_3231" x1="8.77137" y1="0.815624" x2="8.77137" y2="17.5205" gradientUnits="userSpaceOnUse">
<stop stop-color="#FFE51C"/>
<stop offset="1" stop-color="#FFAA29"/>
</linearGradient>
<linearGradient id="paint1_linear_668_3231" x1="29.1784" y1="0.815624" x2="29.1784" y2="17.5205" gradientUnits="userSpaceOnUse">
<stop stop-color="#FFE51C"/>
<stop offset="1" stop-color="#FFAA29"/>
</linearGradient>
<linearGradient id="paint2_linear_668_3231" x1="49.5853" y1="0.815624" x2="49.5853" y2="17.5205" gradientUnits="userSpaceOnUse">
<stop stop-color="#FFE51C"/>
<stop offset="1" stop-color="#FFAA29"/>
</linearGradient>
<linearGradient id="paint3_linear_668_3231" x1="69.9923" y1="0.815624" x2="69.9923" y2="17.5205" gradientUnits="userSpaceOnUse">
<stop stop-color="#FFE51C"/>
<stop offset="1" stop-color="#FFAA29"/>
</linearGradient>
<linearGradient id="paint4_linear_668_3231" x1="90.3993" y1="0.815624" x2="90.3993" y2="17.5205" gradientUnits="userSpaceOnUse">
<stop stop-color="#FFE51C"/>
<stop offset="1" stop-color="#FFAA29"/>
</linearGradient>
</defs>
</svg>
