<svg width="41" height="41" viewBox="0 0 41 41" fill="none" xmlns="http://www.w3.org/2000/svg">
<circle opacity="0.3" cx="20.6313" cy="20.3445" r="14.2662" fill="#12BDF3"/>
<rect x="40.6263" y="0.349365" width="39.9905" height="39.9905" rx="4.57034" transform="rotate(90 40.6263 0.349365)" fill="#E3E4E5"/>
<path d="M20.6375 19.0784C23.3879 19.0784 26.1388 19.0784 28.8892 19.0784C29.2226 19.0784 29.202 19.0658 29.202 19.3983C29.202 21.5413 29.202 23.6843 29.202 25.8278C29.202 26.5069 29.0096 27.1175 28.5567 27.6327C28.0219 28.241 27.3372 28.5225 26.535 28.5253C25.4134 28.5295 24.2918 28.5262 23.1701 28.5262C20.3729 28.5262 17.5752 28.5253 14.7779 28.5267C14.0844 28.5267 13.4624 28.3314 12.9389 27.8654C12.3389 27.3316 12.064 26.6506 12.0631 25.8568C12.0603 23.6806 12.0617 21.5038 12.0622 19.3276C12.0622 19.0798 12.0636 19.0789 12.3254 19.0789C15.0959 19.0789 17.8669 19.0789 20.6375 19.0789V19.0784Z" fill="#021318"/>
<path d="M12.0622 17.3859C12.0622 17.0988 12.0566 16.8263 12.0631 16.5542C12.0828 15.7749 12.3656 15.1127 12.9562 14.5929C13.4606 14.1494 14.0577 13.9564 14.7217 13.9499C14.9681 13.9475 15.2144 13.9499 15.4823 13.9499C15.486 13.8618 15.4916 13.7911 15.4921 13.7204C15.4931 13.2465 15.4912 13.5443 15.4931 13.0704C15.4949 12.552 15.8672 12.1628 16.359 12.1614C16.8399 12.16 17.2258 12.5594 17.231 13.0723C17.2357 13.5396 17.2319 13.2348 17.2319 13.7021C17.2319 13.7743 17.2319 13.8459 17.2319 13.9335H24.0192C24.0234 13.8637 24.0309 13.7935 24.0309 13.7232C24.0318 13.2423 24.0272 13.534 24.0333 13.0531C24.0389 12.5932 24.34 12.248 24.7844 12.1778C25.2827 12.0986 25.7585 12.4845 25.7684 12.9889C25.7777 13.483 25.7707 13.2048 25.7712 13.6989C25.7712 13.771 25.7712 13.8431 25.7712 13.9349C25.8719 13.9405 25.9562 13.9447 26.04 13.9494C26.4123 13.9714 26.7912 13.9564 27.155 14.0225C28.2411 14.2201 29.0957 15.1942 29.1758 16.2938C29.1983 16.6062 29.1946 16.9204 29.2006 17.2337C29.2016 17.2791 29.1903 17.3246 29.1828 17.385H12.0622V17.3859Z" fill="#021318"/>
</svg>
