<svg width="90" height="70" viewBox="0 0 90 70" fill="none" xmlns="http://www.w3.org/2000/svg">
<g opacity="0.2">
<path d="M23.6469 1.11576C13.1321 2.54096 4.41732 9.05619 1.2807 17.7797C-0.00245586 21.3349 0.0866524 19.5965 0.0866524 43.0106V64.0754L0.763875 65.297C1.90446 67.3174 3.77574 68.6799 6.14602 69.2281C7.73214 69.5883 31.3102 69.5883 32.8785 69.2124C35.6052 68.6016 38.0468 66.456 38.7597 64.0598C38.9913 63.261 39.027 61.5383 39.027 52.2196C39.027 41.7263 39.0092 41.2721 38.6705 40.2854C37.9577 38.2494 36.3894 36.6989 34.0904 35.7436L32.8785 35.2424L24.8053 35.1954L16.7143 35.1484L16.7855 29.4006C16.8568 24.4202 16.9103 23.5432 17.1776 22.7914C18.1578 20.1133 20.3321 17.858 22.9875 16.7304C24.8766 15.9316 25.6251 15.775 28.1736 15.6497C29.2964 15.6027 30.4726 15.4931 30.7934 15.3991C31.6666 15.1642 32.6112 14.3655 33.0745 13.4728C33.4844 12.7053 33.5023 12.5801 33.5023 8.22613C33.5023 3.85654 33.4844 3.74691 33.0745 2.96383C32.5934 2.05546 31.6488 1.3037 30.6686 1.03745C29.7597 0.802528 25.5894 0.84951 23.6469 1.11576Z" fill="#12BDF3"/>
<path d="M73.708 1.10011C67.6487 1.96149 62.6408 4.21677 58.2566 8.05386C54.2468 11.5934 51.8943 15.3678 50.5755 20.4265C50.1834 21.93 50.1834 21.9614 50.13 42.5094C50.0765 60.7708 50.0943 63.1827 50.3438 64.0441C51.0389 66.4403 53.4804 68.586 56.225 69.2124C57.7933 69.5883 81.3713 69.5883 82.9575 69.2281C85.3277 68.6799 87.199 67.3174 88.3396 65.297L89.0168 64.0754L89.0703 52.5955C89.1059 41.3661 89.1059 41.1155 88.7495 40.1758C87.8762 37.8892 86.0228 36.2448 83.4386 35.493C82.405 35.1798 81.9773 35.1641 74.5635 35.1641H66.7932L66.8823 29.5572C66.9358 24.9684 67.0071 23.7938 67.2566 23.0264C68.1655 20.2073 70.2684 17.9207 73.1556 16.6834C74.6526 16.0413 75.9536 15.775 78.2882 15.6654C79.3753 15.6028 80.6228 15.4618 81.0327 15.3365C81.9416 15.0389 83.1357 13.9426 83.403 13.1282C83.5456 12.721 83.5812 11.0452 83.5456 7.88158L83.4921 3.24574L82.9575 2.5723C82.6545 2.19642 82.0664 1.67959 81.6387 1.41334L80.8723 0.943489L78.0922 0.912163C76.3635 0.896507 74.6882 0.974815 73.708 1.10011Z" fill="#12BDF3"/>
</g>
</svg>
