<svg width="27" height="27" viewBox="0 0 27 27" fill="none" xmlns="http://www.w3.org/2000/svg">
<path d="M12.0573 0.789879C9.58352 1.09467 7.39925 2.00397 5.40293 3.56858C4.87464 3.98514 3.62504 5.26527 3.21358 5.8139C1.76079 7.75442 0.912477 9.82702 0.628014 12.113C0.52642 12.941 0.52642 14.5361 0.628014 15.3641C1.12582 19.3874 3.49296 22.9484 7.05383 25.0312C8.35423 25.7881 9.84258 26.3215 11.4427 26.6009C12.3266 26.7532 14.201 26.7888 15.1356 26.6669C21.1703 25.91 25.8538 21.1603 26.5091 15.1254C26.5903 14.3888 26.5497 12.4178 26.438 11.7371C25.5033 5.97646 20.9112 1.52138 15.1813 0.810198C14.4956 0.72892 12.6771 0.71368 12.0573 0.789879ZM9.94926 8.76532C10.1169 8.84152 10.6198 9.30887 11.8694 10.5534L13.5558 12.24L15.2474 10.5534C17.0202 8.77548 17.1675 8.65864 17.5942 8.65864C18.153 8.65864 18.6355 9.17171 18.6355 9.75082C18.6305 10.1217 18.473 10.3147 16.7408 12.0469L15.0544 13.7385L16.7408 15.4251C18.473 17.1624 18.6305 17.3554 18.6355 17.7263C18.6355 18.3155 18.1327 18.8184 17.5434 18.8184C17.1726 18.8134 16.9796 18.6559 15.2474 16.9236L13.5558 15.2371L11.8694 16.9236C10.1321 18.6559 9.9391 18.8134 9.56828 18.8184C8.97904 18.8184 8.47615 18.3155 8.47615 17.7263C8.48123 17.3554 8.6387 17.1624 10.3709 15.4251L12.0573 13.7385L10.3709 12.0469C8.6387 10.3147 8.48123 10.1217 8.47615 9.75082C8.47615 9.17171 8.95872 8.65864 9.51748 8.65864C9.62924 8.65864 9.82227 8.70944 9.94926 8.76532Z" fill="#E4472C"/>
</svg>
