<svg width="49" height="11" viewBox="0 0 49 11" fill="none" xmlns="http://www.w3.org/2000/svg">
<path fill-rule="evenodd" clip-rule="evenodd" d="M48.4796 8.41241C48.4796 9.41892 47.6637 10.2349 46.6572 10.2349C43.4694 10.2349 41.8515 7.87653 40.8336 6.39276C40.7945 6.33579 40.7563 6.28011 40.7189 6.2259C39.5107 4.47334 38.9073 3.79308 37.7756 3.79308C36.6438 3.79308 36.0404 4.47334 34.8322 6.2259C34.7948 6.28011 34.7566 6.33579 34.7175 6.39277C33.6996 7.87653 32.0817 10.2349 28.8939 10.2349C25.7059 10.2349 24.0861 7.87618 23.067 6.39206C23.0282 6.33556 22.9902 6.28033 22.9531 6.22654C21.7427 4.47228 21.1397 3.79308 20.0123 3.79308C18.8847 3.79308 18.282 4.47235 17.0701 6.22717C17.0334 6.28034 16.9959 6.33491 16.9575 6.39071C15.9364 7.87609 14.3149 10.2349 11.1227 10.2349C7.93075 10.2349 6.31108 7.87645 5.29123 6.39143C5.25258 6.33515 5.21479 6.28013 5.17782 6.22654C3.96817 4.47342 3.36496 3.79308 2.23301 3.79308C1.2265 3.79308 0.41056 2.97714 0.41056 1.97063C0.41056 0.964116 1.2265 0.148176 2.23301 0.148175C5.42495 0.148175 7.04462 2.50661 8.06446 3.99163C8.10311 4.0479 8.14089 4.10292 8.17787 4.1565C9.38752 5.90962 9.99073 6.58996 11.1227 6.58996C12.2554 6.58996 12.8606 5.9084 14.0709 4.15587C14.1084 4.10163 14.1467 4.04593 14.1859 3.98893C15.2056 2.50523 16.8256 0.148174 20.0123 0.148174C23.2003 0.148174 24.8201 2.50686 25.8393 3.99098C25.8781 4.04748 25.916 4.10271 25.9532 4.1565C27.1636 5.91076 27.7665 6.58996 28.8939 6.58996C30.0206 6.58996 30.6215 5.91199 31.8313 4.15714C31.8679 4.10399 31.9053 4.04945 31.9436 3.99367C32.9629 2.50823 34.5824 0.148173 37.7755 0.148172C40.9687 0.148172 42.5882 2.50822 43.6075 3.99366C43.6458 4.04945 43.6832 4.10399 43.7198 4.15714C44.9296 5.91198 45.5305 6.58996 46.6572 6.58996C47.6637 6.58996 48.4796 7.4059 48.4796 8.41241Z" fill="#021318"/>
</svg>
