<svg width="22" height="19" viewBox="0 0 22 19" fill="none" xmlns="http://www.w3.org/2000/svg">
<path d="M2.90519 6.83459C2.82347 5.81998 3.12854 4.96335 3.88439 4.28921C4.64025 3.61506 5.51868 3.41349 6.51423 3.57964C6.53988 3.55057 6.56268 3.51911 6.58232 3.48568C6.83109 3.02629 7.14128 2.60294 7.50433 2.22728C8.16525 1.52776 8.99627 1.0116 9.91627 0.729191C10.3245 0.605957 10.7452 0.528748 11.1706 0.499021C12.0317 0.429055 12.8972 0.562961 13.6969 0.889886C14.3225 1.1395 14.8975 1.50085 15.3938 1.95627C15.9571 2.46828 16.4114 3.08845 16.7299 3.77984C16.959 4.26644 17.1115 4.78557 17.182 5.3188C17.1929 5.4046 17.2079 5.4904 17.2256 5.5762C17.2308 5.63627 17.2588 5.69207 17.3039 5.7321C17.349 5.77213 17.4077 5.79334 17.468 5.79137C17.641 5.80363 17.8139 5.81045 17.9869 5.81998C18.9276 5.87576 19.8174 6.26605 20.4955 6.92039C20.9632 7.35047 21.3229 7.8847 21.5455 8.47977C21.6764 8.84387 21.7597 9.22335 21.7934 9.60879C21.8513 10.2097 21.7688 10.8157 21.5524 11.3793C21.3721 11.862 21.0991 12.3047 20.7488 12.6826C20.0673 13.4219 19.155 13.9078 18.1612 14.0608C17.6388 14.1232 17.1115 14.1347 16.5869 14.0949C16.5824 14.0496 16.5824 14.004 16.5869 13.9587C16.689 13.463 16.7653 12.9659 16.8197 12.4606C16.8892 11.8232 16.9042 11.1845 16.9124 10.5444C16.9005 10.2512 16.8055 9.96749 16.6384 9.72633C16.4712 9.48516 16.2389 9.29654 15.9686 9.18251C15.4238 8.98231 14.8627 8.79981 14.3084 8.61459C13.5294 8.35311 12.749 8.0939 11.9673 7.83695C11.8556 7.79882 11.7412 7.76749 11.6282 7.73208C11.3484 7.63873 11.0459 7.63873 10.7661 7.73208C10.0756 7.95952 9.38376 8.18423 8.69327 8.41303C7.95103 8.6609 7.21152 8.91422 6.46928 9.16481C5.93405 9.34458 5.46011 9.9942 5.49144 10.5757C5.50778 10.8917 5.48327 11.2104 5.50506 11.5291C5.53481 12.1685 5.60577 12.8054 5.71752 13.4357C5.75974 13.6509 5.79242 13.8675 5.83328 14.1031C5.73522 14.1031 5.65896 14.1153 5.58269 14.1153C5.25039 14.1153 4.91808 14.1235 4.58578 14.1153C3.75779 14.1161 2.9482 13.8711 2.25965 13.4112C1.37849 12.8052 0.802408 11.9867 0.640341 10.9203C0.556499 10.4236 0.575361 9.91504 0.69576 9.42595C0.81616 8.93686 1.03554 8.47764 1.34036 8.07665C1.69903 7.5907 2.17068 7.19945 2.71452 6.93674C2.77172 6.91222 2.82483 6.87954 2.90519 6.83459Z" fill="#12BDF3"/>
<path d="M6.66673 10.6725C6.66118 10.5769 6.68937 10.4824 6.74637 10.4055C6.80337 10.3286 6.88557 10.2742 6.97862 10.2517C7.39808 10.1087 7.81891 9.96975 8.23837 9.83084C9.13042 9.53258 10.0238 9.23978 10.9131 8.93607C11.0988 8.86864 11.3022 8.86864 11.4879 8.93607C12.7613 9.36643 14.0374 9.78862 15.3107 10.2135C15.3557 10.2285 15.402 10.2421 15.4469 10.2598C15.5468 10.2897 15.6322 10.3554 15.6865 10.4445C15.7408 10.5335 15.7603 10.6394 15.7411 10.7419C15.7247 10.9149 15.7152 11.0892 15.7125 11.2622C15.6992 12.2273 15.5712 13.1873 15.3312 14.1222C15.0877 15.1087 14.6188 16.0252 13.9611 16.7997C13.4869 17.3437 12.9209 17.8 12.2887 18.148C12.0068 18.3046 11.7099 18.4367 11.4211 18.5851C11.355 18.6201 11.2814 18.6384 11.2066 18.6384C11.1319 18.6384 11.0582 18.6201 10.9921 18.5851C10.2773 18.2833 9.61281 17.8741 9.02147 17.3717C8.4768 16.897 8.02434 16.3258 7.6868 15.687C7.28799 14.919 7.01749 14.0909 6.88601 13.2356C6.75895 12.5042 6.69425 11.7634 6.69261 11.0211C6.69261 10.9081 6.67763 10.7842 6.66673 10.6725ZM10.6857 13.636C10.5781 13.5284 10.4978 13.4426 10.4133 13.3636C10.3063 13.2589 10.1895 13.1645 10.0647 13.0817C9.92389 12.9989 9.75969 12.965 9.59763 12.9852C9.43557 13.0054 9.28472 13.0786 9.16855 13.1934C9.09063 13.2642 9.02797 13.3502 8.98438 13.446C8.94079 13.5419 8.91719 13.6456 8.91502 13.7509C8.91285 13.8561 8.93217 13.9607 8.97178 14.0583C9.01139 14.1559 9.07046 14.2443 9.1454 14.3183C9.51175 14.701 9.89036 15.0728 10.2703 15.4419C10.3488 15.5166 10.4414 15.5749 10.5427 15.6135C10.9254 15.7592 11.2931 15.6135 11.5315 15.2281C11.9101 14.6179 12.2928 14.0023 12.6727 13.3977C12.907 13.0231 13.1453 12.6486 13.3755 12.2714C13.4308 12.1829 13.468 12.0842 13.4847 11.9812C13.5015 11.8782 13.4975 11.7728 13.473 11.6714C13.4485 11.5699 13.404 11.4743 13.3422 11.3903C13.2803 11.3062 13.2022 11.2354 13.1126 11.1818C12.9383 11.0861 12.7346 11.0583 12.541 11.1038C12.3473 11.1493 12.1774 11.2649 12.064 11.4283C11.8011 11.8601 11.5287 12.2863 11.2604 12.7153C11.0807 13.0068 10.8995 13.301 10.6857 13.636Z" fill="#12BDF3"/>
</svg>
