<svg width="21" height="8" viewBox="0 0 21 8" fill="none" xmlns="http://www.w3.org/2000/svg">
<path d="M20.9387 3.82154C20.9192 3.86992 20.904 3.9199 20.8932 3.97092C20.7552 5.04334 19.8784 5.8503 18.8953 6.00861C17.6775 6.20507 16.3299 5.39811 16.1489 3.94737C15.9678 2.49663 17.0183 1.46236 18.1281 1.27807C18.7461 1.17712 19.3792 1.321 19.8929 1.67917C20.4066 2.03734 20.7604 2.5816 20.8794 3.19643C20.8973 3.28573 20.9192 3.37503 20.9387 3.46352L20.9387 3.82154Z" fill="#12BDF3"/>
<path d="M5.38396 3.64797C5.41156 4.8714 4.38216 6.03719 2.99718 6.03719C1.75346 6.03719 0.598223 5.08329 0.600658 3.63498C0.600658 2.16963 1.79405 1.24577 2.99068 1.24658C4.37972 1.24658 5.41481 2.40344 5.38396 3.64797Z" fill="#12BDF3"/>
<path d="M7.18571 3.6424C7.14321 1.74571 8.72298 0.0675817 10.7411 0.0590819C11.6921 0.0603506 12.604 0.437695 13.2778 1.10878C13.9516 1.77987 14.3327 2.69022 14.3378 3.64119C14.3378 5.49296 12.8199 7.21844 10.7715 7.22573C8.72298 7.23301 7.14078 5.53181 7.18571 3.6424Z" fill="#12BDF3"/>
</svg>
