<svg width="27" height="28" viewBox="0 0 27 28" fill="none" xmlns="http://www.w3.org/2000/svg">
<path fill-rule="evenodd" clip-rule="evenodd" d="M13.5 27.4727C15.2693 27.4727 17.0212 27.1242 18.6558 26.4471C20.2903 25.77 21.7756 24.7777 23.0266 23.5266C24.2777 22.2756 25.27 20.7903 25.9471 19.1558C26.6242 17.5212 26.9727 15.7693 26.9727 14C26.9727 12.2307 26.6242 10.4788 25.9471 8.84424C25.27 7.20966 24.2777 5.72444 23.0266 4.47339C21.7756 3.22234 20.2903 2.22995 18.6558 1.55289C17.0212 0.875824 15.2693 0.527344 13.5 0.527344C9.92683 0.527344 6.50001 1.94678 3.97339 4.47339C1.44678 7.00001 0.0273438 10.4268 0.0273438 14C0.0273437 17.5732 1.44678 21 3.97339 23.5266C6.50001 26.0532 9.92683 27.4727 13.5 27.4727ZM13.1527 19.4489L20.6375 10.4672L18.3382 8.55106L11.9012 16.2739L8.5705 12.9416L6.4538 15.0584L10.9447 19.5492L12.1033 20.7079L13.1527 19.4489Z" fill="#25D366"/>
</svg>
