<svg width="35" height="35" viewBox="0 0 35 35" fill="none" xmlns="http://www.w3.org/2000/svg">
<rect x="0.850586" y="0.168945" width="33.924" height="33.924" rx="16.962" fill="#939A9C"/>
<path d="M21.5606 10.9468H14.0648C13.2312 10.9468 12.4318 11.2779 11.8424 11.8673C11.253 12.4567 10.9219 13.2561 10.9219 14.0897V21.5855C10.9219 22.419 11.253 23.2184 11.8424 23.8079C12.4318 24.3973 13.2312 24.7284 14.0648 24.7284H21.5606C22.3941 24.7284 23.1935 24.3973 23.783 23.8079C24.3724 23.2184 24.7035 22.419 24.7035 21.5855V14.0897C24.7035 13.2561 24.3724 12.4567 23.783 11.8673C23.1935 11.2779 22.3941 10.9468 21.5606 10.9468ZM15.5815 22.0724C15.5837 22.1109 15.578 22.1494 15.5648 22.1856C15.5516 22.2218 15.5311 22.2549 15.5047 22.2829C15.4782 22.3109 15.4463 22.3332 15.4109 22.3484C15.3754 22.3636 15.3373 22.3715 15.2988 22.3714H14.0408C13.9649 22.3695 13.8928 22.338 13.8399 22.2836C13.7871 22.2291 13.7577 22.1561 13.7581 22.0802V16.8481C13.757 16.8104 13.7636 16.7728 13.7773 16.7376C13.791 16.7024 13.8117 16.6703 13.8381 16.6432C13.8644 16.6161 13.8959 16.5946 13.9308 16.5799C13.9656 16.5652 14.003 16.5577 14.0408 16.5577H15.2988C15.3366 16.5577 15.374 16.5652 15.4088 16.5799C15.4436 16.5946 15.4751 16.6161 15.5015 16.6432C15.5278 16.6703 15.5485 16.7024 15.5622 16.7376C15.576 16.7728 15.5825 16.8104 15.5815 16.8481V22.0724ZM14.6464 15.4573C14.5102 15.4562 14.3756 15.4284 14.2501 15.3753C14.1247 15.3223 14.0109 15.245 13.9153 15.148C13.8198 15.051 13.7442 14.936 13.693 14.8098C13.6419 14.6836 13.616 14.5485 13.6171 14.4123C13.6181 14.2761 13.6459 14.1415 13.699 14.016C13.7521 13.8906 13.8293 13.7768 13.9263 13.6812C14.0234 13.5856 14.1383 13.5101 14.2645 13.4589C14.3907 13.4077 14.5258 13.3819 14.662 13.3829C14.9323 13.3917 15.1885 13.5058 15.3759 13.7009C15.5633 13.8959 15.6671 14.1565 15.6651 14.427C15.663 14.6975 15.5554 14.9564 15.3651 15.1487C15.1748 15.3409 14.9169 15.4511 14.6464 15.4558M22.2914 22.064C22.291 22.1354 22.263 22.2039 22.2132 22.255C22.1633 22.3062 22.0956 22.336 22.0242 22.3382H20.6962C20.6247 22.336 20.5569 22.3061 20.507 22.2548C20.4572 22.2035 20.4292 22.1348 20.4291 22.0632V19.6433C20.4291 19.2822 20.5393 18.0722 19.4707 18.0722C18.6375 18.0722 18.4728 18.9203 18.441 19.2977V22.1184C18.441 22.19 18.4131 22.2589 18.3633 22.3103C18.3134 22.3618 18.2455 22.3918 18.1738 22.394H16.8854C16.8125 22.3938 16.7425 22.3647 16.691 22.313C16.6394 22.2614 16.6105 22.1914 16.6105 22.1184V16.8227C16.6127 16.7511 16.6427 16.6831 16.6942 16.6333C16.7456 16.5834 16.8145 16.5555 16.8861 16.5555H18.1738C18.2455 16.5555 18.3143 16.5834 18.3658 16.6333C18.4173 16.6831 18.4473 16.7511 18.4495 16.8227V17.2785C18.6375 17.0034 18.8971 16.7847 19.2002 16.6462C19.5034 16.5077 19.8386 16.4546 20.1697 16.4926C22.3147 16.4926 22.3069 18.4963 22.3069 19.6356L22.2914 22.064Z" fill="white"/>
</svg>
