<svg width="58" height="57" viewBox="0 0 58 57" fill="none" xmlns="http://www.w3.org/2000/svg">
<circle opacity="0.3" cx="29.0193" cy="28.3444" r="18.5748" fill="#12BDF3"/>
<rect x="29.019" y="0.0671387" width="39.9905" height="39.9905" rx="19.9952" transform="rotate(45 29.019 0.0671387)" fill="#E3E4E5"/>
<path d="M18.8425 23.2143C18.9058 23.2546 18.9691 23.292 19.0295 23.338C22.0243 25.5158 25.0248 27.6878 28.0081 29.8771C28.6238 30.3287 29.4005 30.3402 30.0248 29.8857C32.9966 27.7108 35.977 25.5503 38.9574 23.3869C39.035 23.3294 39.1156 23.2776 39.2307 23.197C39.2393 23.3006 39.2479 23.3725 39.2479 23.4444C39.2479 24.1377 39.2479 24.8311 39.2479 25.5244C39.2479 28.1279 39.2451 30.7343 39.2508 33.3379C39.2508 33.9104 39.1012 34.4167 38.7128 34.8396C38.336 35.2481 37.8699 35.4783 37.3089 35.5013C37.2255 35.5042 37.1421 35.507 37.0558 35.507C31.6991 35.507 26.3424 35.507 20.9857 35.507C20.6233 35.507 20.2723 35.4696 19.9472 35.3028C19.2309 34.9288 18.8339 34.3477 18.7907 33.5335C18.785 33.4415 18.7878 33.3523 18.7878 33.2602C18.7878 30.0123 18.7878 26.7614 18.7878 23.5135C18.7878 23.4243 18.7878 23.3351 18.7878 23.2431C18.8051 23.2344 18.8195 23.2258 18.8367 23.2172L18.8425 23.2143Z" fill="#021318"/>
<path d="M19.8638 21.4458C20.1313 21.2905 20.3758 21.2157 20.6348 21.1927C20.7671 21.1812 20.8994 21.1812 21.0346 21.1812C26.3626 21.1812 31.6933 21.1812 37.0213 21.1812C37.3377 21.1812 37.6513 21.1984 37.9476 21.325C38.0166 21.3538 38.0828 21.3912 38.1806 21.4372C38.1173 21.4976 38.0771 21.5408 38.0282 21.5753C35.3498 23.5229 32.6743 25.4734 29.9931 27.4181C29.3487 27.8871 28.6842 27.8756 28.0311 27.4009C25.37 25.4648 22.709 23.5315 20.0479 21.5954C19.9932 21.5551 19.9443 21.512 19.8638 21.4458Z" fill="#021318"/>
</svg>
