<svg width="26" height="29" viewBox="0 0 26 29" fill="none" xmlns="http://www.w3.org/2000/svg">
<path d="M2.53968 0.844422L24.7623 13.3463C24.9647 13.4603 25.1332 13.6261 25.2504 13.8267C25.3676 14.0273 25.4294 14.2555 25.4294 14.4879C25.4294 14.7202 25.3676 14.9484 25.2504 15.149C25.1332 15.3496 24.9647 15.5154 24.7623 15.6295L2.53968 28.1313C2.34022 28.2434 2.11487 28.3013 1.88607 28.2993C1.65727 28.2973 1.43298 28.2354 1.23553 28.1198C1.03808 28.0042 0.874347 27.8388 0.760627 27.6403C0.646907 27.4417 0.587164 27.2169 0.587342 26.9881V1.98765C0.58745 1.75898 0.647401 1.53432 0.761238 1.33599C0.875075 1.13767 1.03883 0.972585 1.23624 0.857157C1.43364 0.741729 1.65781 0.679973 1.88648 0.678026C2.11515 0.676079 2.34034 0.732372 2.53968 0.844422Z" fill="white"/>
</svg>
