<svg width="148" height="148" viewBox="0 0 148 148" fill="none" xmlns="http://www.w3.org/2000/svg">
<circle cx="74.0176" cy="74.0176" r="61.0176" fill="#021318"/>
<circle cx="74.0175" cy="74.0178" r="35.0232" transform="rotate(-22.3257 74.0175 74.0178)" stroke="#12BDF3" stroke-width="2"/>
<path d="M87.1566 117.465L89.0965 125.919L85.9262 126.646C85.2768 126.795 84.7041 126.799 84.2082 126.658C83.7096 126.518 83.2988 126.261 82.9759 125.889C82.6508 125.521 82.4268 125.068 82.3036 124.531C82.1792 123.989 82.1829 123.482 82.3147 123.008C82.4465 122.535 82.7075 122.126 83.0978 121.781C83.4887 121.439 84.0102 121.194 84.6624 121.044L86.7635 120.562L87.0525 121.821L85.1577 122.256C84.778 122.343 84.4821 122.48 84.2703 122.668C84.0584 122.856 83.9212 123.078 83.8587 123.336C83.7934 123.594 83.7952 123.873 83.864 124.173C83.9328 124.473 84.0526 124.724 84.2234 124.925C84.3914 125.127 84.6123 125.263 84.8863 125.334C85.1582 125.407 85.4853 125.4 85.8679 125.313L87.2714 124.991L85.6251 117.816L87.1566 117.465Z" fill="white"/>
<path d="M77.9094 119.188L78.1705 127.858L76.6 127.905L76.3785 120.552L72.5601 120.667L72.5204 119.35L77.9094 119.188Z" fill="white"/>
<path d="M68.5631 118.996L70.215 119.286L65.7086 127.301L63.7981 126.966L62.2849 117.894L63.9368 118.184L65.0273 125.376L65.0941 125.388L68.5631 118.996ZM67.9212 122.336L63.416 121.546L63.634 120.303L68.1393 121.093L67.9212 122.336Z" fill="white"/>
<path d="M56.9173 125.288L55.2816 124.599L54.8137 120.24L54.7357 120.207L51.2919 122.921L49.6562 122.233L54.6733 118.444L55.928 115.461L57.3724 116.069L56.1177 119.052L56.9173 125.288Z" fill="white"/>
<path d="M35.3856 111.677L41.2025 105.242L42.2393 106.18L41.3088 113.303L41.3622 113.352L45.3244 108.969L46.4899 110.023L40.6731 116.457L39.63 115.514L40.5665 108.39L40.5099 108.339L36.5449 112.725L35.3856 111.677Z" fill="white"/>
<path d="M30.9879 98.7312C31.7599 98.2045 32.5198 97.898 33.2676 97.8117C34.0114 97.7246 34.6985 97.83 35.329 98.1279C35.9579 98.4235 36.4864 98.885 36.9144 99.5124C37.3425 100.14 37.5802 100.801 37.6276 101.497C37.671 102.192 37.5174 102.871 37.1666 103.534C36.8118 104.197 36.2496 104.79 35.48 105.316C34.7079 105.842 33.95 106.149 33.2062 106.236C32.4584 106.322 31.7701 106.218 31.1412 105.922C30.5107 105.624 29.9815 105.162 29.5534 104.534C29.1254 103.907 28.8885 103.247 28.8427 102.553C28.7953 101.857 28.9489 101.178 29.3037 100.516C29.6545 99.8528 30.2159 99.2579 30.9879 98.7312ZM31.8782 100.036C31.3347 100.407 30.9345 100.805 30.6775 101.23C30.4165 101.654 30.2923 102.08 30.3047 102.509C30.3148 102.94 30.4527 103.35 30.7184 103.74C30.9842 104.129 31.3157 104.407 31.713 104.573C32.1079 104.742 32.5512 104.783 33.0429 104.697C33.5306 104.61 34.0462 104.381 34.5897 104.011C35.1331 103.64 35.5353 103.242 35.7962 102.818C36.0533 102.393 36.1767 101.966 36.1666 101.535C36.1542 101.106 36.0151 100.697 35.7494 100.307C35.4837 99.9177 35.1533 99.6389 34.7584 99.4708C34.3611 99.3044 33.9186 99.2645 33.4309 99.3511C32.9392 99.4371 32.4216 99.6654 31.8782 100.036Z" fill="white"/>
<path d="M32.4318 91.8083L25.0111 96.923L24.4661 95.3235L29.9954 91.7884L29.9694 91.7122L23.3979 92.1885L22.902 90.7333L28.3998 87.0926L28.3752 87.0204L21.8338 87.5983L21.2888 85.9988L30.2885 85.5184L30.7885 86.9856L25.5878 90.5922L25.6096 90.6564L31.9318 90.3411L32.4318 91.8083Z" fill="white"/>
<path d="M29.6791 65.4942L21.2923 63.2816L22.122 60.1366C22.292 59.4923 22.5548 58.9834 22.9103 58.61C23.2665 58.2338 23.6843 57.9893 24.1638 57.8763C24.6413 57.7599 25.1462 57.7719 25.6786 57.9124C26.2164 58.0543 26.6643 58.2936 27.0222 58.6304C27.3801 58.9672 27.6208 59.3885 27.7444 59.8941C27.8652 60.399 27.8403 60.975 27.6696 61.622L27.1197 63.7065L25.8707 63.3769L26.3666 61.4973C26.466 61.1205 26.4818 60.7947 26.4142 60.5199C26.3465 60.2451 26.2132 60.0201 26.0141 59.845C25.8157 59.6671 25.5678 59.5389 25.2702 59.4603C24.9726 59.3818 24.695 59.3714 24.4375 59.429C24.1806 59.4839 23.9574 59.6162 23.7677 59.8261C23.576 60.0325 23.4301 60.3254 23.3299 60.7049L22.9626 62.0972L30.0799 63.975L29.6791 65.4942Z" fill="white"/>
<path d="M32.4522 56.5057L24.6548 52.7064L25.3431 51.2939L31.9564 54.5163L33.6297 51.0821L34.8138 51.659L32.4522 56.5057Z" fill="white"/>
<path d="M36.9674 48.3203L35.9429 49.6482L30.941 41.932L32.1259 40.3962L40.8611 43.2739L39.8366 44.6017L32.9625 42.2239L32.9211 42.2776L36.9674 48.3203ZM34.3085 46.1992L37.1026 42.5778L38.1019 43.3488L35.3077 46.9702L34.3085 46.1992Z" fill="white"/>
<path d="M36.8108 35.0843L38.1804 33.956L42.2579 35.5686L42.3232 35.5147L41.5212 31.204L42.8909 30.0757L43.9132 36.2791L45.9705 38.7765L44.761 39.7729L42.7037 37.2755L36.8108 35.0843Z" fill="white"/>
<path d="M58.8713 22.3487L61.8637 30.4899L60.5518 30.972L54.6775 26.8366L54.6099 26.8615L56.6482 32.4069L55.1734 32.9489L52.181 24.8077L53.5008 24.3226L59.3726 28.4635L59.4441 28.4372L57.4044 22.8878L58.8713 22.3487Z" fill="white"/>
<path d="M72.3776 24.4733C72.485 25.4017 72.4031 26.2169 72.1319 26.9191C71.8632 27.6182 71.4504 28.1775 70.8936 28.5973C70.3395 29.0167 69.6852 29.27 68.9308 29.3573C68.1763 29.4446 67.48 29.3475 66.8421 29.066C66.2066 28.7814 65.6768 28.3297 65.2527 27.7108C64.8311 27.0888 64.5668 26.315 64.4597 25.3895C64.3523 24.4611 64.4329 23.6474 64.7017 22.9483C64.9729 22.2462 65.3855 21.6854 65.9395 21.266C66.4964 20.8463 67.1521 20.5927 67.9065 20.5054C68.661 20.4181 69.3558 20.5154 69.991 20.7972C70.629 21.0787 71.1588 21.5304 71.5804 22.1524C72.0044 22.7713 72.2702 23.5449 72.3776 24.4733ZM70.8083 24.6549C70.7327 24.0014 70.5666 23.4621 70.3099 23.037C70.0557 22.6088 69.7358 22.3005 69.3502 22.112C68.9642 21.9208 68.537 21.8522 68.0686 21.9064C67.6002 21.9606 67.2 22.1249 66.8679 22.3992C66.5355 22.6708 66.2931 23.0442 66.1406 23.5194C65.9906 23.9915 65.9534 24.5544 66.029 25.2079C66.1046 25.8614 66.2695 26.4022 66.5237 26.8304C66.7804 27.2555 67.1017 27.5637 67.4876 27.7549C67.8733 27.9434 68.3003 28.0105 68.7687 27.9563C69.2371 27.9021 69.6375 27.7393 69.9699 27.4677C70.3019 27.1934 70.543 26.8202 70.693 26.348C70.8455 25.8728 70.8839 25.3084 70.8083 24.6549Z" fill="white"/>
<path d="M77.8356 28.9699L76.757 20.0221L78.4266 20.2831L78.9859 26.822L79.0654 26.8345L81.6987 20.7948L83.2177 21.0323L83.8852 27.5924L83.9605 27.6042L86.4899 21.5439L88.1594 21.805L84.4009 29.9964L82.8694 29.757L82.094 23.4757L82.0271 23.4653L79.3671 29.2093L77.8356 28.9699Z" fill="white"/>
<path d="M102.413 38.7658L108.271 32.369L110.67 34.5658C111.161 35.0158 111.49 35.485 111.655 35.9733C111.822 36.4636 111.845 36.9472 111.722 37.4242C111.603 37.9011 111.357 38.3426 110.986 38.7486C110.61 39.1588 110.19 39.4441 109.725 39.6044C109.261 39.7647 108.776 39.782 108.271 39.6563C107.767 39.5286 107.269 39.2388 106.776 38.7868L105.186 37.3309L106.058 36.3783L107.492 37.6912C107.779 37.9543 108.06 38.1198 108.335 38.1877C108.61 38.2555 108.871 38.242 109.119 38.1472C109.368 38.0543 109.597 37.8944 109.805 37.6674C110.013 37.4404 110.151 37.1995 110.22 36.9447C110.291 36.6918 110.277 36.4326 110.18 36.1671C110.086 35.9014 109.894 35.636 109.605 35.371L108.543 34.3985L103.572 39.827L102.413 38.7658Z" fill="white"/>
<path d="M109.082 45.3995L116.07 40.2622L117.001 41.5282L111.074 45.8854L113.336 48.9634L112.275 49.7435L109.082 45.3995Z" fill="white"/>
<path d="M114.23 53.2027L113.531 51.6783L122.688 50.837L123.496 52.6001L116.888 58.9962L116.189 57.4718L121.489 52.4911L121.461 52.4295L114.23 53.2027ZM117.344 51.8347L119.251 55.9921L118.104 56.5183L116.197 52.3609L117.344 51.8347Z" fill="white"/>
<path d="M126.021 59.217L126.384 60.9542L123.06 63.8146L123.078 63.8975L127.267 65.1915L127.629 66.9287L121.662 64.9498L118.494 65.6103L118.174 64.0763L121.342 63.4158L126.021 59.217Z" fill="white"/>
<path d="M127.042 84.6695L118.443 83.5341L118.626 82.1485L125.018 78.8701L125.027 78.7987L119.17 78.0253L119.376 76.4676L127.975 77.603L127.791 78.997L121.395 82.2707L121.385 82.3462L127.246 83.1202L127.042 84.6695Z" fill="white"/>
<path d="M118.882 95.6401C118.01 95.3036 117.326 94.8521 116.83 94.2855C116.337 93.7226 116.033 93.0971 115.92 92.409C115.807 91.7235 115.887 91.0264 116.16 90.3178C116.433 89.6093 116.843 89.038 117.389 88.604C117.936 88.1736 118.583 87.9146 119.328 87.8269C120.074 87.7428 120.882 87.8685 121.752 88.2039C122.623 88.5404 123.306 88.9901 123.8 89.553C124.296 90.1195 124.601 90.7456 124.714 91.4311C124.827 92.1192 124.747 92.8176 124.473 93.5262C124.2 94.2347 123.791 94.8047 123.246 95.2361C122.7 95.6701 122.054 95.9291 121.307 96.0132C120.562 96.1009 119.754 95.9766 118.882 95.6401ZM119.451 94.1663C120.064 94.4031 120.619 94.5067 121.115 94.4771C121.612 94.4511 122.034 94.3112 122.38 94.0574C122.729 93.8046 122.988 93.4583 123.158 93.0184C123.327 92.5785 123.368 92.1478 123.279 91.7262C123.194 91.3057 122.976 90.9174 122.626 90.5615C122.278 90.2092 121.797 89.9146 121.183 89.6777C120.569 89.4409 120.013 89.3354 119.516 89.3614C119.021 89.3911 118.598 89.5323 118.25 89.7851C117.903 90.0389 117.645 90.3857 117.476 90.8256C117.306 91.2655 117.264 91.6957 117.35 92.1163C117.438 92.5378 117.657 92.9247 118.005 93.277C118.355 93.633 118.837 93.9294 119.451 94.1663Z" fill="white"/>
<path d="M112.363 98.3817L120.786 101.587L119.779 102.943L113.73 100.399L113.682 100.463L117.805 105.603L116.888 106.837L110.77 104.378L110.725 104.439L114.914 109.496L113.907 110.853L108.402 103.717L109.326 102.473L115.248 104.706L115.288 104.652L111.439 99.6263L112.363 98.3817Z" fill="white"/>
<circle cx="24.6277" cy="76.3081" r="1.92603" transform="rotate(-22.3257 24.6277 76.3081)" fill="#12BDF3"/>
<circle cx="96.2887" cy="31.4528" r="1.92603" transform="rotate(-22.3257 96.2887 31.4528)" fill="#12BDF3"/>
<circle cx="101.655" cy="115.193" r="1.92603" transform="rotate(-22.3257 101.655 115.193)" fill="#12BDF3"/>
</svg>
