<svg width="23" height="23" viewBox="0 0 23 23" fill="none" xmlns="http://www.w3.org/2000/svg">
<path d="M18.1028 6.90842C18.9237 6.82788 19.7101 6.53806 20.3869 6.06667L20.7977 6.59584C19.927 7.49564 17.6418 7.92321 16.5968 7.38958C16.4785 6.85595 16.1637 6.5992 15.7361 6.68739C15.6455 6.70651 15.5598 6.7436 15.4838 6.79648C15.4079 6.84936 15.3433 6.91695 15.294 6.99524C15.2446 7.07352 15.2115 7.16091 15.1966 7.25224C15.1816 7.34356 15.1851 7.43697 15.2069 7.52691C15.3063 7.94331 15.6747 8.12192 16.2005 8.00024C16.7881 8.23159 17.417 8.33989 18.0481 8.31841C18.0526 8.38539 18.0604 8.44233 18.0593 8.49703C18.0436 9.36557 18.0273 10.2349 18.0102 11.1049C18.007 11.5139 17.9228 11.9181 17.7627 12.2945C17.6025 12.6708 17.3694 13.0116 17.0769 13.2974C14.5018 15.8726 11.9259 18.4484 9.34931 21.025C9.11418 21.2849 8.80528 21.4669 8.46393 21.5465C8.12258 21.6261 7.76505 21.5995 7.43919 21.4704C7.18701 21.3761 6.95979 21.2252 6.77495 21.0295C5.6742 19.9287 4.57308 18.8276 3.47159 17.7261C3.03174 17.2863 2.59077 16.8453 2.15092 16.4054C1.88549 16.1396 1.71483 15.7938 1.66521 15.4215C1.61559 15.0491 1.68975 14.6707 1.87629 14.3446C1.97584 14.1772 2.09709 14.0237 2.23688 13.888C3.65096 12.4739 5.06503 11.0599 6.47911 9.64578C7.62116 8.50373 8.76322 7.36167 9.90527 6.21962C10.2017 5.9109 10.5574 5.66517 10.951 5.49713C11.3446 5.3291 11.7681 5.24222 12.1961 5.24168C13.5432 5.21787 14.8899 5.1892 16.2362 5.15571C16.4717 5.14258 16.7073 5.17672 16.9293 5.2561C17.1514 5.33547 17.3553 5.45848 17.529 5.61789C17.838 5.89801 18.0324 6.28253 18.0749 6.69743L18.1028 6.90842ZM11.2751 11.7401C10.6108 11.1741 9.88071 11.125 9.33927 11.5771C9.07149 11.7925 8.89326 12.0996 8.83913 12.4389C8.80375 12.6702 8.8252 12.9067 8.90164 13.1278C8.97808 13.349 9.1072 13.5482 9.27786 13.7083L8.30773 14.6784C8.16923 14.5731 8.07778 14.4175 8.05319 14.2453C8.03679 14.1362 8.04482 14.0248 8.07667 13.9192C8.10852 13.8136 8.16342 13.7164 8.2374 13.6346L8.00073 13.3979L7.75848 13.1557C7.52266 13.3785 7.37888 13.6816 7.35547 14.0052C7.33743 14.2258 7.37045 14.4476 7.45195 14.6534C7.53346 14.8592 7.66127 15.0435 7.82546 15.1919L7.24271 15.7747L7.73391 16.2659L8.31332 15.6865C8.97198 16.2491 9.70655 16.3027 10.2435 15.8439C10.5113 15.6285 10.6895 15.3214 10.7437 14.9821C10.7784 14.7495 10.756 14.512 10.6784 14.2901C10.6008 14.0682 10.4703 13.8685 10.2982 13.7083L11.2639 12.7426C11.3312 12.787 11.3887 12.8447 11.4331 12.9121C11.4774 12.9794 11.5076 13.0551 11.5218 13.1345C11.5463 13.2494 11.5431 13.3685 11.5127 13.4821C11.4822 13.5956 11.4253 13.7003 11.3465 13.7875L11.5832 14.0242L11.8243 14.2653C12.0595 14.042 12.2032 13.7392 12.2273 13.4158C12.247 13.195 12.2147 12.9727 12.1331 12.7667C12.0515 12.5606 11.9228 12.3765 11.7573 12.2291L12.3367 11.6497L11.8511 11.164L11.2751 11.7401Z" fill="#12BDF3"/>
<path d="M15.2265 4.4667L15.2353 4.45782L15.2235 4.45782L15.2265 4.4667Z" fill="#12BDF3"/>
<path d="M10.765 12.2369L9.79491 13.207C9.69084 13.1349 9.6102 13.0339 9.56298 12.9164C9.51575 12.7989 9.50402 12.6702 9.52921 12.5461C9.54471 12.4159 9.59948 12.2935 9.68622 12.1952C9.77297 12.0969 9.88759 12.0273 10.0148 11.9957C10.1495 11.9538 10.2938 11.9545 10.4281 11.9977C10.5623 12.0408 10.68 12.1244 10.765 12.2369Z" fill="#12BDF3"/>
<path d="M9.78267 14.2307C10.0897 14.4126 10.1589 14.9485 9.87086 15.2432C9.80246 15.3163 9.71901 15.3737 9.62626 15.4114C9.53352 15.449 9.43371 15.4661 9.33371 15.4615C9.23372 15.4568 9.13593 15.4305 9.0471 15.3843C8.95828 15.3381 8.88053 15.2732 8.81924 15.1941L9.78267 14.2307Z" fill="#12BDF3"/>
</svg>
