<svg width="20" height="19" viewBox="0 0 20 19" fill="none" xmlns="http://www.w3.org/2000/svg">
<path d="M15.7159 9.09734C15.6262 9.10246 15.5362 9.10246 15.4465 9.09734C14.9231 9.03394 14.3926 9.0652 13.8803 9.18962C13.3973 9.30193 13.0513 9.59511 12.8404 10.0454C12.7877 10.1604 12.735 10.2764 12.6748 10.4087C12.562 10.3998 12.4555 10.3966 12.35 10.3824C11.8891 10.3186 11.463 10.4193 11.1282 10.7372C10.5236 11.3142 10.0947 12.0506 9.89108 12.8612C9.77349 13.3078 9.90796 13.7138 10.1669 14.084C10.236 14.1821 10.3077 14.278 10.3841 14.383C10.3219 14.4694 10.2687 14.5464 10.2122 14.6202C10.0615 14.8117 9.9526 15.0326 9.89266 15.2688C9.82497 15.5599 9.84591 15.8645 9.95278 16.1436C10.1604 16.7373 10.4726 17.2891 10.8745 17.7729C11.2764 18.2586 11.781 18.4774 12.4143 18.3709C12.5042 18.3642 12.5945 18.3642 12.6843 18.3709L12.8547 18.7737C12.7529 18.7795 12.6822 18.7869 12.6121 18.7869C12.1129 18.7869 11.6135 18.7869 11.114 18.7869H3.01686C2.4229 18.7981 1.84759 18.5793 1.41116 18.1763C0.906508 17.716 0.642317 17.1386 0.640735 16.4558C0.635461 14.0204 0.635461 11.5846 0.640735 9.14849C0.640735 6.97603 0.640735 4.80339 0.640735 2.63058C0.634658 2.28841 0.705353 1.94923 0.847621 1.63797C0.989889 1.32671 1.20011 1.0513 1.46284 0.831977C1.87002 0.467934 2.39737 0.267188 2.94357 0.2683C5.4336 0.264082 7.92346 0.264082 10.4131 0.2683C10.6062 0.266351 10.7976 0.303254 10.9761 0.376811C11.1545 0.450368 11.3164 0.559075 11.452 0.696465C11.732 0.969604 12.0072 1.24801 12.2841 1.52484C13.2385 2.47872 14.1856 3.44051 15.1506 4.38384C15.3381 4.55838 15.4859 4.77106 15.5843 5.00755C15.6826 5.24403 15.7291 5.49884 15.7207 5.75481C15.7107 6.7804 15.7175 7.80599 15.7175 8.83158L15.7159 9.09734ZM7.73696 8.88642H9.69861C10.2112 8.88642 10.7237 8.89117 11.2358 8.88326C11.3923 8.87695 11.5412 8.8141 11.655 8.70639C11.7687 8.59867 11.8395 8.45337 11.8543 8.29743C11.8823 7.95943 11.675 7.65255 11.3602 7.58084C11.2673 7.56471 11.1728 7.55888 11.0786 7.56344C8.85366 7.56344 6.62887 7.56344 4.40426 7.56344C4.34362 7.56344 4.28245 7.56344 4.22233 7.56344C4.12824 7.57203 4.03707 7.60059 3.95489 7.6472C3.87272 7.69382 3.80143 7.75743 3.74578 7.83378C3.69014 7.91013 3.65142 7.99747 3.6322 8.08997C3.61299 8.18247 3.61373 8.278 3.63436 8.3702C3.70977 8.68657 4.01931 8.89117 4.31989 8.88853C5.45786 8.88221 6.59846 8.88853 7.73696 8.88853V8.88642ZM10.3172 1.76002C10.3114 1.85177 10.3035 1.9182 10.3035 1.98306C10.3035 2.86681 10.3035 3.75021 10.3035 4.63325C10.3042 4.72747 10.3127 4.82147 10.3288 4.9143C10.3585 5.12006 10.4623 5.3079 10.6206 5.44263C10.7789 5.57736 10.981 5.64974 11.1888 5.64619C12.138 5.64935 13.0909 5.64619 14.0417 5.64619C14.0947 5.64284 14.1475 5.6365 14.1999 5.62721C14.0865 5.44898 10.4907 1.86126 10.3172 1.76213V1.76002ZM6.22406 11.921H7.86404C7.979 11.921 8.09396 11.9263 8.20786 11.9173C8.37435 11.9054 8.53069 11.8328 8.6473 11.7134C8.7639 11.594 8.8327 11.436 8.84065 11.2693C8.85489 10.9529 8.61759 10.6618 8.2838 10.5964C8.20451 10.5815 8.12402 10.5739 8.04334 10.5738C6.83576 10.5738 5.62818 10.5738 4.42061 10.5738C4.3195 10.5733 4.21866 10.5842 4.12003 10.6065C4.02988 10.6289 3.94547 10.6701 3.87229 10.7273C3.79911 10.7845 3.73879 10.8565 3.69527 10.9386C3.65174 11.0206 3.62599 11.111 3.61967 11.2036C3.61336 11.2963 3.62663 11.3893 3.65862 11.4765C3.75987 11.747 4.00666 11.9173 4.32094 11.9194C4.95584 11.9231 5.58969 11.921 6.22406 11.921ZM6.2325 13.601H4.67425C4.5324 13.601 4.39055 13.5952 4.24923 13.6052C4.08587 13.6158 3.93185 13.6851 3.81556 13.8003C3.69928 13.9155 3.62856 14.0689 3.61644 14.2321C3.60889 14.3956 3.66125 14.5561 3.76368 14.6837C3.8661 14.8113 4.01156 14.8971 4.17276 14.925C4.25885 14.9409 4.34625 14.9487 4.43379 14.9482C5.63469 14.9482 6.83541 14.9482 8.03595 14.9482C8.14381 14.9489 8.25133 14.9361 8.35604 14.9102C8.4933 14.8707 8.61445 14.7885 8.70202 14.6756C8.78959 14.5628 8.83906 14.425 8.84329 14.2822C8.84306 14.1431 8.79961 14.0075 8.71893 13.8941C8.63825 13.7808 8.52434 13.6953 8.39295 13.6495C8.29023 13.6193 8.18362 13.6044 8.07656 13.6052C7.46011 13.5994 6.84631 13.5994 6.2325 13.5994V13.601Z" fill="#12BDF3"/>
<path d="M13.3482 17.589L12.9986 17.3881C12.7913 17.4128 12.5688 17.4265 12.3516 17.4687C12.0188 17.5325 11.762 17.4387 11.5511 17.1703C11.2406 16.7786 10.9932 16.341 10.8176 15.8731C10.7694 15.7574 10.7543 15.6306 10.774 15.5067C10.7936 15.3829 10.8472 15.267 10.9288 15.1718C11.0775 14.9809 11.2231 14.7864 11.3665 14.5981V14.1647C11.2368 13.9933 11.1028 13.8061 10.9589 13.63C10.759 13.388 10.7168 13.1354 10.8344 12.8391C11.0162 12.3738 11.2692 11.9396 11.5843 11.5519C11.781 11.3115 12.0241 11.2356 12.3225 11.2883C12.5414 11.3247 12.7629 11.3474 12.9865 11.3769C13.0838 11.3304 13.1781 11.2775 13.2686 11.2187C13.3257 11.1736 13.3708 11.1151 13.3999 11.0484C13.4869 10.8586 13.5628 10.6635 13.6435 10.4684C13.6857 10.3576 13.7569 10.2602 13.8497 10.1864C13.9425 10.1127 14.0534 10.0653 14.1708 10.0492C14.7021 9.95195 15.2468 9.95337 15.7776 10.0534C15.8914 10.0711 15.9984 10.1187 16.0877 10.1913C16.177 10.2639 16.2454 10.359 16.2859 10.4668C16.3851 10.703 16.4832 10.9413 16.5797 11.1707L16.9309 11.3748C17.1465 11.3479 17.368 11.33 17.5863 11.2909C17.9001 11.235 18.1521 11.312 18.3567 11.5678C18.6802 11.9663 18.9359 12.4155 19.1135 12.8971C19.16 13.0101 19.1747 13.1337 19.1561 13.2545C19.1375 13.3753 19.0863 13.4887 19.008 13.5826C18.8588 13.774 18.7132 13.968 18.5566 14.1737C18.5514 14.2715 18.5524 14.3696 18.5598 14.4674C18.568 14.5458 18.594 14.6214 18.6357 14.6883C18.7501 14.8549 18.8756 15.0142 19.0011 15.1729C19.1762 15.3938 19.2063 15.629 19.1066 15.8932C18.9259 16.3737 18.667 16.8211 18.3404 17.2172C18.1484 17.4503 17.9106 17.5225 17.6201 17.4756C17.3944 17.4387 17.1666 17.416 16.9403 17.3865L16.5849 17.5879C16.5011 17.7893 16.4035 17.9971 16.3271 18.2122C16.2158 18.5286 15.9996 18.6868 15.6727 18.7337C15.172 18.8076 14.6627 18.8001 14.1645 18.7116C14.0473 18.6938 13.937 18.6448 13.8453 18.5697C13.7535 18.4947 13.6836 18.3963 13.643 18.285C13.5423 18.0535 13.4452 17.8241 13.3482 17.589ZM14.9703 13.0721C14.7983 13.0694 14.6276 13.1009 14.4679 13.1647C14.3083 13.2285 14.1629 13.3235 14.0402 13.4439C13.9176 13.5644 13.8201 13.7081 13.7534 13.8666C13.6868 14.0251 13.6523 14.1952 13.6519 14.3672C13.6487 14.5391 13.6797 14.71 13.7431 14.8699C13.8064 15.0298 13.9009 15.1755 14.0211 15.2986C14.1412 15.4217 14.2846 15.5197 14.4429 15.5869C14.6013 15.6541 14.7714 15.6892 14.9434 15.6902C15.6895 15.6944 16.2696 15.1238 16.2701 14.3841C16.2727 14.2121 16.241 14.0413 16.1767 13.8818C16.1124 13.7222 16.017 13.5771 15.8959 13.4549C15.7749 13.3327 15.6306 13.2359 15.4717 13.1702C15.3127 13.1045 15.1423 13.0711 14.9703 13.0721Z" fill="#12BDF3"/>
</svg>
