<svg width="22" height="18" viewBox="0 0 22 18" fill="none" xmlns="http://www.w3.org/2000/svg">
<path d="M0.000579834 9.38478C0.0258969 9.23064 0.0512131 9.07669 0.0765301 8.92293C0.215416 8.05481 0.674977 7.27041 1.36435 6.72481C2.02836 6.18366 2.79792 5.92286 3.65126 5.91728C4.44539 5.91169 5.23897 5.91728 6.03254 5.91728C6.11352 5.91728 6.19394 5.92453 6.29111 5.929C6.34696 6.85382 6.68818 7.64572 7.34382 8.3142C7.29706 8.34083 7.24897 8.36507 7.19974 8.3868C5.63604 8.97989 4.68665 10.1007 4.35604 11.7376C4.30019 12.0168 4.30745 12.3134 4.29684 12.6026C4.28735 12.8405 4.29684 13.0796 4.29684 13.3286C4.26364 13.3363 4.2298 13.3407 4.19576 13.3421C3.6373 13.2896 3.07883 13.2304 2.52986 13.1354C1.87947 13.0224 1.23587 12.8732 0.602043 12.6887C0.403788 12.6328 0.202742 12.5809 0.00281246 12.5267L0.000579834 9.38478Z" fill="#12BDF3"/>
<path d="M15.5264 16.2956C15.2243 16.4584 14.9062 16.5894 14.577 16.6865C13.8674 16.9041 13.1377 17.0503 12.399 17.1226C11.7409 17.1913 11.0786 17.2114 10.4176 17.183C9.92836 17.1617 9.44026 17.0997 8.95328 17.0433C8.18316 16.9534 7.42979 16.7775 6.68257 16.5742C6.42791 16.5055 6.1766 16.4246 5.913 16.3453C5.90798 16.2861 5.90016 16.2336 5.90016 16.1777C5.90016 15.2283 5.89402 14.275 5.90016 13.3234C5.91063 12.4913 6.20761 11.6883 6.74107 11.0497C7.27453 10.411 8.01184 9.97582 8.82875 9.81737C9.05181 9.77812 9.278 9.75943 9.50448 9.76153C10.374 9.7565 11.2435 9.75203 12.1131 9.76767C12.8123 9.77995 13.4456 10.0151 14.0118 10.42C14.7562 10.9359 15.2729 11.719 15.4544 12.6063C15.5064 12.8652 15.5326 13.1286 15.5325 13.3927C15.542 14.3124 15.5365 15.2322 15.5359 16.1526C15.537 16.1922 15.5309 16.2358 15.5264 16.2956Z" fill="#12BDF3"/>
<path d="M21.1461 12.4678C19.8795 13.0749 18.5504 13.291 17.1687 13.3541C17.1637 13.2686 17.1576 13.2072 17.157 13.1463C17.157 12.8816 17.1615 12.6169 17.1525 12.3528C17.1262 11.478 16.8358 10.6316 16.3196 9.92485C15.8034 9.2181 15.0855 8.68399 14.2603 8.3927L14.1 8.33685C14.1278 8.29542 14.1578 8.25552 14.1899 8.21734C14.6823 7.69665 15.0032 7.03742 15.1091 6.32862C15.1298 6.19961 15.1393 6.06893 15.1555 5.92764C15.2314 5.92373 15.2923 5.91759 15.3537 5.91759C16.0658 5.91759 16.7778 5.90251 17.4887 5.91759C19.0279 5.95724 20.1459 6.67151 20.8211 8.05874C20.9945 8.41675 21.0948 8.80578 21.116 9.20303C21.1327 9.49176 21.1433 9.7816 21.145 10.0709C21.1489 10.7969 21.145 11.5195 21.145 12.2439L21.1461 12.4678Z" fill="#12BDF3"/>
<path d="M10.7264 9.51894C9.97787 9.51924 9.25982 9.22248 8.72989 8.69381C8.19997 8.16515 7.9015 7.44779 7.90002 6.69926C7.90002 5.26792 9.01695 3.8779 10.7253 3.88013C12.3113 3.88013 13.5478 5.11378 13.5399 6.70819C13.5321 8.421 12.1432 9.52509 10.7264 9.51894Z" fill="#12BDF3"/>
<path d="M7.65324 3.02236C6.95491 3.57138 6.48605 4.36077 6.33805 5.23666C5.46573 5.85432 4.00368 5.88057 2.999 5.00825C2.50855 4.58495 2.17848 4.00594 2.0641 3.36825C1.94972 2.73057 2.05798 2.07294 2.37073 1.50557C2.68528 0.935089 3.18767 0.491123 3.7925 0.249127C4.39734 0.00713077 5.06731 -0.0179658 5.68856 0.178099C6.28568 0.366243 6.80304 0.748057 7.15886 1.26317C7.51467 1.77828 7.68863 2.3973 7.65324 3.02236Z" fill="#12BDF3"/>
<path d="M13.5047 2.8202C13.5047 1.5966 14.3581 0.492522 15.5465 0.156327C16.1445 -0.0138897 16.7821 0.0182838 17.36 0.247848C17.9379 0.477412 18.4238 0.891499 18.742 1.42571C19.0528 1.94939 19.1862 2.55947 19.1222 3.16508C19.0582 3.77069 18.8003 4.33942 18.3868 4.78655C17.4933 5.75605 16.1061 5.89734 15.1338 5.41482C14.9858 4.30962 14.4351 3.43786 13.5047 2.8202Z" fill="#12BDF3"/>
</svg>
