<svg width="50" height="51" viewBox="0 0 50 51" fill="none" xmlns="http://www.w3.org/2000/svg">
<path d="M24.9931 0.769531L26.2937 20.2872C26.3487 21.1135 27.3268 21.5186 27.95 20.9733L42.6707 8.09186L29.7893 22.8126C29.244 23.4358 29.6491 24.4139 30.4754 24.4689L49.9931 25.7695L30.4754 27.0701C29.6491 27.1252 29.244 28.1032 29.7893 28.7264L42.6707 43.4472L27.95 30.5658C27.3268 30.0204 26.3487 30.4256 26.2937 31.2518L24.9931 50.7695L23.6925 31.2519C23.6374 30.4256 22.6593 30.0204 22.0361 30.5658L7.31539 43.4472L20.1968 28.7265C20.7421 28.1032 20.337 27.1252 19.5107 27.0701L-0.00694275 25.7695L19.5107 24.4689C20.337 24.4139 20.7421 23.4358 20.1968 22.8126L7.31539 8.09186L22.0361 20.9733C22.6593 21.5186 23.6374 21.1135 23.6925 20.2872L24.9931 0.769531Z" fill="#FDB52A"/>
</svg>
