<svg width="24" height="16" viewBox="0 0 24 16" fill="none" xmlns="http://www.w3.org/2000/svg">
<path d="M16.9278 14.5523C16.6013 14.7283 16.2574 14.8699 15.9017 14.9748C15.1347 15.21 14.3461 15.3679 13.5476 15.4462C12.8363 15.5204 12.1206 15.5421 11.4061 15.5114C10.8773 15.4884 10.3498 15.4214 9.82344 15.3605C8.99108 15.2633 8.17683 15.0732 7.36922 14.8535C7.09398 14.7792 6.82236 14.6917 6.53746 14.606C6.53203 14.542 6.52358 14.4853 6.52358 14.4249C6.52358 13.3988 6.51694 12.3684 6.52358 11.3399C6.53489 10.4406 6.85588 9.57269 7.43245 8.88244C8.00902 8.19218 8.80592 7.72179 9.68884 7.55054C9.92993 7.50811 10.1744 7.48791 10.4192 7.49018C11.359 7.48474 12.2988 7.47991 13.2386 7.49682C13.9943 7.51009 14.6788 7.76421 15.2908 8.20182C16.0953 8.75949 16.6537 9.60589 16.8499 10.5649C16.9062 10.8447 16.9345 11.1294 16.9344 11.4148C16.9447 12.4089 16.9386 13.403 16.938 14.3977C16.9392 14.4406 16.9326 14.4877 16.9278 14.5523Z" fill="#12BDF3"/>
<path d="M11.7399 6.29472C10.9308 6.29504 10.1547 5.9743 9.582 5.40291C9.00925 4.83152 8.68666 4.05619 8.68506 3.24716C8.68506 1.70014 9.89225 0.197784 11.7387 0.200198C13.4529 0.200198 14.7892 1.53354 14.7808 3.25681C14.7723 5.10805 13.2712 6.30136 11.7399 6.29472Z" fill="#12BDF3"/>
<path d="M4.02886 6.29472C3.21983 6.29504 2.44374 5.9743 1.871 5.40291C1.29825 4.83152 0.975659 4.05619 0.97406 3.24716C0.97406 1.70014 2.18126 0.197784 4.02766 0.200198C5.74187 0.200198 7.07823 1.53354 7.06978 3.25681C7.06133 5.10805 5.56019 6.30136 4.02886 6.29472Z" fill="#12BDF3"/>
<path d="M19.9952 6.29472C19.1861 6.29504 18.4101 5.9743 17.8373 5.40291C17.2646 4.83152 16.942 4.05619 16.9404 3.24716C16.9404 1.70014 18.1476 0.197784 19.994 0.200198C21.7082 0.200198 23.0445 1.53354 23.0361 3.25681C23.0276 5.10805 21.5265 6.30136 19.9952 6.29472Z" fill="#12BDF3"/>
</svg>
