<svg width="20" height="14" viewBox="0 0 20 14" fill="none" xmlns="http://www.w3.org/2000/svg">
<path d="M13.8976 12.4446C13.6234 12.5924 13.3346 12.7113 13.0359 12.7994C12.3918 12.9969 11.7295 13.1296 11.059 13.1953C10.4617 13.2575 9.86062 13.2758 9.26062 13.25C8.81659 13.2307 8.37357 13.1745 7.93157 13.1233C7.23258 13.0417 6.54879 12.882 5.87058 12.6975C5.63944 12.6351 5.41134 12.5616 5.17209 12.4897C5.16753 12.4359 5.16044 12.3883 5.16044 12.3376C5.16044 11.4759 5.15486 10.6107 5.16044 9.74693C5.16994 8.99171 5.43949 8.26286 5.92368 7.6832C6.40787 7.10355 7.07708 6.70852 7.81853 6.56471C8.021 6.52909 8.2263 6.51212 8.43186 6.51402C9.22108 6.50946 10.0103 6.50541 10.7995 6.5196C11.4341 6.53075 12.0089 6.74415 12.5229 7.11164C13.1985 7.57995 13.6675 8.29074 13.8322 9.09608C13.8794 9.33104 13.9032 9.57012 13.9032 9.80978C13.9118 10.6446 13.9067 11.4794 13.9062 12.3148C13.9072 12.3508 13.9016 12.3903 13.8976 12.4446Z" fill="#12BDF3"/>
<path d="M9.5408 5.50961C8.8614 5.50988 8.20966 5.24053 7.72869 4.76069C7.24771 4.28085 6.97681 3.62975 6.97546 2.95036C6.97546 1.65121 7.98923 0.389576 9.53979 0.391604C10.9793 0.391604 12.1016 1.51131 12.0945 2.95846C12.0874 4.51307 10.8268 5.51519 9.5408 5.50961Z" fill="#12BDF3"/>
<path d="M3.06534 5.50961C2.38594 5.50988 1.7342 5.24053 1.25322 4.76069C0.772244 4.28085 0.501343 3.62975 0.5 2.95036C0.5 1.65121 1.51377 0.389576 3.06432 0.391604C4.50387 0.391604 5.62611 1.51131 5.61902 2.95846C5.61192 4.51307 4.3513 5.51519 3.06534 5.50961Z" fill="#12BDF3"/>
<path d="M16.4734 5.50961C15.794 5.50988 15.1423 5.24053 14.6613 4.76069C14.1803 4.28085 13.9094 3.62975 13.9081 2.95036C13.9081 1.65121 14.9218 0.389576 16.4724 0.391604C17.912 0.391604 19.0342 1.51131 19.0271 2.95846C19.02 4.51307 17.7594 5.51519 16.4734 5.50961Z" fill="#12BDF3"/>
</svg>
