<svg width="22" height="21" viewBox="0 0 22 21" fill="none" xmlns="http://www.w3.org/2000/svg">
<path d="M4.06448 17.8731L7.5387 14.4057L7.74666 14.5752C8.46056 15.1776 9.32826 15.5689 10.2523 15.7054C11.3986 15.8826 12.5714 15.6777 13.5898 15.1222C14.833 14.4611 15.7077 13.4744 16.1621 12.1329C16.333 11.6352 16.4208 11.1129 16.422 10.5868V10.3438L19.4736 7.29224C19.5448 7.51036 19.6205 7.73866 19.6939 7.97035C19.7211 8.05738 19.7391 8.14779 19.7674 8.23368C19.7885 8.3073 19.833 8.37206 19.8942 8.41814C19.9554 8.46422 20.0299 8.48913 20.1065 8.48911C20.1517 8.48911 20.1969 8.48911 20.2432 8.48911C20.3828 8.48303 20.5221 8.50513 20.6529 8.55409C20.7837 8.60305 20.9033 8.67787 21.0046 8.77407C21.1059 8.87027 21.1867 8.98589 21.2423 9.11403C21.2979 9.24216 21.3271 9.38017 21.3282 9.51984C21.3463 10.1448 21.3519 10.771 21.3282 11.3937C21.3285 11.5335 21.3001 11.6718 21.2446 11.8001C21.189 11.9284 21.1077 12.0439 21.0056 12.1394C20.9034 12.2348 20.7827 12.3082 20.651 12.3549C20.5192 12.4016 20.3793 12.4207 20.2398 12.4109H20.1709C19.9234 12.4109 19.8183 12.4945 19.7425 12.7353C19.6363 13.0743 19.5448 13.4134 19.4125 13.7309C19.2566 14.1096 19.0633 14.4735 18.8847 14.8431C18.8689 14.877 18.8463 14.9086 18.8293 14.9425C18.7028 15.181 18.7163 15.2985 18.9265 15.485C19.0512 15.5921 19.1487 15.7273 19.2112 15.8793C19.2737 16.0313 19.2993 16.196 19.2859 16.3598C19.2772 16.5997 19.1788 16.8275 19.0102 16.9983C18.5581 17.4504 18.1162 17.9149 17.6539 18.3546C17.5533 18.4488 17.4351 18.5222 17.306 18.5705C17.1769 18.6188 17.0395 18.6411 16.9018 18.636C16.7641 18.631 16.6287 18.5987 16.5035 18.5411C16.3783 18.4835 16.2657 18.4017 16.1723 18.3003L16.1576 18.2834C15.9383 18.0573 15.8468 18.0449 15.5574 18.1975C15.2642 18.3639 14.9624 18.5148 14.6533 18.6496C14.2532 18.8123 13.8407 18.9491 13.4281 19.0813C13.132 19.1751 13.0631 19.2508 13.0642 19.5684C13.0642 20.2137 12.6336 20.6703 11.9894 20.6816C11.3961 20.693 10.8004 20.6918 10.2071 20.6816C9.97225 20.6864 9.74262 20.6121 9.55508 20.4707C9.36754 20.3293 9.23297 20.1289 9.17296 19.9018C9.14745 19.7907 9.13605 19.6767 9.13905 19.5628C9.13905 19.252 9.07237 19.1638 8.76722 19.0802C8.02476 18.8782 7.31112 18.5824 6.64359 18.1997C6.36443 18.0404 6.27401 18.0573 6.04684 18.2913C5.95053 18.3976 5.83355 18.4832 5.70306 18.5428C5.57256 18.6024 5.43129 18.6348 5.28787 18.6379C5.14444 18.6411 5.00187 18.615 4.86887 18.5612C4.73587 18.5075 4.61522 18.4271 4.5143 18.3252C4.37189 18.1828 4.22836 18.0359 4.06448 17.8731Z" fill="#12BDF3"/>
<path d="M17.1386 2.2866C16.4413 2.78728 16.4051 3.54565 16.9713 4.16161L14.6578 6.47511C14.6115 6.43894 14.5448 6.39147 14.4849 6.33948C13.7657 5.731 12.8916 5.33426 11.96 5.19347C11.075 5.05594 10.1695 5.14936 9.33121 5.46471C7.91734 5.99138 6.86287 6.91815 6.23335 8.30038C5.94369 8.93229 5.79373 9.61924 5.7937 10.3144V10.5585L2.74218 13.61C2.65967 13.3535 2.57491 13.0879 2.49128 12.8189C2.47207 12.7613 2.46076 12.7059 2.43929 12.6437C2.41644 12.579 2.3745 12.5228 2.319 12.4824C2.26351 12.442 2.19708 12.4195 2.12848 12.4177C2.07503 12.4148 2.02146 12.4148 1.968 12.4177C1.82845 12.4234 1.68917 12.401 1.55847 12.3518C1.42777 12.3026 1.30833 12.2275 1.20728 12.1311C1.10622 12.0347 1.02563 11.9189 0.970304 11.7907C0.914979 11.6624 0.886062 11.5243 0.88527 11.3847C0.868317 10.7608 0.862666 10.1347 0.88527 9.51081C0.886071 9.37126 0.915357 9.23335 0.971331 9.10552C1.02731 8.97768 1.10879 8.86264 1.21079 8.76741C1.3128 8.67218 1.43317 8.59877 1.56454 8.55169C1.69591 8.50462 1.83551 8.48486 1.97478 8.49364C1.99738 8.49364 2.01998 8.49364 2.04372 8.49364C2.2901 8.49364 2.39747 8.40887 2.47206 8.16927C2.56926 7.85734 2.65063 7.53749 2.77608 7.23686C2.95239 6.81756 3.15244 6.40503 3.36605 6.00268C3.48698 5.77664 3.49263 5.58904 3.27224 5.40029C3.16588 5.30467 3.08011 5.18839 3.02016 5.05855C2.96021 4.9287 2.92732 4.788 2.92352 4.64503C2.91971 4.50206 2.94506 4.3598 2.99802 4.22695C3.05098 4.09409 3.13044 3.97342 3.23155 3.87227C3.6599 3.44958 4.0792 3.01784 4.5098 2.59741C4.60995 2.49185 4.73093 2.40826 4.86509 2.35194C4.99925 2.29562 5.14366 2.26781 5.28914 2.27026C5.43462 2.2727 5.578 2.30536 5.71019 2.36615C5.84238 2.42695 5.9605 2.51455 6.05704 2.62341C6.07286 2.63924 6.08642 2.65844 6.10224 2.67427C6.15591 2.74584 6.23523 2.79382 6.32353 2.80815C6.41183 2.82248 6.50225 2.80203 6.57579 2.75111C6.71142 2.68217 6.84253 2.60306 6.97702 2.53299C7.52956 2.24163 8.11247 2.01194 8.71525 1.84809C8.75142 1.83905 8.78871 1.83 8.82827 1.8187C9.069 1.74637 9.14473 1.63901 9.15038 1.38811C9.14715 1.25909 9.1589 1.13014 9.18542 1.00384C9.24194 0.783635 9.3699 0.588401 9.54927 0.448714C9.72863 0.309028 9.94926 0.232784 10.1766 0.231919C10.8016 0.216096 11.4266 0.212706 12.0505 0.231919C12.6743 0.251132 13.0744 0.713386 13.0744 1.32369C13.0744 1.34629 13.0744 1.3689 13.0744 1.39263C13.0744 1.64014 13.1626 1.74298 13.3999 1.82096C13.8124 1.95546 14.2272 2.08204 14.6284 2.24479C14.9511 2.38069 15.2648 2.53697 15.5676 2.71269C15.7937 2.83814 15.9688 2.84832 16.1689 2.61889C16.2866 2.48262 16.4384 2.38004 16.6088 2.32166C16.7792 2.26328 16.962 2.25118 17.1386 2.2866Z" fill="#12BDF3"/>
<path d="M18.0766 4.15015L17.6178 3.69017C17.5647 3.63592 17.5048 3.58393 17.4573 3.52742C17.4056 3.48167 17.3695 3.42094 17.3539 3.3537C17.3383 3.28646 17.344 3.21603 17.3703 3.15219C17.3967 3.08372 17.4432 3.02485 17.5038 2.9833C17.5643 2.94175 17.6359 2.91947 17.7093 2.91938C17.8449 2.90695 17.9817 2.89111 18.1173 2.87981L19.8465 2.7295C20.1799 2.70125 20.5133 2.6696 20.8467 2.63908C20.8923 2.63626 20.938 2.63626 20.9835 2.63908C21.0335 2.63672 21.0833 2.64545 21.1295 2.66463C21.1757 2.68381 21.2171 2.71296 21.2507 2.75002C21.2843 2.78707 21.3092 2.8311 21.3238 2.87894C21.3384 2.92678 21.3422 2.97725 21.335 3.02674C21.309 3.38388 21.2717 3.73876 21.2378 4.0959C21.1971 4.52764 21.1575 4.95938 21.1157 5.39111C21.0886 5.68609 21.0558 5.98107 21.031 6.27605C21.0294 6.34484 21.0069 6.41152 20.9665 6.46724C20.9262 6.52296 20.8698 6.56507 20.8049 6.58799C20.7404 6.61298 20.6697 6.61761 20.6024 6.60124C20.5351 6.58488 20.4744 6.5483 20.4286 6.49643L19.9595 6.02741C19.9121 5.97994 19.8612 5.93586 19.7934 5.87369C19.7233 5.94038 19.6567 5.99915 19.5945 6.06131L13.0156 12.639C12.9638 12.695 12.9091 12.7482 12.8518 12.7984C12.7866 12.8584 12.7013 12.8918 12.6127 12.8918C12.5241 12.8918 12.4388 12.8584 12.3737 12.7984C12.3215 12.7536 12.2717 12.706 12.2245 12.656C11.6217 12.0532 11.019 11.4504 10.4162 10.8477C10.3574 10.7889 10.2964 10.7347 10.2195 10.6589C10.1415 10.7324 10.0703 10.7968 10.0014 10.8658L2.8484 18.0086C2.79415 18.0617 2.74217 18.1216 2.68566 18.1679C2.65202 18.202 2.61198 18.2289 2.56785 18.2474C2.52371 18.2658 2.47636 18.2753 2.42853 18.2753C2.38071 18.2753 2.33336 18.2658 2.28923 18.2474C2.24509 18.2289 2.20505 18.202 2.17142 18.1679C2.15994 18.158 2.14899 18.1474 2.13864 18.1363C1.77246 17.7712 1.40288 17.4062 1.03896 17.0389C0.832136 16.8298 0.834397 16.6557 1.03896 16.4444C1.06496 16.4173 1.09321 16.3902 1.12034 16.3642C4.02418 13.4611 6.92728 10.5565 9.82961 7.65037C10.1687 7.31131 10.3472 7.3893 10.6072 7.65037C11.2039 8.26067 11.812 8.85968 12.4155 9.45868C12.4743 9.51745 12.5285 9.5717 12.5918 9.62934C12.7455 9.53101 17.9161 4.37054 18.0766 4.15015Z" fill="#12BDF3"/>
</svg>
