<svg width="23" height="23" viewBox="0 0 23 23" fill="none" xmlns="http://www.w3.org/2000/svg">
<path d="M11.7425 0.906561C11.7767 0.923933 11.813 0.936981 11.8504 0.945408C12.7892 1.02418 13.5274 1.4623 14.0874 2.20581C14.4293 2.65039 14.6303 3.18705 14.6647 3.7468C14.6799 3.99607 14.695 4.24643 14.695 4.49678C14.6993 5.56943 14.6993 6.64208 14.695 7.71472C14.7101 8.45237 14.4665 9.17203 14.0065 9.74886C13.5669 10.3144 12.9396 10.704 12.2378 10.8474C11.9649 10.8996 11.6879 10.927 11.4101 10.9294C10.7907 10.9402 10.1702 10.9294 9.5508 10.9294H9.31447C9.25296 10.9877 9.19253 11.0438 9.13425 11.1032C8.44506 11.7916 7.7555 12.4808 7.06558 13.1707C6.9571 13.2996 6.80919 13.3891 6.64473 13.4254C6.50255 13.4447 6.35811 13.4133 6.23676 13.3367C6.11541 13.2602 6.02489 13.1433 5.98107 13.0067C5.95454 12.8917 5.94079 12.7741 5.94006 12.656C5.94006 12.1402 5.94006 11.6254 5.94006 11.1096V10.8765L5.72963 10.8086C4.5426 10.4384 3.78722 9.65605 3.51204 8.43449C3.4586 8.18301 3.43255 7.92648 3.43435 7.6694C3.42571 6.49316 3.42571 5.3162 3.43435 4.13852C3.41746 3.40084 3.6591 2.68049 4.11743 2.10222C4.56033 1.53845 5.18634 1.14719 5.88718 0.996123C6.00804 0.969145 6.1343 0.96375 6.2584 0.943247C6.30397 0.933428 6.34871 0.920079 6.39221 0.90332L11.7425 0.906561ZM8.46088 5.66224C8.37024 5.57591 8.31952 5.52842 8.27096 5.47986C8.05513 5.26403 7.84794 5.05576 7.63428 4.84641C7.5501 4.75665 7.44078 4.6944 7.32062 4.66783C7.20047 4.64126 7.07509 4.65159 6.96091 4.6975C6.86203 4.73248 6.77337 4.79143 6.70285 4.86907C6.63233 4.94671 6.58216 5.04062 6.55682 5.1424C6.53149 5.24417 6.53177 5.35065 6.55766 5.45229C6.58354 5.55393 6.63422 5.64756 6.70516 5.72482C6.80659 5.83921 6.92098 5.94064 7.02889 6.04856C7.3386 6.35934 7.64939 6.66797 7.95909 6.97984C8.02555 7.05145 8.10734 7.10709 8.19836 7.1426C8.28937 7.17811 8.38723 7.19256 8.48462 7.18487C8.65929 7.16923 8.82121 7.08692 8.93678 6.95502L11.3432 4.54751C11.3792 4.51395 11.4127 4.47789 11.4436 4.4396C11.5206 4.34845 11.5694 4.23674 11.5837 4.11825C11.5981 3.99975 11.5775 3.87963 11.5245 3.7727C11.4767 3.65957 11.3957 3.56357 11.2923 3.49732C11.1888 3.43106 11.0678 3.39766 10.945 3.40148C10.851 3.40136 10.758 3.42143 10.6723 3.46034C10.5867 3.49925 10.5104 3.55609 10.4486 3.62702C9.83928 4.2378 9.22778 4.8493 8.61412 5.46152C8.55932 5.5255 8.50816 5.59251 8.46088 5.66224Z" fill="#12BDF3"/>
<path d="M0.870361 19.0132C0.887941 18.9702 0.902014 18.9258 0.912445 18.8805C0.954055 18.4907 1.08959 18.1168 1.30742 17.7909C1.52526 17.465 1.8189 17.1968 2.16315 17.0093C2.55431 16.7928 2.99485 16.6813 3.4419 16.6856C3.67931 16.6856 3.91563 16.6856 4.15304 16.6856H4.50592C4.24256 16.6553 3.98785 16.5729 3.75664 16.4432C3.52543 16.3135 3.32233 16.1391 3.15917 15.9302C2.99061 15.7211 2.87199 15.4764 2.81234 15.2146C2.75268 14.9528 2.75357 14.6808 2.81493 14.4194C3.03076 13.4482 3.81204 12.9183 4.66239 12.9453C5.75661 12.9788 6.47099 13.7611 6.49689 14.7874C6.51631 15.6701 5.89906 16.5528 4.75951 16.6737C4.81562 16.6737 4.86742 16.6888 4.92677 16.6899C5.19116 16.6899 5.45662 16.6899 5.721 16.6899C6.06946 16.6797 6.41675 16.7346 6.74509 16.8517C7.61486 17.1852 8.13607 17.8229 8.34003 18.7197C8.37406 18.8833 8.39034 19.0501 8.38859 19.2172C8.38859 20.0189 8.38859 20.8197 8.38859 21.6214C8.3935 21.7156 8.37888 21.8097 8.34564 21.8979C8.31239 21.9862 8.26125 22.0665 8.19543 22.134C8.07713 22.2427 7.92427 22.3061 7.76378 22.3132C7.71526 22.3159 7.66662 22.3159 7.6181 22.3132H1.66028C1.57683 22.315 1.49339 22.3092 1.411 22.2959C1.29244 22.2812 1.18129 22.2303 1.09267 22.1501C1.00405 22.07 0.942255 21.9645 0.915683 21.8481C0.905332 21.8236 0.891525 21.8007 0.874679 21.7801L0.870361 19.0132Z" fill="#12BDF3"/>
<path d="M18.3996 16.6682C17.1154 16.5085 16.619 15.4995 16.6579 14.7452C16.7194 13.5754 17.5741 12.9301 18.5161 12.9312C18.9578 12.9204 19.3882 13.0716 19.7262 13.3563C20.0641 13.6409 20.2862 14.0394 20.3506 14.4765C20.5308 15.5556 19.7895 16.5506 18.6381 16.6682C18.746 16.6682 18.8539 16.6801 18.9683 16.6811C19.2186 16.6811 19.4701 16.6811 19.7237 16.6811C20.1711 16.6805 20.6113 16.7941 21.0024 17.0114C21.3196 17.1892 21.5938 17.4346 21.8056 17.7302C22.0174 18.0258 22.1617 18.3643 22.2283 18.7218C22.262 18.8927 22.2779 19.0666 22.2758 19.2408C22.2758 20.021 22.2758 20.8012 22.2758 21.5814C22.2837 21.7284 22.25 21.8746 22.1787 22.0034C22.1236 22.0928 22.0471 22.167 21.9561 22.2194C21.8651 22.2718 21.7624 22.3007 21.6574 22.3034C21.6024 22.3034 21.5495 22.3034 21.4902 22.3034H15.555C15.4713 22.3059 15.3875 22.3009 15.3047 22.2883C15.1721 22.2715 15.0489 22.2111 14.9545 22.1165C14.8601 22.0219 14.7999 21.8986 14.7835 21.766C14.7748 21.7252 14.7704 21.6836 14.7705 21.6419C14.7705 20.8131 14.7511 19.9833 14.7705 19.1599C14.7735 18.5936 14.9706 18.0455 15.3291 17.6071C15.6875 17.1688 16.1855 16.8667 16.7399 16.7513C16.9308 16.7129 17.1247 16.6913 17.3194 16.6865C17.5697 16.6758 17.8201 16.6865 18.0748 16.6865C18.1794 16.6801 18.2895 16.6725 18.3996 16.6682Z" fill="#12BDF3"/>
<path d="M17.2104 10.8746V11.1152C17.2104 11.6235 17.2104 12.1328 17.2104 12.6411C17.2099 12.7451 17.1991 12.8489 17.178 12.9508C17.1594 13.0519 17.1147 13.1464 17.0484 13.2249C16.982 13.3035 16.8963 13.3633 16.7997 13.3985C16.7031 13.4337 16.599 13.4431 16.4976 13.4257C16.3963 13.4083 16.3013 13.3648 16.2219 13.2993C16.1839 13.2689 16.1479 13.2361 16.114 13.2011C15.5076 12.5961 14.9015 11.9904 14.2957 11.3839C14.2763 11.3645 14.2579 11.3429 14.231 11.3116C14.2979 11.2512 14.3605 11.1896 14.4274 11.1335C14.8496 10.7787 15.2008 10.3469 15.4622 9.86126C15.7043 9.42148 15.8631 8.94076 15.9306 8.4433C15.9593 8.22864 15.9744 8.01239 15.9759 7.79582C15.9759 6.54836 15.9759 5.3009 15.9759 4.05451C15.9775 3.48948 15.8645 2.92999 15.6435 2.40993C15.6165 2.34519 15.5917 2.28044 15.5658 2.21569C15.5658 2.21569 15.5658 2.20275 15.5658 2.18224C15.609 2.18224 15.6543 2.16929 15.6996 2.16821C15.9856 2.16821 16.2716 2.16821 16.5565 2.16821C17.4931 2.1898 18.296 2.52001 18.923 3.22684C19.3646 3.70823 19.6307 4.32458 19.6784 4.97608C19.6999 5.26745 19.7086 5.55989 19.7118 5.85125C19.7118 6.47174 19.7172 7.09116 19.7118 7.71165C19.7158 8.01814 19.6765 8.32365 19.5953 8.61919C19.2615 9.74076 18.5338 10.4706 17.4122 10.8087L17.2104 10.8746Z" fill="#12BDF3"/>
</svg>
