<svg width="31" height="31" viewBox="0 0 31 31" fill="none" xmlns="http://www.w3.org/2000/svg">
<path d="M15.0326 0.196289C11.0552 0.196289 7.23728 1.77762 4.42712 4.58965C1.61409 7.40281 0.0333977 11.218 0.0325928 15.1963C0.0325928 19.1729 1.61462 22.9909 4.42712 25.8029C7.23728 28.615 11.0552 30.1963 15.0326 30.1963C19.0099 30.1963 22.8279 28.615 25.6381 25.8029C28.4506 22.9909 30.0326 19.1729 30.0326 15.1963C30.0326 11.2196 28.4506 7.40168 25.6381 4.58965C22.8279 1.77762 19.0099 0.196289 15.0326 0.196289Z" fill="url(#paint0_linear_1106_1066)"/>
<path d="M6.8224 15.038C11.1958 13.133 14.1115 11.8771 15.5693 11.2702C19.7365 9.53745 20.6013 9.23651 21.1661 9.22632C21.2904 9.22432 21.5669 9.25503 21.7474 9.40092C21.8974 9.52397 21.9396 9.69038 21.9607 9.80721C21.9794 9.92393 22.0052 10.1899 21.9841 10.3976C21.7591 12.7695 20.7818 18.5253 20.2849 21.1819C20.0763 22.306 19.6615 22.6828 19.2607 22.7196C18.3888 22.7998 17.7279 22.144 16.8841 21.5911C15.5646 20.7256 14.8193 20.187 13.5372 19.3425C12.056 18.3666 13.0169 17.8301 13.8607 16.9535C14.081 16.7241 17.9201 13.2331 17.9927 12.9164C18.0021 12.8768 18.0115 12.7292 17.9224 12.6514C17.8357 12.5733 17.7068 12.6 17.613 12.6211C17.4794 12.6511 15.3724 14.0452 11.2849 16.8031C10.6872 17.2142 10.1458 17.4146 9.65833 17.404C9.12396 17.3925 8.09271 17.1012 7.3263 16.8523C6.3888 16.5469 5.64115 16.3854 5.70677 15.8667C5.73958 15.5967 6.11224 15.3204 6.8224 15.038Z" fill="white"/>
<defs>
<linearGradient id="paint0_linear_1106_1066" x1="1500.03" y1="0.196289" x2="1500.03" y2="3000.2" gradientUnits="userSpaceOnUse">
<stop stop-color="#2AABEE"/>
<stop offset="1" stop-color="#229ED9"/>
</linearGradient>
</defs>
</svg>
