<svg width="22" height="22" viewBox="0 0 22 22" fill="none" xmlns="http://www.w3.org/2000/svg">
<path d="M9.90476 0.0299797C7.02156 0.339355 4.40906 1.71865 2.56999 3.91006C1.27664 5.44834 0.47312 7.19287 0.116479 9.23818C0.0348389 9.70654 0.0262451 9.93428 0.0262451 10.9999C0.0262451 12.0655 0.0348389 12.2933 0.116479 12.7616C0.520386 15.0819 1.49148 17.0026 3.09421 18.6655C4.73992 20.3757 6.81531 21.4585 9.23874 21.8839C9.7071 21.9655 9.93484 21.9741 11.0005 21.9741C12.3454 21.9741 12.7493 21.9312 13.8063 21.6604C17.5962 20.6808 20.6813 17.5956 21.661 13.8058C21.9317 12.7487 21.9747 12.3448 21.9747 10.9999C21.9747 9.65498 21.9317 9.25107 21.661 8.19404C20.6813 4.40849 17.5962 1.31904 13.8063 0.339355C12.8309 0.0901356 12.3712 0.034277 11.1723 0.0213871C10.5708 0.0127926 9.99929 0.0170898 9.90476 0.0299797ZM16.7798 6.3335C17.1794 6.51826 17.4028 6.84053 17.4372 7.27021C17.4759 7.76435 17.6262 7.59248 13.6301 11.5585C11.0864 14.0808 9.95203 15.1765 9.81023 15.2538C9.51374 15.4085 9.11843 15.4042 8.85203 15.2452C8.6157 15.1034 4.92468 11.7433 4.7657 11.5241C4.43914 11.0729 4.51218 10.4456 4.92898 10.1019C5.25124 9.83115 5.69382 9.78389 6.06335 9.97295C6.15789 10.0202 6.92273 10.6862 7.76492 11.4597L9.29031 12.8562L12.543 9.60771C14.3305 7.82021 15.8044 6.35928 15.813 6.35928C15.8259 6.35928 15.9118 6.3292 16.0063 6.29482C16.2598 6.20459 16.5348 6.21748 16.7798 6.3335Z" fill="#12BDF3"/>
</svg>
