<svg width="27" height="27" viewBox="0 0 27 27" fill="none" xmlns="http://www.w3.org/2000/svg">
<path d="M11.5978 0.497187C9.23792 0.852367 6.98644 1.87577 5.12626 3.43495C2.66407 5.4938 1.01459 8.57002 0.611245 11.8389C0.526965 12.5372 0.526965 14.2288 0.611245 14.9151C0.924286 17.4556 1.96575 19.8515 3.60921 21.808C5.63194 24.2281 8.58776 25.8414 11.7964 26.2869C12.579 26.3953 14.3911 26.4133 15.1014 26.323C18.0934 25.9257 20.7061 24.6555 22.7649 22.5906C24.7936 20.5679 26.094 17.9251 26.4672 15.1078C26.5695 14.2951 26.5876 12.6275 26.4973 11.875C26.1361 8.9252 24.8418 6.2463 22.7649 4.16939C20.7482 2.15269 18.1475 0.858387 15.3121 0.473106C14.367 0.340666 12.5429 0.352707 11.5978 0.497187ZM18.581 9.05162C19.0505 9.27436 19.3877 9.80412 19.3937 10.3098C19.3937 10.8877 19.3335 10.9539 15.866 14.4155C13.6325 16.6429 12.5489 17.6783 12.3984 17.7445C12.0854 17.8709 11.5918 17.8589 11.2667 17.7084C10.9476 17.5639 8.16034 14.8308 7.91954 14.4275C7.51018 13.7412 7.78108 12.8503 8.52154 12.465C8.85866 12.2844 9.40047 12.2844 9.73157 12.459C9.86401 12.5312 10.3757 12.9947 10.8754 13.4944C11.369 13.9941 11.8025 14.4034 11.8386 14.4034C11.8747 14.4034 13.0667 13.2355 14.4874 11.8088C16.179 10.1172 17.1723 9.166 17.3469 9.0757C17.7081 8.88306 18.2077 8.87704 18.581 9.05162Z" fill="white"/>
</svg>
