<svg width="22" height="23" viewBox="0 0 22 23" fill="none" xmlns="http://www.w3.org/2000/svg">
<g clip-path="url(#clip0_1_2413)">
<path d="M9.99581 0.813269C7.18697 1.11466 4.64185 2.45838 2.85022 4.59327C1.59023 6.09187 0.807434 7.79141 0.459993 9.78397C0.380458 10.2402 0.372086 10.4621 0.372086 11.5002C0.372086 12.5384 0.380458 12.7602 0.459993 13.2165C0.853481 15.477 1.79953 17.3482 3.36092 18.9682C4.96418 20.6342 6.98604 21.6891 9.34697 22.1035C9.80325 22.183 10.0251 22.1914 11.0632 22.1914C12.3735 22.1914 12.767 22.1495 13.7967 21.8858C17.4888 20.9314 20.4944 17.9258 21.4488 14.2337C21.7125 13.204 21.7544 12.8105 21.7544 11.5002C21.7544 10.19 21.7125 9.79652 21.4488 8.76676C20.4944 5.07885 17.4888 2.06908 13.7967 1.11466C12.8465 0.871872 12.3986 0.817453 11.2307 0.804895C10.6446 0.796524 10.0879 0.800709 9.99581 0.813269ZM16.6935 6.9542C17.0828 7.1342 17.3005 7.44815 17.3339 7.86676C17.3716 8.34815 17.5181 8.18071 13.6251 12.0444C11.147 14.5016 10.0419 15.5691 9.90371 15.6444C9.61488 15.7951 9.22976 15.7909 8.97022 15.6361C8.73999 15.4979 5.14418 12.2244 4.98929 12.0109C4.67115 11.5714 4.74232 10.9602 5.14836 10.6254C5.46232 10.3616 5.89348 10.3156 6.25348 10.4998C6.34557 10.5458 7.09069 11.1947 7.91115 11.9482L9.3972 13.3086L12.566 10.144C14.3074 8.40257 15.7432 6.97931 15.7516 6.97931C15.7642 6.97931 15.8479 6.95001 15.94 6.91652C16.187 6.82862 16.4549 6.84117 16.6935 6.9542Z" fill="#021318"/>
</g>
<defs>
<clipPath id="clip0_1_2413">
<rect width="21.4326" height="21.4326" fill="white" transform="translate(0.346497 0.783691)"/>
</clipPath>
</defs>
</svg>
