<svg width="31" height="31" viewBox="0 0 31 31" fill="none" xmlns="http://www.w3.org/2000/svg">
<ellipse cx="14.268" cy="15.3698" rx="12.9224" ry="12.9224" fill="white"/>
<path d="M27.7811 7.14689C23.2957 0.193445 14.1102 -1.86684 7.00657 2.44688C0.0745818 6.76059 -2.15739 16.1606 2.32801 23.0926L2.69286 23.6506L1.19057 29.2735L6.81342 27.7712L7.37141 28.136C9.79653 29.4451 12.4363 30.1963 15.0545 30.1963C17.866 30.1963 20.6774 29.4451 23.1025 27.9429C30.0345 23.436 32.0948 14.2291 27.7811 7.10397V7.14689ZM23.8537 21.6118C23.1025 22.7278 22.1582 23.4789 20.8491 23.6721C20.0979 23.6721 19.1536 24.0369 15.4194 22.5561C12.2431 21.0538 9.60338 18.6072 7.73625 15.7958C6.62027 14.4866 6.04081 12.7912 5.86912 11.0958C5.86912 9.59348 6.42711 8.28434 7.37141 7.34005C7.73625 6.9752 8.12255 6.78205 8.4874 6.78205H9.43169C9.79653 6.78205 10.1828 6.78205 10.376 7.5332C10.7408 8.47749 11.6851 10.7309 11.6851 10.9241C11.8783 11.1172 11.7924 12.5551 10.934 13.3707C10.4618 13.9072 10.376 13.9287 10.5691 14.315C11.3203 15.4309 12.2646 16.5684 13.1874 17.5127C14.3034 18.457 15.4408 19.2081 16.75 19.7661C17.1148 19.9593 17.5011 19.9593 17.6943 19.573C17.8874 19.2081 18.8103 18.2638 19.1966 17.8775C19.5614 17.5127 19.7546 17.5127 20.1409 17.6844L23.1454 19.1867C23.5103 19.3798 23.8966 19.5515 24.0897 19.7447C24.2829 20.3026 24.2829 21.0538 23.8966 21.6118H23.8537Z" fill="#25D366"/>
</svg>
