<svg width="66" height="67" viewBox="0 0 66 67" fill="none" xmlns="http://www.w3.org/2000/svg">
<rect y="0.696289" width="66" height="66" rx="5" fill="#12BDF3" fill-opacity="0.09"/>
<g clip-path="url(#clip0_1_2543)">
<path fill-rule="evenodd" clip-rule="evenodd" d="M32.9999 47.8555C33.516 47.8688 34.0064 48.0832 34.3667 48.4529C34.727 48.8226 34.9287 49.3184 34.9287 49.8346C34.9287 50.3509 34.727 50.8467 34.3667 51.2164C34.0064 51.5861 33.516 51.8005 32.9999 51.8138C32.4839 51.8005 31.9934 51.5861 31.6331 51.2164C31.2729 50.8467 31.0712 50.3509 31.0712 49.8346C31.0712 49.3184 31.2729 48.8226 31.6331 48.4529C31.9934 48.0832 32.4839 47.8688 32.9999 47.8555ZM23.7639 47.8555C24.2799 47.8688 24.7704 48.0832 25.1306 48.4529C25.4909 48.8226 25.6926 49.3184 25.6926 49.8346C25.6926 50.3509 25.4909 50.8467 25.1306 51.2164C24.7704 51.5861 24.2799 51.8005 23.7639 51.8138C23.2478 51.8005 22.7574 51.5861 22.3971 51.2164C22.0368 50.8467 21.8351 50.3509 21.8351 49.8346C21.8351 49.3184 22.0368 48.8226 22.3971 48.4529C22.7574 48.0832 23.2478 47.8688 23.7639 47.8555ZM42.236 47.8555C41.72 47.8688 41.2295 48.0832 40.8692 48.4529C40.5089 48.8226 40.3073 49.3184 40.3073 49.8346C40.3073 50.3509 40.5089 50.8467 40.8692 51.2164C41.2295 51.5861 41.72 51.8005 42.236 51.8138C42.7521 51.8005 43.2425 51.5861 43.6028 51.2164C43.9631 50.8467 44.1647 50.3509 44.1647 49.8346C44.1647 49.3184 43.9631 48.8226 43.6028 48.4529C43.2425 48.0832 42.7521 47.8688 42.236 47.8555Z" fill="#12BDF3"/>
<path fill-rule="evenodd" clip-rule="evenodd" d="M32.3403 37.9598C32.3403 37.7848 32.4098 37.617 32.5335 37.4933C32.6572 37.3696 32.825 37.3 33 37.3C33.175 37.3 33.3428 37.3696 33.4665 37.4933C33.5902 37.617 33.6597 37.7848 33.6597 37.9598V47.8556C33.6521 48.0254 33.5793 48.1858 33.4564 48.3033C33.3335 48.4209 33.17 48.4864 33 48.4864C32.83 48.4864 32.6665 48.4209 32.5436 48.3033C32.4207 48.1858 32.3479 48.0254 32.3403 47.8556V37.9598ZM27.0625 37.9598C27.0625 37.7848 27.132 37.617 27.2557 37.4933C27.3795 37.3696 27.5473 37.3 27.7222 37.3C27.8972 37.3 28.065 37.3696 28.1887 37.4933C28.3124 37.617 28.3819 37.7848 28.3819 37.9598V42.5778C28.382 42.7003 28.3479 42.8204 28.2835 42.9246C28.219 43.0288 28.1268 43.113 28.0171 43.1676L24.4236 44.9647V47.8556C24.4236 48.0305 24.3541 48.1983 24.2304 48.3221C24.1067 48.4458 23.9389 48.5153 23.7639 48.5153C23.5889 48.5153 23.4211 48.4458 23.2974 48.3221C23.1737 48.1983 23.1042 48.0305 23.1042 47.8556V44.557C23.1042 44.3069 23.2454 44.0787 23.469 43.9672L27.0625 42.1701V37.9598ZM37.618 37.9598C37.618 37.7848 37.6875 37.617 37.8113 37.4933C37.935 37.3696 38.1028 37.3 38.2777 37.3C38.4527 37.3 38.6205 37.3696 38.7442 37.4933C38.868 37.617 38.9375 37.7848 38.9375 37.9598V42.1701L42.531 43.9672C42.6406 44.0218 42.7329 44.106 42.7973 44.2101C42.8618 44.3143 42.8959 44.4345 42.8958 44.557V47.8556C42.8958 48.0305 42.8263 48.1983 42.7026 48.3221C42.5788 48.4458 42.411 48.5153 42.2361 48.5153C42.0611 48.5153 41.8933 48.4458 41.7696 48.3221C41.6459 48.1983 41.5763 48.0305 41.5763 47.8556V44.9647L37.9829 43.1676C37.8732 43.113 37.7809 43.0288 37.7165 42.9246C37.652 42.8204 37.6179 42.7003 37.618 42.5778V37.9598Z" fill="#12BDF3"/>
<path fill-rule="evenodd" clip-rule="evenodd" d="M40.2087 24.322C40.1969 24.4299 40.2119 24.539 40.2523 24.6397C40.2927 24.7404 40.3573 24.8296 40.4405 24.8993C40.5236 24.9691 40.6226 25.0172 40.7288 25.0396C40.835 25.0619 40.945 25.0577 41.0492 25.0273C41.6493 24.8532 42.271 24.765 42.8958 24.7654C46.5368 24.7654 49.493 27.7216 49.493 31.3626C49.493 35.0036 46.5368 37.9598 42.8958 37.9598H22.4444C19.1676 37.9598 16.507 35.2991 16.507 32.0223C16.507 28.7455 19.1676 26.0848 22.4444 26.0848C22.9405 26.0848 23.4221 26.1455 23.8826 26.2603C23.9938 26.2885 24.1104 26.2872 24.2208 26.2564C24.3313 26.2257 24.4318 26.1667 24.5125 26.0852C24.5931 26.0037 24.6511 25.9025 24.6806 25.7917C24.7102 25.6809 24.7103 25.5643 24.6809 25.4535C24.5094 24.7981 24.423 24.1234 24.4236 23.4459C24.4236 19.0766 27.9709 15.5293 32.3402 15.5293C36.7096 15.5293 40.2569 19.0766 40.2569 23.4459C40.2569 23.7422 40.2404 24.0344 40.2087 24.322ZM38.9374 28.064V34.6612C38.9374 34.8361 39.0069 35.004 39.1307 35.1277C39.2544 35.2514 39.4222 35.3209 39.5972 35.3209C39.7721 35.3209 39.9399 35.2514 40.0637 35.1277C40.1874 35.004 40.2569 34.8361 40.2569 34.6612V28.064C40.2569 27.889 40.1874 27.7212 40.0637 27.5975C39.9399 27.4738 39.7721 27.4043 39.5972 27.4043C39.4222 27.4043 39.2544 27.4738 39.1307 27.5975C39.0069 27.7212 38.9374 27.889 38.9374 28.064ZM25.743 34.6612C25.743 34.8361 25.8125 35.004 25.9363 35.1277C26.06 35.2514 26.2278 35.3209 26.4028 35.3209C26.5777 35.3209 26.7455 35.2514 26.8693 35.1277C26.993 35.004 27.0625 34.8361 27.0625 34.6612V32.682H29.7014V34.6612C29.7014 34.8361 29.7709 35.004 29.8946 35.1277C30.0183 35.2514 30.1861 35.3209 30.3611 35.3209C30.536 35.3209 30.7039 35.2514 30.8276 35.1277C30.9513 35.004 31.0208 34.8361 31.0208 34.6612V30.7029C31.0208 30.5601 30.9745 30.4212 30.8889 30.307L28.9097 27.6681C28.8482 27.5862 28.7686 27.5197 28.677 27.4739C28.5854 27.4281 28.4843 27.4043 28.3819 27.4043C28.2795 27.4043 28.1785 27.4281 28.0869 27.4739C27.9953 27.5197 27.9156 27.5862 27.8541 27.6681L25.875 30.307C25.7893 30.4212 25.743 30.5601 25.743 30.7029V34.6612ZM33.6597 32.0223H36.9583C37.1332 32.0223 37.3011 31.9528 37.4248 31.8291C37.5485 31.7053 37.618 31.5375 37.618 31.3626V28.064C37.618 27.889 37.5485 27.7212 37.4248 27.5975C37.3011 27.4738 37.1332 27.4043 36.9583 27.4043H33C32.825 27.4043 32.6572 27.4738 32.5335 27.5975C32.4097 27.7212 32.3402 27.889 32.3402 28.064V34.6612C32.3402 34.8361 32.4097 35.004 32.5335 35.1277C32.6572 35.2514 32.825 35.3209 33 35.3209C33.1749 35.3209 33.3427 35.2514 33.4665 35.1277C33.5902 35.004 33.6597 34.8361 33.6597 34.6612V32.0223Z" fill="#12BDF3"/>
<path fill-rule="evenodd" clip-rule="evenodd" d="M33.6597 28.7236H36.2986V30.7028H33.6597V28.7236ZM29.7014 31.3625H27.0625V30.9225L28.3819 29.1637L29.7014 30.9225V31.3625Z" fill="#12BDF3"/>
</g>
<defs>
<clipPath id="clip0_1_2543">
<rect width="35.7264" height="35.7264" fill="white" transform="translate(15.1368 15.5293)"/>
</clipPath>
</defs>
</svg>
