<svg width="66" height="67" viewBox="0 0 66 67" fill="none" xmlns="http://www.w3.org/2000/svg">
<rect y="0.696289" width="66" height="66" rx="5" fill="#12BDF3" fill-opacity="0.09"/>
<g clip-path="url(#clip0_1_2530)">
<path d="M47.8112 23.2583C49.1007 21.9688 49.1007 19.8706 47.8112 18.5811C46.5218 17.2916 44.4235 17.2916 43.1339 18.5811C41.8414 19.8737 41.8412 21.9657 43.1339 23.2584C44.4234 24.5478 46.5217 24.5479 47.8112 23.2583ZM21.3068 21.6993C26.4306 16.5754 34.2032 15.4653 40.4574 18.6282C40.7688 17.9477 41.2153 17.3383 41.7775 16.8294C34.6344 13.0384 25.6434 14.2444 19.7477 20.1402C13.8519 26.036 12.6459 35.027 16.4369 42.1701C16.9305 41.6242 17.5366 41.1698 18.2358 40.8499C15.0728 34.5957 16.183 26.823 21.3068 21.6993ZM49.5629 24.6148C49.0661 25.1642 48.4592 25.6165 47.7637 25.9343C50.927 32.1887 49.8169 39.9615 44.693 45.0855C39.569 50.2094 31.7962 51.3195 25.5418 48.1562C25.2312 48.8361 24.7853 49.4459 24.2218 49.9559C31.3625 53.7457 40.3533 52.5434 46.2521 46.6446C52.1478 40.7489 53.3538 31.7579 49.5629 24.6148ZM18.1886 43.5264C16.8991 44.816 16.8991 46.9142 18.1886 48.2037C19.4778 49.4929 21.5761 49.4934 22.8658 48.2038L22.8659 48.2037C24.1555 46.9142 24.1555 44.816 22.8659 43.5264C21.5734 42.2339 19.4814 42.2337 18.1886 43.5264Z" fill="#12BDF3"/>
<path d="M45.1269 35.9069V30.878L42.3945 30.1949C42.2567 29.79 42.0928 29.3944 41.9038 29.0107L43.3529 26.5955L39.797 23.0395L37.3817 24.4887C36.9981 24.2997 36.6025 24.1357 36.1976 23.998L35.5145 21.2656H30.4856L29.8025 23.998C29.3976 24.1357 29.002 24.2997 28.6183 24.4887L26.2031 23.0395L22.6471 26.5955L24.0963 29.0107C23.9072 29.3944 23.7433 29.79 23.6056 30.1949L20.8732 30.878V35.9069L23.6056 36.59C23.7433 36.9949 23.9073 37.3905 24.0963 37.7741L22.6472 40.1894L26.2031 43.7453L28.6183 42.2962C29.002 42.4852 29.3976 42.6491 29.8025 42.7869L30.4856 45.5193H35.5145L36.1976 42.7869C36.6025 42.6492 36.9981 42.4852 37.3818 42.2962L39.797 43.7453L43.3529 40.1894L41.9038 37.7742C42.0928 37.3905 42.2567 36.9949 42.3945 36.59L45.1269 35.9069ZM33 37.8058C30.5665 37.8058 28.5867 35.826 28.5867 33.3924C28.5867 30.959 30.5665 28.9792 33 28.9792C35.4335 28.9792 37.4133 30.959 37.4133 33.3924C37.4133 35.826 35.4335 37.8058 33 37.8058Z" fill="#12BDF3"/>
</g>
<defs>
<clipPath id="clip0_1_2530">
<rect width="37.4748" height="37.4748" fill="white" transform="translate(14.2626 14.6553)"/>
</clipPath>
</defs>
</svg>
