<svg width="66" height="67" viewBox="0 0 66 67" fill="none" xmlns="http://www.w3.org/2000/svg">
<rect y="0.696289" width="66" height="66" rx="5" fill="#12BDF3" fill-opacity="0.09"/>
<g clip-path="url(#clip0_1_2518)">
<path d="M48.3159 25.6195V21.1324C48.3159 19.6479 47.1082 18.4402 45.6237 18.4402H20.3763C18.8918 18.4402 17.6841 19.6479 17.6841 21.1324V25.6195H48.3159ZM38.3845 22.0299H43.769C44.2646 22.0299 44.6664 22.4317 44.6664 22.9273C44.6664 23.4229 44.2646 23.8247 43.769 23.8247H38.3845C37.8889 23.8247 37.4871 23.4229 37.4871 22.9273C37.4871 22.4317 37.8889 22.0299 38.3845 22.0299ZM29.4103 22.0299C29.9059 22.0299 30.3077 22.4317 30.3077 22.9273C30.3077 23.4229 29.9059 23.8247 29.4103 23.8247C28.9147 23.8247 28.5129 23.4229 28.5129 22.9273C28.5129 22.4317 28.9147 22.0299 29.4103 22.0299ZM25.8207 22.0299C26.3163 22.0299 26.7181 22.4317 26.7181 22.9273C26.7181 23.4229 26.3163 23.8247 25.8207 23.8247C25.325 23.8247 24.9232 23.4229 24.9232 22.9273C24.9232 22.4317 25.325 22.0299 25.8207 22.0299ZM22.231 22.0299C22.7266 22.0299 23.1284 22.4317 23.1284 22.9273C23.1284 23.4229 22.7266 23.8247 22.231 23.8247C21.7354 23.8247 21.3336 23.4229 21.3336 22.9273C21.3336 22.4317 21.7354 22.0299 22.231 22.0299Z" fill="#12BDF3"/>
<path d="M17.6841 27.4143V46.2601C17.6841 47.7446 18.8918 48.9523 20.3763 48.9523H45.6237C47.1082 48.9523 48.3159 47.7446 48.3159 46.2601V27.4143H17.6841ZM28.1761 40.1748C28.5632 40.4844 28.6259 41.0491 28.3163 41.4361C28.0067 41.8231 27.4419 41.8859 27.0549 41.5763L22.5678 37.9866C22.1192 37.6278 22.1189 36.9442 22.5678 36.5851L27.0549 32.9954C27.4418 32.6858 28.0066 32.7485 28.3163 33.1355C28.6259 33.5225 28.5632 34.0873 28.1761 34.3969L24.565 37.2859L28.1761 40.1748ZM36.5171 31.3575L31.1326 43.9213C30.9374 44.3768 30.4099 44.588 29.9542 44.3927C29.4987 44.1974 29.2876 43.6698 29.4829 43.2143L34.8674 30.6505C35.0627 30.1949 35.5902 29.9839 36.0458 30.1791C36.5013 30.3743 36.7124 30.9019 36.5171 31.3575ZM43.4322 37.9867L38.9451 41.5763C38.5587 41.8855 37.9938 41.8238 37.6837 41.4362C37.3741 41.0492 37.4368 40.4844 37.8239 40.1749L41.435 37.2859L37.8239 34.397C37.4368 34.0874 37.3741 33.5227 37.6837 33.1356C37.9933 32.7486 38.5581 32.6859 38.9451 32.9955L43.4322 36.5852C43.8808 36.944 43.8811 37.6276 43.4322 37.9867Z" fill="#12BDF3"/>
</g>
<defs>
<clipPath id="clip0_1_2518">
<rect width="30.6318" height="30.6318" fill="white" transform="translate(17.6841 18.3804)"/>
</clipPath>
</defs>
</svg>
