<svg width="26" height="26" viewBox="0 0 26 26" fill="none" xmlns="http://www.w3.org/2000/svg">
<path d="M19.0276 25.3708C18.5067 25.2715 17.9798 25.1992 17.465 25.0667C16.0649 24.7115 14.7643 24.1123 13.5148 23.3957C10.7749 21.8241 8.40243 19.8008 6.2768 17.4795C4.74129 15.8025 3.38643 13.99 2.30555 11.9848C1.60704 10.6871 1.038 9.3413 0.745952 7.89009C0.544228 6.88448 0.484012 5.87888 0.709823 4.86724C0.908536 3.97906 1.31198 3.20528 1.96533 2.56699C2.48921 2.05515 3.01309 1.5403 3.54901 1.0375C4.22644 0.399208 5.12969 0.402219 5.80411 1.05255C6.39121 1.61858 6.96026 2.20268 7.53532 2.77774C8.26695 3.50636 8.99857 4.23196 9.72418 4.96961C10.2932 5.54769 10.3866 6.31845 9.97708 6.95975C9.8988 7.08019 9.80246 7.19159 9.70009 7.29395C9.37191 7.62815 9.03771 7.95332 8.70953 8.28752C7.9207 9.09141 7.76414 10.1693 8.30007 11.1538C9.82052 13.9599 11.9853 16.1246 14.7884 17.6481C15.7879 18.1931 16.8658 18.0395 17.6757 17.2417C18.0159 16.9075 18.3471 16.5672 18.6873 16.233C19.3618 15.5707 20.2861 15.5436 20.9575 16.2029C22.2913 17.5156 23.607 18.8464 24.9318 20.1682C25.1546 20.391 25.284 20.6649 25.3743 20.963V21.6404C25.2419 21.8783 25.1485 22.1493 24.9709 22.345C24.429 22.9411 23.8599 23.5132 23.2909 24.0852C22.767 24.6121 22.1347 24.9584 21.4242 25.1571C21.099 25.2474 20.7648 25.2986 20.4366 25.3708H19.0336H19.0276Z" fill="white"/>
</svg>
