<svg width="21" height="20" viewBox="0 0 21 20" fill="none" xmlns="http://www.w3.org/2000/svg">
<path d="M19.1833 14.0488C18.5343 13.3949 16.9626 12.4407 16.2 12.0561C15.2069 11.5559 15.1252 11.515 14.3446 12.0949C13.824 12.4819 13.4778 12.8277 12.8685 12.6977C12.2592 12.5677 10.9351 11.835 9.77569 10.6793C8.61629 9.52355 7.84104 8.16104 7.71067 7.55376C7.5803 6.94647 7.93176 6.60441 8.31509 6.08254C8.85536 5.34693 8.81449 5.22433 8.35269 4.23126C7.99265 3.45887 7.01062 1.90183 6.35429 1.25613C5.65219 0.562616 5.65219 0.685217 5.19979 0.873206C4.83147 1.02814 4.47813 1.21651 4.14419 1.43595C3.49032 1.87036 1.91381 3.22467 1.66002 3.76697C1.40624 4.30928 1.29222 5.58066 2.60283 7.96158C3.91344 10.3425 4.83295 11.5599 6.73613 13.4578C8.63932 15.3557 10.1028 16.3761 12.2422 17.576C14.8887 19.0582 15.9039 18.7693 16.4478 18.5159C16.9917 18.2625 18.5678 16.9095 19.0031 16.2556C19.2231 15.9222 19.4119 15.5693 19.567 15.2012C19.7554 14.7505 19.878 14.7505 19.1833 14.0488Z" stroke="#12BDF3" stroke-width="1.4" stroke-miterlimit="10"/>
</svg>
