<svg width="27" height="27" viewBox="0 0 27 27" fill="none" xmlns="http://www.w3.org/2000/svg">
<path d="M13.2663 0.437073C9.763 0.437073 6.40011 1.82991 3.92492 4.30676C1.44719 6.7846 0.0549082 10.145 0.0541992 13.6491C0.0541992 17.1518 1.44766 20.5146 3.92492 22.9915C6.40011 25.4683 9.763 26.8612 13.2663 26.8612C16.7695 26.8612 20.1324 25.4683 22.6076 22.9915C25.0849 20.5146 26.4783 17.1518 26.4783 13.6491C26.4783 10.1465 25.0849 6.78361 22.6076 4.30676C20.1324 1.82991 16.7695 0.437073 13.2663 0.437073Z" fill="white"/>
<path d="M6.03501 13.5097C9.88715 11.8318 12.4552 10.7255 13.7393 10.191C17.4098 8.66481 18.1715 8.39974 18.669 8.39076C18.7784 8.38901 19.022 8.41605 19.181 8.54456C19.3131 8.65294 19.3503 8.79951 19.3689 8.90242C19.3854 9.00523 19.4081 9.23954 19.3895 9.42244C19.1913 11.5116 18.3305 16.5813 17.8928 18.9213C17.7091 19.9114 17.3437 20.2433 16.9907 20.2757C16.2227 20.3463 15.6406 19.7687 14.8974 19.2817C13.7352 18.5194 13.0787 18.045 11.9495 17.3012C10.6448 16.4416 11.4912 15.969 12.2344 15.1969C12.4284 14.9948 15.8099 11.9199 15.8739 11.641C15.8821 11.6061 15.8904 11.4761 15.8119 11.4076C15.7355 11.3388 15.622 11.3623 15.5394 11.3809C15.4218 11.4073 13.5659 12.6352 9.9656 15.0644C9.43918 15.4265 8.96231 15.603 8.53291 15.5937C8.06223 15.5836 7.15391 15.327 6.47885 15.1078C5.6531 14.8388 4.99456 14.6965 5.05236 14.2397C5.08126 14.0019 5.4095 13.7585 6.03501 13.5097Z" fill="#2AABEE"/>
</svg>
