<svg width="19" height="18" viewBox="0 0 19 18" fill="none" xmlns="http://www.w3.org/2000/svg">
<path d="M1.5 15.0938C1.5 14.0329 1.92143 13.0155 2.67157 12.2653C3.42172 11.5152 4.43913 11.0938 5.5 11.0938H13.5C14.5609 11.0938 15.5783 11.5152 16.3284 12.2653C17.0786 13.0155 17.5 14.0329 17.5 15.0938C17.5 15.6242 17.2893 16.1329 16.9142 16.508C16.5391 16.883 16.0304 17.0938 15.5 17.0938H3.5C2.96957 17.0938 2.46086 16.883 2.08579 16.508C1.71071 16.1329 1.5 15.6242 1.5 15.0938Z" stroke="#12BDF3" stroke-width="1.4" stroke-linejoin="round"/>
<path d="M9.5 7.09375C11.1569 7.09375 12.5 5.7506 12.5 4.09375C12.5 2.4369 11.1569 1.09375 9.5 1.09375C7.84315 1.09375 6.5 2.4369 6.5 4.09375C6.5 5.7506 7.84315 7.09375 9.5 7.09375Z" stroke="#12BDF3" stroke-width="1.4"/>
</svg>
