<svg width="28" height="28" viewBox="0 0 28 28" fill="none" xmlns="http://www.w3.org/2000/svg">
<path d="M11.9708 0.6833C9.52021 1.05214 7.18213 2.1149 5.2504 3.73406C2.69351 5.87209 0.980589 9.06663 0.561735 12.4612C0.474213 13.1864 0.474213 14.9431 0.561735 15.6558C0.886816 18.2939 1.96833 20.782 3.67501 22.8138C5.77553 25.3269 8.84504 27.0023 12.1771 27.4649C12.9898 27.5775 14.8715 27.5962 15.6092 27.5025C18.7162 27.0899 21.4294 25.7708 23.5674 23.6265C25.6742 21.526 27.0246 18.7815 27.4122 15.8558C27.5184 15.0119 27.5372 13.2802 27.4434 12.4987C27.0683 9.43547 25.7242 6.65353 23.5674 4.49674C21.4732 2.40248 18.7725 1.05839 15.828 0.658293C14.8465 0.52076 12.9523 0.533262 11.9708 0.6833ZM19.2226 9.56675C19.7102 9.79806 20.0603 10.3482 20.0666 10.8733C20.0666 11.4735 20.0041 11.5422 16.4032 15.1369C14.0838 17.45 12.9586 18.5252 12.8023 18.594C12.4772 18.7253 11.9646 18.7128 11.627 18.5565C11.2957 18.4065 8.40118 15.5682 8.15112 15.1494C7.72601 14.4367 8.00733 13.5115 8.77627 13.1114C9.12636 12.9238 9.689 12.9238 10.0328 13.1051C10.1704 13.1802 10.7018 13.6615 11.2206 14.1804C11.7333 14.6993 12.1834 15.1244 12.2209 15.1244C12.2584 15.1244 13.4962 13.9116 14.9716 12.43C16.7282 10.6733 17.7598 9.68553 17.941 9.59176C18.3161 9.39171 18.835 9.38546 19.2226 9.56675Z" fill="white"/>
</svg>
