<svg width="25" height="24" viewBox="0 0 25 24" fill="none" xmlns="http://www.w3.org/2000/svg">
<path d="M22.8311 5.69213C19.2943 0.209153 12.0513 -1.41543 6.44987 1.98605C0.983814 5.38752 -0.776155 12.7997 2.76071 18.2658L3.04839 18.7058L1.8638 23.1395L6.29757 21.9549L6.73756 22.2426C8.64983 23.2749 10.7313 23.8672 12.7959 23.8672C15.0128 23.8672 17.2297 23.2749 19.142 22.0903C24.608 18.5365 26.2326 11.2767 22.8311 5.65829V5.69213ZM19.7343 17.0981C19.142 17.9781 18.3974 18.5704 17.3651 18.7227C16.7728 18.7227 16.0282 19.0104 13.0836 17.8427C10.579 16.6581 8.49753 14.7289 7.02525 12.512C6.14526 11.4797 5.68835 10.1428 5.55297 8.80593C5.55297 7.62133 5.99296 6.58904 6.73756 5.84444C7.02525 5.55675 7.32986 5.40445 7.61754 5.40445H8.36215C8.64983 5.40445 8.95444 5.40445 9.10675 5.99674C9.39444 6.74135 10.139 8.51824 10.139 8.67054C10.2913 8.82285 10.2237 9.95668 9.54674 10.5997C9.17444 11.0228 9.10675 11.0397 9.25905 11.3443C9.85135 12.2243 10.596 13.1212 11.3236 13.8658C12.2036 14.6104 13.1005 15.2027 14.1328 15.6427C14.4205 15.795 14.7251 15.795 14.8774 15.4904C15.0297 15.2027 15.7574 14.4581 16.062 14.1535C16.3497 13.8658 16.502 13.8658 16.8066 14.0012L19.1758 15.1858C19.4635 15.3381 19.7681 15.4735 19.9204 15.6258C20.0727 16.0658 20.0727 16.6581 19.7681 17.0981H19.7343Z" fill="white"/>
</svg>
