<svg width="326" height="119" viewBox="0 0 326 119" fill="none" xmlns="http://www.w3.org/2000/svg">
<path d="M190 51.6963H209.07C215.315 51.6963 220.379 46.6331 220.379 40.3874V22.318C220.379 18.6609 223.343 15.6963 227 15.6963V15.6963" stroke="#12BDF3" stroke-width="0.883701" stroke-dasharray="3 3"/>
<rect width="98.7451" height="26.511" rx="13.2555" transform="matrix(1 0 0 -1 227 27.2073)" fill="white"/>
<circle cx="9.72071" cy="9.72071" r="9.72071" transform="matrix(1 0 0 -1 230.862 23.3455)" fill="#85E2FF"/>
<g clip-path="url(#clip0_1_2684)">
<path d="M245.288 16.1094C245.012 15.8367 243.97 15.0288 242.976 14.4112L242.965 14.4215C243.977 12.8479 243.856 10.6735 242.417 9.23763C240.795 7.61545 238.161 7.61545 236.539 9.23763C234.92 10.8598 234.917 13.493 236.539 15.1152C237.951 16.5303 240.122 16.696 241.716 15.6746C242.334 16.672 243.138 17.7073 243.415 17.9836C243.932 18.5012 244.771 18.5012 245.288 17.9836C245.806 17.466 245.806 16.627 245.288 16.1094ZM241.361 14.0592C240.329 15.0912 238.638 15.1084 237.592 14.0624C236.553 13.0239 236.553 11.3325 237.592 10.2901C238.63 9.24766 240.322 9.24442 241.364 10.2901C242.437 11.3567 242.361 13.0617 241.361 14.0592ZM244.612 17.3071C244.58 17.3399 244.542 17.3659 244.5 17.3837C244.458 17.4015 244.413 17.4107 244.367 17.4107C244.321 17.4107 244.276 17.4015 244.234 17.3837C244.192 17.3659 244.154 17.3399 244.122 17.3071C244.058 17.2422 244.022 17.1548 244.022 17.0636C244.022 16.9725 244.058 16.8851 244.122 16.8202C244.253 16.6927 244.484 16.6927 244.612 16.8202C244.743 16.9444 244.747 17.1793 244.612 17.3071Z" fill="white"/>
<path d="M239.476 10.6262C239.286 10.6262 239.131 10.7809 239.131 10.9714V12.2963C239.131 12.3878 239.167 12.4756 239.232 12.5404C239.297 12.6051 239.385 12.6415 239.476 12.6415C239.568 12.6415 239.656 12.6051 239.72 12.5404C239.785 12.4756 239.821 12.3878 239.821 12.2963V10.9714C239.821 10.7805 239.667 10.6262 239.476 10.6262ZM239.231 13.1342C239.102 13.264 239.094 13.4836 239.231 13.6208C239.296 13.685 239.384 13.7209 239.476 13.7209C239.568 13.7209 239.656 13.685 239.721 13.6208C239.785 13.556 239.821 13.4686 239.821 13.3775C239.821 13.2865 239.785 13.1991 239.721 13.1342C239.59 13.0064 239.362 13.0064 239.231 13.1342Z" fill="white"/>
</g>
<path d="M254.103 10.1833H259.269V10.8708H257.08V16.6248H256.293V10.8708H254.103V10.1833ZM261.973 11.8479C262.491 11.8479 262.895 11.9897 263.185 12.2731C263.474 12.5566 263.619 12.9547 263.619 13.4674V16.6248H262.895V13.5397C262.895 12.8461 262.539 12.4993 261.828 12.4993C261.49 12.4993 261.191 12.626 260.932 12.8793C260.673 13.1326 260.543 13.5005 260.543 13.983V16.6248H259.819V10.1833H260.543V12.5988C260.899 12.0982 261.375 11.8479 261.973 11.8479ZM266.895 11.8841C267.015 11.8841 267.097 11.8871 267.139 11.8932V12.5898H266.958C266.475 12.5898 266.098 12.7104 265.827 12.9517C265.562 13.1869 265.429 13.5247 265.429 13.9649V16.6248H264.705V11.9565H265.393V12.7798C265.706 12.1827 266.207 11.8841 266.895 11.8841ZM271.612 14.2906V14.544H268.066C268.102 15.0506 268.244 15.4336 268.491 15.6929C268.738 15.9463 269.076 16.0729 269.504 16.0729C270.15 16.0729 270.563 15.7834 270.744 15.2044H271.495C271.368 15.6748 271.133 16.0488 270.789 16.3262C270.445 16.5976 270.011 16.7334 269.486 16.7334C268.841 16.7334 268.319 16.5132 267.921 16.0729C267.517 15.6326 267.315 15.0385 267.315 14.2906C267.315 13.5548 267.514 12.9637 267.912 12.5174C268.304 12.0711 268.823 11.8479 269.468 11.8479C270.138 11.8479 270.662 12.0801 271.042 12.5445C271.422 13.009 271.612 13.591 271.612 14.2906ZM269.468 12.5084C269.088 12.5084 268.778 12.629 268.536 12.8702C268.295 13.1055 268.144 13.4462 268.084 13.8926H270.834C270.798 13.4824 270.659 13.1507 270.418 12.8974C270.177 12.638 269.86 12.5084 269.468 12.5084ZM276.245 16.0367H276.507V16.6248C276.387 16.6429 276.254 16.6519 276.109 16.6519C275.621 16.6519 275.358 16.4288 275.322 15.9824C274.996 16.483 274.49 16.7334 273.802 16.7334C273.289 16.7334 272.885 16.6157 272.59 16.3805C272.3 16.1393 272.156 15.8015 272.156 15.3672C272.156 14.5228 272.732 14.0403 273.884 13.9197L274.553 13.8473C275.042 13.793 275.286 13.5789 275.286 13.205C275.286 12.9456 275.204 12.7587 275.042 12.6441C274.885 12.5295 274.616 12.4722 274.236 12.4722C273.832 12.4722 273.54 12.5415 273.359 12.6803C273.184 12.8129 273.084 13.0512 273.06 13.395H272.336C272.397 12.3636 273.03 11.8479 274.236 11.8479C275.406 11.8479 275.991 12.3003 275.991 13.205V15.8105C275.991 15.9613 276.076 16.0367 276.245 16.0367ZM273.838 16.1181C274.224 16.1181 274.562 16.0005 274.852 15.7653C275.141 15.5361 275.286 15.2074 275.286 14.7792V14.2273C275.153 14.3298 274.948 14.3962 274.671 14.4263L273.992 14.5078C273.6 14.556 273.32 14.6465 273.151 14.7792C272.988 14.9119 272.906 15.1019 272.906 15.3491C272.906 15.5904 272.985 15.7804 273.142 15.9191C273.298 16.0518 273.531 16.1181 273.838 16.1181ZM279.013 11.9565V12.5898H278.054V15.6206C278.054 15.8859 278.232 16.0186 278.588 16.0186H279.013V16.6248C278.814 16.6429 278.642 16.6519 278.497 16.6519C277.719 16.6519 277.33 16.3292 277.33 15.6839V12.5898H276.561V11.9565H277.33V10.6356H278.054V11.9565H279.013ZM281.546 10.1833H283.717C284.694 10.1833 285.466 10.4667 286.033 11.0337C286.594 11.6006 286.875 12.3907 286.875 13.404C286.875 14.4052 286.594 15.1923 286.033 15.7653C285.46 16.3383 284.688 16.6248 283.717 16.6248H281.546V10.1833ZM282.306 15.9372H283.717C284.477 15.9372 285.059 15.714 285.463 15.2677C285.873 14.8214 286.078 14.2002 286.078 13.404C286.078 12.6079 285.873 11.9866 285.463 11.5403C285.059 11.094 284.477 10.8708 283.717 10.8708H282.306V15.9372ZM291.853 14.2906V14.544H288.307C288.343 15.0506 288.485 15.4336 288.732 15.6929C288.979 15.9463 289.317 16.0729 289.745 16.0729C290.391 16.0729 290.804 15.7834 290.985 15.2044H291.736C291.609 15.6748 291.374 16.0488 291.03 16.3262C290.686 16.5976 290.252 16.7334 289.727 16.7334C289.082 16.7334 288.56 16.5132 288.162 16.0729C287.758 15.6326 287.556 15.0385 287.556 14.2906C287.556 13.5548 287.755 12.9637 288.153 12.5174C288.545 12.0711 289.064 11.8479 289.709 11.8479C290.379 11.8479 290.904 12.0801 291.283 12.5445C291.663 13.009 291.853 13.591 291.853 14.2906ZM289.709 12.5084C289.329 12.5084 289.019 12.629 288.777 12.8702C288.536 13.1055 288.385 13.4462 288.325 13.8926H291.075C291.039 13.4824 290.9 13.1507 290.659 12.8974C290.418 12.638 290.101 12.5084 289.709 12.5084ZM294.483 11.9565V12.5898H293.524V15.6206C293.524 15.8859 293.702 16.0186 294.058 16.0186H294.483V16.6248C294.284 16.6429 294.112 16.6519 293.967 16.6519C293.189 16.6519 292.8 16.3292 292.8 15.6839V12.5898H292.031V11.9565H292.8V10.6356H293.524V11.9565H294.483ZM299.231 14.2906V14.544H295.684C295.72 15.0506 295.862 15.4336 296.109 15.6929C296.357 15.9463 296.695 16.0729 297.123 16.0729C297.768 16.0729 298.181 15.7834 298.362 15.2044H299.113C298.986 15.6748 298.751 16.0488 298.407 16.3262C298.064 16.5976 297.629 16.7334 297.105 16.7334C296.459 16.7334 295.938 16.5132 295.539 16.0729C295.135 15.6326 294.933 15.0385 294.933 14.2906C294.933 13.5548 295.132 12.9637 295.53 12.5174C295.922 12.0711 296.441 11.8479 297.087 11.8479C297.756 11.8479 298.281 12.0801 298.661 12.5445C299.041 13.009 299.231 13.591 299.231 14.2906ZM297.087 12.5084C296.707 12.5084 296.396 12.629 296.155 12.8702C295.913 13.1055 295.763 13.4462 295.702 13.8926H298.453C298.416 13.4824 298.278 13.1507 298.036 12.8974C297.795 12.638 297.479 12.5084 297.087 12.5084ZM302.026 16.7334C301.38 16.7334 300.858 16.5102 300.46 16.0639C300.062 15.6175 299.863 15.0265 299.863 14.2906C299.863 13.5427 300.062 12.9487 300.46 12.5084C300.846 12.0681 301.368 11.8479 302.026 11.8479C302.58 11.8479 303.036 11.9987 303.392 12.3003C303.748 12.6018 303.962 13.015 304.034 13.5397L303.283 13.5397C303.229 13.208 303.084 12.9517 302.849 12.7707C302.62 12.5898 302.345 12.4993 302.026 12.4993C301.597 12.4993 301.257 12.6561 301.003 12.9698C300.75 13.2774 300.623 13.7177 300.623 14.2906C300.623 14.8576 300.75 15.2979 301.003 15.6115C301.263 15.9251 301.603 16.082 302.026 16.082C302.345 16.082 302.623 15.9885 302.858 15.8015C303.093 15.6145 303.238 15.3552 303.292 15.0235H304.034C303.956 15.5482 303.732 15.9643 303.365 16.2719C303.003 16.5796 302.556 16.7334 302.026 16.7334ZM306.675 11.9565V12.5898L305.716 12.5898V15.6206C305.716 15.8859 305.894 16.0186 306.25 16.0186H306.675V16.6248C306.476 16.6429 306.304 16.6519 306.16 16.6519C305.382 16.6519 304.993 16.3292 304.993 15.6839V12.5898H304.224V11.9565H304.993V10.6356H305.716V11.9565L306.675 11.9565ZM308.182 11.2508H307.413V10.3642L308.182 10.3642V11.2508ZM308.164 16.6248H307.44V11.9565H308.164V16.6248ZM312.915 16.0639C312.487 16.5102 311.944 16.7334 311.287 16.7334C310.63 16.7334 310.087 16.5102 309.659 16.0639C309.236 15.6236 309.025 15.0325 309.025 14.2906C309.025 13.5488 309.236 12.9577 309.659 12.5174C310.087 12.0711 310.63 11.8479 311.287 11.8479C311.944 11.8479 312.487 12.0711 312.915 12.5174C313.338 12.9577 313.549 13.5488 313.549 14.2906C313.549 15.0325 313.338 15.6236 312.915 16.0639ZM310.192 15.6025C310.464 15.9221 310.829 16.082 311.287 16.082C311.745 16.082 312.11 15.9221 312.382 15.6025C312.653 15.2888 312.789 14.8516 312.789 14.2906C312.789 13.7237 312.653 13.2834 312.382 12.9698C312.11 12.6561 311.745 12.4993 311.287 12.4993C310.829 12.4993 310.464 12.6561 310.192 12.9698C309.921 13.2834 309.785 13.7237 309.785 14.2906C309.785 14.8516 309.921 15.2888 310.192 15.6025ZM316.564 11.8479C317.083 11.8479 317.487 11.9897 317.777 12.2731C318.066 12.5566 318.211 12.9547 318.211 13.4674V16.6248H317.487V13.5397C317.487 12.8461 317.131 12.4993 316.42 12.4993C316.082 12.4993 315.783 12.626 315.524 12.8793C315.265 13.1326 315.135 13.5005 315.135 13.983V16.6248H314.411V11.9565H315.099V12.6531C315.455 12.1163 315.943 11.8479 316.564 11.8479Z" fill="black"/>
<path d="M190 66.6962H209.07C215.315 66.6962 220.379 71.7594 220.379 78.0051V97.0745C220.379 100.732 223.343 103.696 227 103.696V103.696" stroke="#12BDF3" stroke-width="0.883701" stroke-dasharray="3 3"/>
<rect width="98.7641" height="26.3873" rx="13.1937" transform="matrix(1 0 0 -1 227 118.432)" fill="white"/>
<circle cx="9.72071" cy="9.72071" r="9.72071" transform="matrix(1 0 0 -1 230.862 114.57)" fill="#85E2FF"/>
<g clip-path="url(#clip1_1_2684)">
<path d="M240.424 102.542C242.264 102.542 244.126 102.052 244.126 101.118C244.126 99.2482 236.722 99.2482 236.722 101.118C236.722 102.052 238.584 102.542 240.424 102.542ZM244.115 106.435C244.119 106.433 244.122 106.431 244.126 106.429V104.739C241.964 105.614 239.037 105.68 236.722 104.742V106.423C236.725 106.425 236.729 106.427 236.733 106.429C238.951 107.416 241.976 107.371 244.115 106.435Z" fill="white"/>
<path d="M240.424 109.436C242.263 109.436 244.126 108.947 244.126 108.012V107.031C241.756 107.989 238.874 107.911 236.721 107.039V108.012C236.721 108.947 238.584 109.436 240.424 109.436ZM244.115 104.12C244.118 104.119 244.122 104.117 244.126 104.115V102.21C243.321 102.858 241.793 103.111 240.424 103.111C239.054 103.111 237.527 102.858 236.721 102.21V104.126C236.725 104.128 236.729 104.13 236.733 104.132C238.894 105.099 241.968 105.098 244.115 104.12Z" fill="white"/>
</g>
<path d="M254.657 101.408H256.829C257.806 101.408 258.578 101.692 259.145 102.258C259.706 102.825 259.986 103.616 259.986 104.629C259.986 105.63 259.706 106.417 259.145 106.99C258.572 107.563 257.8 107.85 256.829 107.85H254.657V101.408ZM255.417 107.162H256.829C257.589 107.162 258.171 106.939 258.575 106.493C258.985 106.046 259.19 105.425 259.19 104.629C259.19 103.833 258.985 103.211 258.575 102.765C258.171 102.319 257.589 102.096 256.829 102.096H255.417V107.162ZM264.579 107.262H264.842V107.85C264.721 107.868 264.588 107.877 264.443 107.877C263.955 107.877 263.693 107.654 263.656 107.207C263.331 107.708 262.824 107.958 262.136 107.958C261.624 107.958 261.22 107.841 260.924 107.605C260.635 107.364 260.49 107.026 260.49 106.592C260.49 105.748 261.066 105.265 262.218 105.145L262.887 105.072C263.376 105.018 263.62 104.804 263.62 104.43C263.62 104.17 263.539 103.983 263.376 103.869C263.219 103.754 262.951 103.697 262.571 103.697C262.167 103.697 261.874 103.766 261.693 103.905C261.518 104.038 261.419 104.276 261.395 104.62H260.671C260.731 103.588 261.364 103.073 262.571 103.073C263.741 103.073 264.326 103.525 264.326 104.43V107.035C264.326 107.186 264.41 107.262 264.579 107.262ZM262.173 107.343C262.559 107.343 262.896 107.225 263.186 106.99C263.475 106.761 263.62 106.432 263.62 106.004V105.452C263.487 105.555 263.282 105.621 263.005 105.651L262.326 105.733C261.934 105.781 261.654 105.871 261.485 106.004C261.322 106.137 261.241 106.327 261.241 106.574C261.241 106.815 261.319 107.005 261.476 107.144C261.633 107.277 261.865 107.343 262.173 107.343ZM267.347 103.181V103.815H266.388V106.845C266.388 107.111 266.566 107.243 266.922 107.243H267.347V107.85C267.148 107.868 266.976 107.877 266.831 107.877C266.053 107.877 265.664 107.554 265.664 106.909V103.815H264.895V103.181H265.664V101.86H266.388V103.181H267.347ZM271.886 107.262H272.148V107.85C272.028 107.868 271.895 107.877 271.75 107.877C271.262 107.877 270.999 107.654 270.963 107.207C270.637 107.708 270.131 107.958 269.443 107.958C268.93 107.958 268.526 107.841 268.231 107.605C267.941 107.364 267.796 107.026 267.796 106.592C267.796 105.748 268.372 105.265 269.524 105.145L270.194 105.072C270.683 105.018 270.927 104.804 270.927 104.43C270.927 104.17 270.845 103.983 270.683 103.869C270.526 103.754 270.257 103.697 269.877 103.697C269.473 103.697 269.181 103.766 269 103.905C268.825 104.038 268.725 104.276 268.701 104.62H267.977C268.038 103.588 268.671 103.073 269.877 103.073C271.047 103.073 271.632 103.525 271.632 104.43V107.035C271.632 107.186 271.717 107.262 271.886 107.262ZM269.479 107.343C269.865 107.343 270.203 107.225 270.493 106.99C270.782 106.761 270.927 106.432 270.927 106.004V105.452C270.794 105.555 270.589 105.621 270.312 105.651L269.633 105.733C269.241 105.781 268.961 105.871 268.792 106.004C268.629 106.137 268.547 106.327 268.547 106.574C268.547 106.815 268.626 107.005 268.783 107.144C268.939 107.277 269.172 107.343 269.479 107.343ZM278.345 104.502C279.086 104.786 279.457 105.298 279.457 106.04C279.457 106.601 279.273 107.044 278.906 107.37C278.544 107.69 278.031 107.85 277.368 107.85H274.554V101.408H277.232C277.853 101.408 278.336 101.565 278.679 101.879C279.023 102.186 279.195 102.59 279.195 103.091C279.195 103.736 278.912 104.207 278.345 104.502ZM277.178 102.096H275.314V104.222H277.178C277.594 104.222 277.91 104.125 278.127 103.932C278.345 103.739 278.453 103.468 278.453 103.118C278.453 102.798 278.342 102.548 278.118 102.367C277.901 102.186 277.588 102.096 277.178 102.096ZM275.314 107.162H277.331C277.778 107.162 278.115 107.066 278.345 106.873C278.58 106.68 278.697 106.402 278.697 106.04C278.697 105.28 278.239 104.9 277.322 104.9H275.314V107.162ZM284.087 107.262H284.349V107.85C284.229 107.868 284.096 107.877 283.951 107.877C283.463 107.877 283.2 107.654 283.164 107.207C282.838 107.708 282.332 107.958 281.644 107.958C281.132 107.958 280.727 107.841 280.432 107.605C280.142 107.364 279.998 107.026 279.998 106.592C279.998 105.748 280.574 105.265 281.726 105.145L282.395 105.072C282.884 105.018 283.128 104.804 283.128 104.43C283.128 104.17 283.047 103.983 282.884 103.869C282.727 103.754 282.458 103.697 282.079 103.697C281.674 103.697 281.382 103.766 281.201 103.905C281.026 104.038 280.927 104.276 280.902 104.62H280.179C280.239 103.588 280.872 103.073 282.079 103.073C283.249 103.073 283.834 103.525 283.834 104.43V107.035C283.834 107.186 283.918 107.262 284.087 107.262ZM281.68 107.343C282.066 107.343 282.404 107.225 282.694 106.99C282.983 106.761 283.128 106.432 283.128 106.004V105.452C282.995 105.555 282.79 105.621 282.513 105.651L281.834 105.733C281.442 105.781 281.162 105.871 280.993 106.004C280.83 106.137 280.749 106.327 280.749 106.574C280.749 106.815 280.827 107.005 280.984 107.144C281.141 107.277 281.373 107.343 281.68 107.343ZM286.879 107.958C286.234 107.958 285.712 107.735 285.314 107.289C284.916 106.842 284.717 106.251 284.717 105.515C284.717 104.768 284.916 104.173 285.314 103.733C285.7 103.293 286.221 103.073 286.879 103.073C287.434 103.073 287.889 103.224 288.245 103.525C288.601 103.827 288.815 104.24 288.887 104.765H288.136C288.082 104.433 287.937 104.176 287.702 103.996C287.473 103.815 287.199 103.724 286.879 103.724C286.451 103.724 286.11 103.881 285.857 104.195C285.603 104.502 285.477 104.942 285.477 105.515C285.477 106.082 285.603 106.523 285.857 106.836C286.116 107.15 286.457 107.307 286.879 107.307C287.199 107.307 287.476 107.213 287.711 107.026C287.946 106.839 288.091 106.58 288.146 106.248H288.887C288.809 106.773 288.586 107.189 288.218 107.497C287.856 107.804 287.41 107.958 286.879 107.958ZM293.632 107.85H292.791L291.217 105.344L290.385 106.122V107.85H289.661V101.408H290.385V105.271L292.547 103.181H293.506L291.733 104.864L293.632 107.85ZM297.022 105.823V103.181H297.746V107.85H297.058V107.153C296.702 107.69 296.214 107.958 295.592 107.958C295.074 107.958 294.67 107.816 294.38 107.533C294.091 107.249 293.946 106.851 293.946 106.339V103.181H294.67V106.266C294.67 106.96 295.025 107.307 295.737 107.307C296.075 107.307 296.373 107.18 296.633 106.927C296.892 106.673 297.022 106.306 297.022 105.823ZM301.12 103.073C301.778 103.073 302.306 103.293 302.704 103.733C303.096 104.179 303.292 104.774 303.292 105.515C303.292 106.251 303.096 106.842 302.704 107.289C302.306 107.735 301.778 107.958 301.12 107.958C300.451 107.958 299.929 107.699 299.555 107.18V109.623H298.832V103.181H299.519V103.905C299.893 103.35 300.427 103.073 301.12 103.073ZM301.03 107.307C301.482 107.307 301.844 107.144 302.116 106.818C302.393 106.486 302.532 106.04 302.532 105.479C302.532 104.93 302.396 104.502 302.125 104.195C301.859 103.881 301.494 103.724 301.03 103.724C300.572 103.724 300.207 103.881 299.935 104.195C299.664 104.508 299.528 104.948 299.528 105.515C299.528 106.076 299.664 106.514 299.935 106.827C300.207 107.147 300.572 107.307 301.03 107.307Z" fill="black"/>
<path d="M135.764 51.6963H116.695C110.449 51.6963 105.386 46.6331 105.386 40.3874V22.318C105.386 18.6609 102.421 15.6963 98.7644 15.6963V15.6963" stroke="#12BDF3" stroke-width="0.883701" stroke-dasharray="3 3"/>
<rect width="98.7451" height="26.511" rx="13.2555" transform="matrix(1 0 0 -1 0.000320435 27.2073)" fill="white"/>
<circle cx="9.72071" cy="9.72071" r="9.72071" transform="matrix(1 0 0 -1 3.86209 23.3455)" fill="#85E2FF"/>
<path d="M17.1062 10.9857L13.7787 9.45256L13.7272 9.43194C13.5783 9.39411 13.4223 9.39411 13.2734 9.43194L13.2218 9.45256L9.89434 10.9857C9.73717 11.0581 9.6055 11.1762 9.51657 11.3246C9.42764 11.473 9.38558 11.6448 9.3959 11.8176L9.51278 13.7701C9.5791 14.8931 9.96333 15.9741 10.6206 16.887C11.278 17.8 12.1813 18.5072 13.2253 18.9263C13.3128 18.9657 13.4078 18.9856 13.5037 18.9847C13.5949 18.9861 13.6853 18.9674 13.7684 18.9297C14.8137 18.5117 15.7184 17.8049 16.377 16.8919C17.0356 15.9788 17.4209 14.8973 17.4878 13.7735L17.6047 11.821C17.6157 11.6477 17.574 11.4751 17.485 11.326C17.396 11.1769 17.264 11.0583 17.1062 10.9857ZM15.305 13.3919L13.4693 15.4544C13.4395 15.4886 13.4031 15.5165 13.3624 15.5366C13.3217 15.5567 13.2774 15.5685 13.2322 15.5713H13.215C13.1286 15.5719 13.0451 15.54 12.9812 15.4819L11.7197 14.3201C11.6526 14.2581 11.613 14.172 11.6095 14.0808C11.6059 13.9896 11.6388 13.9007 11.7007 13.8337C11.7627 13.7666 11.8488 13.727 11.94 13.7235C12.0313 13.7199 12.1201 13.7528 12.1872 13.8147L13.1909 14.7394L14.7893 12.9382C14.8507 12.8743 14.9343 12.8366 15.0228 12.8329C15.1113 12.8291 15.1979 12.8597 15.2643 12.9183C15.3308 12.9768 15.3722 13.0587 15.3797 13.1469C15.3873 13.2352 15.3605 13.323 15.305 13.3919Z" fill="white"/>
<path d="M32.3375 10.1833V10.8708H28.6192V12.9245H31.9756V13.6121H28.6192V15.9372H32.3013V16.6248H27.8592V10.1833H32.3375ZM35.2594 11.8479C35.7781 11.8479 36.1822 11.9897 36.4717 12.2731C36.7612 12.5566 36.9059 12.9547 36.9059 13.4674V16.6248H36.1822V13.5397C36.1822 12.8461 35.8263 12.4993 35.1146 12.4993C34.7769 12.4993 34.4783 12.626 34.219 12.8793C33.9596 13.1326 33.8299 13.5005 33.8299 13.983V16.6248H33.1062V11.9565H33.7937V12.6531C34.1496 12.1163 34.6381 11.8479 35.2594 11.8479ZM39.928 16.7334C39.2827 16.7334 38.7609 16.5102 38.3629 16.0639C37.9648 15.6175 37.7658 15.0265 37.7658 14.2906C37.7658 13.5427 37.9648 12.9487 38.3629 12.5084C38.7489 12.0681 39.2706 11.8479 39.928 11.8479C40.4829 11.8479 40.9383 11.9987 41.2941 12.3003C41.65 12.6018 41.8641 13.015 41.9365 13.5397H41.1856C41.1313 13.208 40.9865 12.9517 40.7513 12.7707C40.5221 12.5898 40.2477 12.4993 39.928 12.4993C39.4998 12.4993 39.159 12.6561 38.9057 12.9698C38.6524 13.2774 38.5257 13.7177 38.5257 14.2906C38.5257 14.8576 38.6524 15.2979 38.9057 15.6115C39.1651 15.9251 39.5058 16.082 39.928 16.082C40.2477 16.082 40.5251 15.9885 40.7604 15.8015C40.9956 15.6145 41.1403 15.3552 41.1946 15.0235H41.9365C41.8581 15.5482 41.6349 15.9643 41.267 16.2719C40.9051 16.5796 40.4588 16.7334 39.928 16.7334ZM44.8993 11.8841C45.0199 11.8841 45.1013 11.8871 45.1435 11.8932V12.5898H44.9626C44.4801 12.5898 44.1031 12.7104 43.8317 12.9517C43.5663 13.1869 43.4336 13.5247 43.4336 13.9649V16.6248H42.7099V11.9565H43.3974V12.7798C43.7111 12.1827 44.2117 11.8841 44.8993 11.8841ZM48.2503 13.8926L48.9107 11.9565H49.6978L47.7256 17.3576C47.5868 17.7496 47.3968 18.0241 47.1556 18.1809C46.9143 18.3437 46.5977 18.4252 46.2056 18.4252C46.073 18.4252 45.9282 18.4161 45.7714 18.398V17.7919H46.1966C46.6128 17.7919 46.8962 17.5989 47.047 17.2128L47.2099 16.7786L45.4547 11.9565H46.2509L46.9113 13.9016C47.1465 14.5892 47.3697 15.2617 47.5808 15.9191C47.7557 15.3582 47.9789 14.6827 48.2503 13.8926ZM52.5262 11.8479C53.1837 11.8479 53.7114 12.0681 54.1095 12.5084C54.5015 12.9547 54.6975 13.5488 54.6975 14.2906C54.6975 15.0265 54.5015 15.6175 54.1095 16.0639C53.7114 16.5102 53.1837 16.7334 52.5262 16.7334C51.8568 16.7334 51.335 16.474 50.9611 15.9553V18.398H50.2373V11.9565H50.9249V12.6803C51.2988 12.1254 51.8326 11.8479 52.5262 11.8479ZM52.4358 16.082C52.8881 16.082 53.25 15.9191 53.5214 15.5934C53.7989 15.2617 53.9376 14.8154 53.9376 14.2544C53.9376 13.7056 53.8019 13.2774 53.5305 12.9698C53.2651 12.6561 52.9002 12.4993 52.4358 12.4993C51.9774 12.4993 51.6125 12.6561 51.3411 12.9698C51.0697 13.2834 50.9339 13.7237 50.9339 14.2906C50.9339 14.8516 51.0697 15.2888 51.3411 15.6025C51.6125 15.9221 51.9774 16.082 52.4358 16.082ZM57.3268 11.9565V12.5898H56.3678V15.6206C56.3678 15.8859 56.5457 16.0186 56.9016 16.0186H57.3268V16.6248C57.1277 16.6429 56.9558 16.6519 56.8111 16.6519C56.033 16.6519 55.644 16.3292 55.644 15.6839V12.5898H54.875V11.9565H55.644V10.6356H56.3678V11.9565H57.3268ZM58.8335 11.2508H58.0645V10.3642H58.8335V11.2508ZM58.8154 16.6248H58.0917V11.9565H58.8154V16.6248ZM63.5669 16.0639C63.1387 16.5102 62.5959 16.7334 61.9385 16.7334C61.281 16.7334 60.7382 16.5102 60.31 16.0639C59.8878 15.6236 59.6767 15.0325 59.6767 14.2906C59.6767 13.5488 59.8878 12.9577 60.31 12.5174C60.7382 12.0711 61.281 11.8479 61.9385 11.8479C62.5959 11.8479 63.1387 12.0711 63.5669 12.5174C63.9891 12.9577 64.2002 13.5488 64.2002 14.2906C64.2002 15.0325 63.9891 15.6236 63.5669 16.0639ZM60.8438 15.6025C61.1152 15.9221 61.4801 16.082 61.9385 16.082C62.3968 16.082 62.7617 15.9221 63.0332 15.6025C63.3046 15.2888 63.4403 14.8516 63.4403 14.2906C63.4403 13.7237 63.3046 13.2834 63.0332 12.9698C62.7617 12.6561 62.3968 12.4993 61.9385 12.4993C61.4801 12.4993 61.1152 12.6561 60.8438 12.9698C60.5723 13.2834 60.4366 13.7237 60.4366 14.2906C60.4366 14.8516 60.5723 15.2888 60.8438 15.6025ZM67.2157 11.8479C67.7344 11.8479 68.1385 11.9897 68.428 12.2731C68.7176 12.5566 68.8623 12.9547 68.8623 13.4674V16.6248H68.1385V13.5397C68.1385 12.8461 67.7827 12.4993 67.071 12.4993C66.7332 12.4993 66.4347 12.626 66.1753 12.8793C65.916 13.1326 65.7863 13.5005 65.7863 13.983V16.6248H65.0625V11.9565H65.7501V12.6531C66.106 12.1163 66.5945 11.8479 67.2157 11.8479Z" fill="black"/>
<path d="M135.764 66.6962H116.695C110.449 66.6962 105.386 71.7594 105.386 78.0051V97.0745C105.386 100.732 102.421 103.696 98.7643 103.696V103.696" stroke="#12BDF3" stroke-width="0.883701" stroke-dasharray="3 3"/>
<rect width="98.7641" height="26.3873" rx="13.1937" transform="matrix(1 0 0 -1 0.000228882 118.432)" fill="white"/>
<circle cx="9.72071" cy="9.72071" r="9.72071" transform="matrix(1 0 0 -1 3.862 114.57)" fill="#85E2FF"/>
<g clip-path="url(#clip2_1_2684)">
<path d="M15.756 104.53H15.1115V104.208C15.1115 103.32 14.3886 102.597 13.5002 102.597C12.6117 102.597 11.8889 103.32 11.8889 104.208V104.53H11.2443V107.151H15.756V104.53ZM14.467 104.53H13.8224V105.819H13.1779V104.53H12.5334V104.208C12.5334 103.675 12.9671 103.241 13.5002 103.241C14.0333 103.241 14.467 103.675 14.467 104.208V104.53Z" fill="white"/>
<path d="M8.6662 107.796C8.6662 108.329 9.09988 108.763 9.633 108.763C9.89298 108.763 10.1283 108.658 10.3022 108.491L12.5452 109.612C12.5405 109.651 12.5334 109.689 12.5334 109.729C12.5334 110.263 12.9671 110.696 13.5002 110.696C14.0333 110.696 14.467 110.263 14.467 109.729C14.467 109.689 14.4599 109.651 14.4551 109.612L16.6981 108.491C16.872 108.658 17.1074 108.763 17.3674 108.763C17.9005 108.763 18.3342 108.329 18.3342 107.796C18.3342 107.376 18.0639 107.022 17.6896 106.888V103.504C18.0639 103.371 18.3342 103.016 18.3342 102.597C18.3342 102.064 17.9005 101.63 17.3674 101.63C17.1074 101.63 16.872 101.734 16.6981 101.902L14.4551 100.78C14.4599 100.741 14.467 100.703 14.467 100.663C14.467 100.13 14.0333 99.6963 13.5002 99.6963C12.9671 99.6963 12.5334 100.13 12.5334 100.663C12.5334 100.703 12.5405 100.741 12.5452 100.78L10.3022 101.902C10.1283 101.734 9.89298 101.63 9.633 101.63C9.09988 101.63 8.6662 102.064 8.6662 102.597C8.6662 103.016 8.93643 103.371 9.31073 103.504V106.888C8.93643 107.022 8.6662 107.376 8.6662 107.796ZM9.95526 103.504C10.3296 103.371 10.5998 103.016 10.5998 102.597C10.5998 102.557 10.5927 102.518 10.588 102.48L12.8309 101.358C13.0049 101.526 13.2402 101.63 13.5002 101.63C13.7602 101.63 13.9955 101.526 14.1694 101.358L16.4124 102.48C16.4077 102.518 16.4006 102.557 16.4006 102.597C16.4006 103.016 16.6708 103.371 17.0451 103.504V106.888C16.6708 107.022 16.4006 107.376 16.4006 107.796C16.4006 107.836 16.4077 107.874 16.4124 107.913L14.1694 109.035C13.9955 108.867 13.7602 108.763 13.5002 108.763C13.2402 108.763 13.0049 108.867 12.8309 109.035L10.588 107.913C10.5927 107.874 10.5998 107.836 10.5998 107.796C10.5998 107.376 10.3296 107.022 9.95526 106.888V103.504Z" fill="white"/>
</g>
<path d="M33.2119 107.85H32.4067L31.6558 105.977H28.7246L27.9827 107.85H27.1866L29.7559 101.408H30.6064L33.2119 107.85ZM29.0231 105.217L28.996 105.289H31.3844L31.3482 105.208C31.1974 104.84 30.8054 103.848 30.1721 102.231C29.7439 103.377 29.3609 104.372 29.0231 105.217ZM35.6966 107.958C35.0513 107.958 34.5296 107.735 34.1315 107.289C33.7334 106.842 33.5344 106.251 33.5344 105.515C33.5344 104.768 33.7334 104.173 34.1315 103.733C34.5175 103.293 35.0392 103.073 35.6966 103.073C36.2515 103.073 36.7069 103.224 37.0627 103.525C37.4186 103.827 37.6327 104.24 37.7051 104.765H36.9542C36.8999 104.433 36.7551 104.176 36.5199 103.996C36.2907 103.815 36.0163 103.724 35.6966 103.724C35.2684 103.724 34.9276 103.881 34.6743 104.195C34.421 104.502 34.2943 104.942 34.2943 105.515C34.2943 106.082 34.421 106.523 34.6743 106.836C34.9337 107.15 35.2744 107.307 35.6966 107.307C36.0163 107.307 36.2937 107.213 36.529 107.026C36.7642 106.839 36.9089 106.58 36.9632 106.248H37.7051C37.6267 106.773 37.4035 107.189 37.0356 107.497C36.6737 107.804 36.2274 107.958 35.6966 107.958ZM40.4145 107.958C39.7692 107.958 39.2475 107.735 38.8494 107.289C38.4513 106.842 38.2523 106.251 38.2523 105.515C38.2523 104.768 38.4513 104.173 38.8494 103.733C39.2354 103.293 39.7571 103.073 40.4145 103.073C40.9694 103.073 41.4248 103.224 41.7807 103.525C42.1365 103.827 42.3506 104.24 42.423 104.765H41.6721C41.6178 104.433 41.4731 104.176 41.2378 103.996C41.0086 103.815 40.7342 103.724 40.4145 103.724C39.9863 103.724 39.6455 103.881 39.3922 104.195C39.1389 104.502 39.0122 104.942 39.0122 105.515C39.0122 106.082 39.1389 106.523 39.3922 106.836C39.6516 107.15 39.9923 107.307 40.4145 107.307C40.7342 107.307 41.0117 107.213 41.2469 107.026C41.4821 106.839 41.6269 106.58 41.6811 106.248H42.423C42.3446 106.773 42.1214 107.189 41.7535 107.497C41.3916 107.804 40.9453 107.958 40.4145 107.958ZM47.2676 105.515V105.769H43.7211C43.7573 106.275 43.899 106.658 44.1463 106.918C44.3936 107.171 44.7314 107.298 45.1596 107.298C45.805 107.298 46.2181 107.008 46.3991 106.429H47.15C47.0233 106.9 46.7881 107.274 46.4443 107.551C46.1005 107.822 45.6662 107.958 45.1415 107.958C44.4961 107.958 43.9744 107.738 43.5764 107.298C43.1723 106.857 42.9702 106.263 42.9702 105.515C42.9702 104.78 43.1692 104.189 43.5673 103.742C43.9594 103.296 44.4781 103.073 45.1234 103.073C45.7929 103.073 46.3176 103.305 46.6976 103.769C47.0776 104.234 47.2676 104.816 47.2676 105.515ZM45.1234 103.733C44.7434 103.733 44.4328 103.854 44.1916 104.095C43.9503 104.33 43.7995 104.671 43.7392 105.117H46.4895C46.4533 104.707 46.3146 104.376 46.0734 104.122C45.8321 103.863 45.5155 103.733 45.1234 103.733ZM49.7287 107.958C48.4802 107.958 47.8198 107.427 47.7474 106.366H48.4802C48.5225 106.716 48.6371 106.966 48.824 107.117C49.017 107.262 49.3186 107.334 49.7287 107.334C50.4766 107.334 50.8506 107.093 50.8506 106.61C50.8506 106.399 50.7722 106.239 50.6153 106.131C50.4646 106.022 50.1871 105.929 49.783 105.85L49.3488 105.769C48.3777 105.588 47.8922 105.129 47.8922 104.394C47.8922 103.99 48.043 103.67 48.3445 103.435C48.6521 103.193 49.0683 103.073 49.593 103.073C50.8295 103.073 51.4628 103.588 51.4929 104.62H50.7691C50.7511 104.282 50.6485 104.044 50.4615 103.905C50.2746 103.766 49.9851 103.697 49.593 103.697C49.2794 103.697 49.0381 103.757 48.8693 103.878C48.7004 103.999 48.6159 104.167 48.6159 104.385C48.6159 104.59 48.6883 104.743 48.8331 104.846C48.9778 104.948 49.2191 105.036 49.5568 105.108L49.973 105.19C50.546 105.304 50.9561 105.467 51.2034 105.678C51.4567 105.889 51.5834 106.185 51.5834 106.565C51.5834 107.005 51.4175 107.349 51.0858 107.596C50.7601 107.838 50.3077 107.958 49.7287 107.958ZM54.0402 107.958C52.7917 107.958 52.1313 107.427 52.0589 106.366H52.7917C52.834 106.716 52.9486 106.966 53.1355 107.117C53.3285 107.262 53.6301 107.334 54.0402 107.334C54.7881 107.334 55.1621 107.093 55.1621 106.61C55.1621 106.399 55.0837 106.239 54.9269 106.131C54.7761 106.022 54.4986 105.929 54.0945 105.85L53.6603 105.769C52.6892 105.588 52.2037 105.129 52.2037 104.394C52.2037 103.99 52.3545 103.67 52.656 103.435C52.9636 103.193 53.3798 103.073 53.9045 103.073C55.141 103.073 55.7743 103.588 55.8044 104.62H55.0807C55.0626 104.282 54.96 104.044 54.7731 103.905C54.5861 103.766 54.2966 103.697 53.9045 103.697C53.5909 103.697 53.3496 103.757 53.1808 103.878C53.0119 103.999 52.9274 104.167 52.9274 104.385C52.9274 104.59 52.9998 104.743 53.1446 104.846C53.2893 104.948 53.5306 105.036 53.8683 105.108L54.2845 105.19C54.8575 105.304 55.2676 105.467 55.5149 105.678C55.7682 105.889 55.8949 106.185 55.8949 106.565C55.8949 107.005 55.729 107.349 55.3973 107.596C55.0716 107.838 54.6193 107.958 54.0402 107.958ZM61.09 107.994C60.2154 107.994 59.5007 107.69 58.9458 107.081C58.3909 106.471 58.1135 105.654 58.1135 104.629C58.1135 103.603 58.3909 102.786 58.9458 102.177C59.5007 101.568 60.2154 101.263 61.09 101.263C61.7836 101.263 62.3747 101.453 62.8632 101.833C63.3517 102.207 63.6744 102.756 63.8312 103.48H63.0622C62.7908 102.467 62.1334 101.96 61.09 101.96C60.4325 101.96 59.9048 102.195 59.5067 102.666C59.1087 103.142 58.9096 103.796 58.9096 104.629C58.9096 105.461 59.1087 106.113 59.5067 106.583C59.9048 107.059 60.4325 107.298 61.09 107.298C61.5845 107.298 62.0248 107.144 62.4108 106.836C62.7908 106.541 63.023 106.097 63.1075 105.506H63.8674C63.783 106.309 63.4784 106.921 62.9537 107.343C62.4229 107.777 61.8017 107.994 61.09 107.994ZM68.3473 107.289C67.9191 107.735 67.3762 107.958 66.7188 107.958C66.0614 107.958 65.5186 107.735 65.0903 107.289C64.6681 106.848 64.457 106.257 64.457 105.515C64.457 104.774 64.6681 104.183 65.0903 103.742C65.5186 103.296 66.0614 103.073 66.7188 103.073C67.3762 103.073 67.9191 103.296 68.3473 103.742C68.7695 104.183 68.9806 104.774 68.9806 105.515C68.9806 106.257 68.7695 106.848 68.3473 107.289ZM65.6241 106.827C65.8955 107.147 66.2604 107.307 66.7188 107.307C67.1772 107.307 67.5421 107.147 67.8135 106.827C68.0849 106.514 68.2206 106.076 68.2206 105.515C68.2206 104.948 68.0849 104.508 67.8135 104.195C67.5421 103.881 67.1772 103.724 66.7188 103.724C66.2604 103.724 65.8955 103.881 65.6241 104.195C65.3527 104.508 65.217 104.948 65.217 105.515C65.217 106.076 65.3527 106.514 65.6241 106.827ZM71.9961 103.073C72.5148 103.073 72.9189 103.214 73.2084 103.498C73.4979 103.781 73.6427 104.179 73.6427 104.692V107.85H72.9189V104.765C72.9189 104.071 72.563 103.724 71.8513 103.724C71.5136 103.724 71.215 103.851 70.9557 104.104C70.6963 104.357 70.5667 104.725 70.5667 105.208V107.85H69.8429V103.181H70.5305V103.878C70.8863 103.341 71.3749 103.073 71.9961 103.073ZM76.5966 103.181V103.815H75.6376V106.845C75.6376 107.111 75.8155 107.243 76.1714 107.243H76.5966V107.85C76.3976 107.868 76.2257 107.877 76.0809 107.877C75.3029 107.877 74.9138 107.554 74.9138 106.909V103.815H74.1448V103.181H74.9138V101.86H75.6376V103.181H76.5966ZM79.5509 103.109C79.6715 103.109 79.753 103.112 79.7952 103.118V103.815H79.6142C79.1317 103.815 78.7548 103.935 78.4834 104.176C78.218 104.412 78.0853 104.749 78.0853 105.19V107.85H77.3615V103.181H78.0491V104.005C78.3627 103.407 78.8633 103.109 79.5509 103.109ZM83.8616 107.289C83.4334 107.735 82.8906 107.958 82.2332 107.958C81.5757 107.958 81.0329 107.735 80.6047 107.289C80.1825 106.848 79.9714 106.257 79.9714 105.515C79.9714 104.774 80.1825 104.183 80.6047 103.742C81.0329 103.296 81.5757 103.073 82.2332 103.073C82.8906 103.073 83.4334 103.296 83.8616 103.742C84.2838 104.183 84.4949 104.774 84.4949 105.515C84.4949 106.257 84.2838 106.848 83.8616 107.289ZM81.1385 106.827C81.4099 107.147 81.7748 107.307 82.2332 107.307C82.6915 107.307 83.0564 107.147 83.3279 106.827C83.5993 106.514 83.735 106.076 83.735 105.515C83.735 104.948 83.5993 104.508 83.3279 104.195C83.0564 103.881 82.6915 103.724 82.2332 103.724C81.7748 103.724 81.4099 103.881 81.1385 104.195C80.867 104.508 80.7313 104.948 80.7313 105.515C80.7313 106.076 80.867 106.514 81.1385 106.827ZM86.081 107.85H85.3572V101.408H86.081V107.85Z" fill="black"/>
<g filter="url(#filter0_d_1_2684)">
<g filter="url(#filter1_d_1_2684)">
<circle cx="162.746" cy="59.2302" r="26.7643" fill="#021318"/>
</g>
<g clip-path="url(#clip3_1_2684)">
<path d="M169.421 56.8741H168.243V55.3034C168.243 52.2721 165.777 49.806 162.745 49.806C159.714 49.806 157.248 52.2721 157.248 55.3034V56.8741H156.07C156.019 56.874 155.967 56.8842 155.92 56.9039C155.872 56.9236 155.829 56.9525 155.792 56.989C155.756 57.0255 155.727 57.0688 155.707 57.1164C155.688 57.1641 155.677 57.2152 155.677 57.2667V67.0835C155.677 67.9497 156.382 68.6541 157.248 68.6541H168.243C169.109 68.6541 169.814 67.9497 169.814 67.0834V57.2667C169.814 57.2152 169.803 57.1641 169.784 57.1164C169.764 57.0688 169.735 57.0255 169.699 56.989C169.662 56.9525 169.619 56.9236 169.571 56.9039C169.523 56.8842 169.472 56.874 169.421 56.8741ZM163.921 65.0768C163.927 65.1317 163.922 65.1872 163.905 65.2398C163.888 65.2924 163.86 65.3409 163.823 65.382C163.787 65.4232 163.742 65.4561 163.691 65.4786C163.641 65.5011 163.586 65.5128 163.531 65.5128H161.96C161.905 65.5128 161.85 65.5011 161.8 65.4786C161.749 65.4561 161.704 65.4232 161.668 65.382C161.631 65.3409 161.603 65.2924 161.586 65.2398C161.569 65.1872 161.564 65.1317 161.57 65.0768L161.818 62.8492C161.415 62.5567 161.175 62.0938 161.175 61.5861C161.175 60.7199 161.879 60.0154 162.746 60.0154C163.612 60.0154 164.316 60.7198 164.316 61.5861C164.316 62.0938 164.076 62.5567 163.674 62.8492L163.921 65.0768ZM165.887 56.8741H159.604V55.3034C159.604 53.5713 161.013 52.162 162.745 52.162C164.478 52.162 165.887 53.5713 165.887 55.3034V56.8741Z" fill="#12BDF3"/>
</g>
</g>
<defs>
<filter id="filter0_d_1_2684" x="113.29" y="14.0744" width="98.9127" height="98.9127" filterUnits="userSpaceOnUse" color-interpolation-filters="sRGB">
<feFlood flood-opacity="0" result="BackgroundImageFix"/>
<feColorMatrix in="SourceAlpha" type="matrix" values="0 0 0 0 0 0 0 0 0 0 0 0 0 0 0 0 0 0 127 0" result="hardAlpha"/>
<feOffset dy="4.30055"/>
<feGaussianBlur stdDeviation="9.46122"/>
<feComposite in2="hardAlpha" operator="out"/>
<feColorMatrix type="matrix" values="0 0 0 0 0.516667 0 0 0 0 0.516667 0 0 0 0 0.516667 0 0 0 0.1 0"/>
<feBlend mode="normal" in2="BackgroundImageFix" result="effect1_dropShadow_1_2684"/>
<feBlend mode="normal" in="SourceGraphic" in2="effect1_dropShadow_1_2684" result="shape"/>
</filter>
<filter id="filter1_d_1_2684" x="124.094" y="23.2799" width="77.3041" height="77.3041" filterUnits="userSpaceOnUse" color-interpolation-filters="sRGB">
<feFlood flood-opacity="0" result="BackgroundImageFix"/>
<feColorMatrix in="SourceAlpha" type="matrix" values="0 0 0 0 0 0 0 0 0 0 0 0 0 0 0 0 0 0 127 0" result="hardAlpha"/>
<feOffset dy="2.70176"/>
<feGaussianBlur stdDeviation="5.94388"/>
<feComposite in2="hardAlpha" operator="out"/>
<feColorMatrix type="matrix" values="0 0 0 0 0.516667 0 0 0 0 0.516667 0 0 0 0 0.516667 0 0 0 0.15 0"/>
<feBlend mode="normal" in2="BackgroundImageFix" result="effect1_dropShadow_1_2684"/>
<feBlend mode="normal" in="SourceGraphic" in2="effect1_dropShadow_1_2684" result="shape"/>
</filter>
<clipPath id="clip0_1_2684">
<rect width="11" height="11" fill="white" transform="translate(235 7.69632)"/>
</clipPath>
<clipPath id="clip1_1_2684">
<rect width="9.72071" height="9.72071" fill="white" transform="translate(235.563 99.7156)"/>
</clipPath>
<clipPath id="clip2_1_2684">
<rect width="11" height="11" fill="white" transform="translate(8.00018 99.6963)"/>
</clipPath>
<clipPath id="clip3_1_2684">
<rect width="18.8481" height="18.8481" fill="white" transform="translate(153.322 49.8061)"/>
</clipPath>
</defs>
</svg>
