<svg width="132" height="25" viewBox="0 0 132 25" fill="none" xmlns="http://www.w3.org/2000/svg">
<rect x="1.00378" y="1.14111" width="127.487" height="22.2804" rx="3.56698" fill="#DD0030" fill-opacity="0.1"/>
<rect x="0.647087" y="0.784416" width="128.2" height="22.9938" rx="3.92367" stroke="#DD0030" stroke-opacity="0.2" stroke-width="0.713395"/>
<g clip-path="url(#clip0_788_684)">
<path d="M5.95541 6.6453C5.34231 6.72656 4.73906 7.06635 4.3451 7.55387C4.13827 7.80748 3.9536 8.1719 3.8625 8.50184L3.79602 8.74806V12.2814V15.8147L3.8625 16.0609C4.13581 17.0483 4.92619 17.7574 5.91848 17.9076C6.27796 17.9618 12.6158 17.9618 12.9753 17.9076C13.9676 17.7574 14.7579 17.0483 15.0312 16.0609L15.0977 15.8147V12.2814V8.74806L15.0312 8.50184C14.785 7.61543 14.1128 6.94077 13.2264 6.69947L12.9802 6.63053L9.54536 6.62807C7.65682 6.62561 6.04159 6.63299 5.95541 6.6453ZM10.2496 10.0555C10.3481 10.1023 10.4564 10.2697 10.4564 10.3756C10.4564 10.4987 9.16125 14.3497 9.09724 14.4162C8.97412 14.5491 8.80423 14.5836 8.64418 14.5073C8.54569 14.4605 8.43735 14.293 8.43735 14.1872C8.43735 14.0862 9.73003 10.218 9.7842 10.1565C9.90731 10.0186 10.0895 9.97918 10.2496 10.0555ZM7.65436 10.6563C7.77501 10.6908 7.88827 10.8065 7.92028 10.9296C7.96953 11.1143 7.93752 11.1635 7.35889 11.7446L6.82704 12.2814L7.35889 12.8157C7.75039 13.2121 7.89812 13.3771 7.91782 13.4436C8.004 13.707 7.7233 13.9902 7.45738 13.904C7.38844 13.8843 7.19638 13.707 6.68177 13.1949C6.30505 12.8206 5.98003 12.4858 5.96033 12.4488C5.91601 12.3626 5.91601 12.2001 5.96033 12.114C6.01943 12.0032 7.33181 10.7105 7.42783 10.6711C7.53125 10.6268 7.53863 10.6243 7.65436 10.6563ZM11.461 10.6686C11.5595 10.7105 12.8694 11.9958 12.9334 12.114C12.9777 12.2001 12.9777 12.3626 12.9334 12.4488C12.9137 12.4858 12.5887 12.8206 12.212 13.1949C11.6974 13.707 11.5053 13.8843 11.4364 13.904C11.1704 13.9902 10.8898 13.707 10.9759 13.4436C10.9956 13.3771 11.1434 13.2121 11.5349 12.8157L12.0667 12.2814L11.5349 11.7446C10.9562 11.1635 10.9242 11.1143 10.9735 10.9296C11.0055 10.8114 11.1187 10.6908 11.2271 10.6588C11.3403 10.6268 11.3576 10.6268 11.461 10.6686Z" fill="#DD0030"/>
</g>
<path d="M22.8075 18.2812L26.2135 9.18125H27.9945L31.3875 18.2812H29.7885L28.9305 16.0322H25.1995L24.3545 18.2812H22.8075ZM25.6155 14.7582H28.5145L27.0585 10.7932L25.6155 14.7582ZM37.6116 12.2752C38.1056 12.7692 38.3656 13.5492 38.3656 14.6152V18.2812H36.9486V14.6932C36.9486 14.0692 36.8056 13.5882 36.5456 13.2502C36.2726 12.9252 35.8826 12.7562 35.3626 12.7562C34.8036 12.7562 34.3616 12.9512 34.0496 13.3412C33.7376 13.7312 33.5816 14.2512 33.5816 14.9272V18.2812H32.1776V11.6252H33.3996L33.5556 12.4962C34.0496 11.8722 34.7646 11.5472 35.6876 11.5472C36.4676 11.5472 37.1176 11.7942 37.6116 12.2752ZM46.1035 11.6252V18.0082C46.1035 18.9443 45.8175 19.6723 45.2715 20.1922C44.7125 20.7123 43.8545 20.9593 42.6975 20.9593C41.7875 20.9593 41.0595 20.7643 40.5005 20.3613C39.9285 19.9583 39.6165 19.3863 39.5645 18.6453H40.9945C41.0725 19.0223 41.2805 19.3083 41.5925 19.5163C41.9045 19.7243 42.3075 19.8153 42.8015 19.8153C44.0755 19.8153 44.7125 19.2043 44.7125 17.9562V17.2152C44.2185 17.9432 43.5035 18.3073 42.5415 18.3073C41.9305 18.3073 41.3845 18.1772 40.9165 17.9042C40.4355 17.6312 40.0585 17.2412 39.7985 16.7342C39.5255 16.2272 39.3955 15.6292 39.3955 14.9272C39.3955 14.2642 39.5255 13.6792 39.7985 13.1592C40.0715 12.6522 40.4485 12.2622 40.9295 11.9762C41.3975 11.6902 41.9435 11.5472 42.5415 11.5472C43.0355 11.5472 43.4775 11.6512 43.8415 11.8462C44.2055 12.0542 44.4915 12.3272 44.7255 12.6652L44.8815 11.6252H46.1035ZM44.1795 16.5262C44.5305 16.1232 44.7125 15.6032 44.7125 14.9532C44.7125 14.3032 44.5305 13.7702 44.1795 13.3542C43.8155 12.9382 43.3475 12.7302 42.7755 12.7302C42.1905 12.7302 41.7225 12.9382 41.3715 13.3412C41.0075 13.7572 40.8385 14.2772 40.8385 14.9272C40.8385 15.5772 41.0075 16.1102 41.3715 16.5132C41.7225 16.9292 42.1905 17.1242 42.7755 17.1242C43.3475 17.1242 43.8155 16.9292 44.1795 16.5262ZM53.4425 11.6252V18.2812H52.2075L52.0515 17.4362C51.5445 18.0602 50.8555 18.3593 49.9975 18.3593C49.2175 18.3593 48.5805 18.1252 48.0995 17.6312C47.6055 17.1502 47.3715 16.3703 47.3715 15.2912V11.6252H48.7755V15.1482C48.7755 15.7982 48.9055 16.2922 49.1655 16.6302C49.4255 16.9682 49.8025 17.1372 50.3225 17.1372C50.8555 17.1372 51.2715 16.9422 51.5835 16.5522C51.8825 16.1622 52.0385 15.6162 52.0385 14.9272V11.6252H53.4425ZM54.8261 9.18125H56.2301V18.2812H54.8261V9.18125ZM63.9764 17.0592V18.2812H63.2354C62.7934 18.2812 62.4814 18.1902 62.2994 18.0082C62.1044 17.8262 62.0134 17.5662 62.0134 17.2152C61.5064 17.9822 60.7784 18.3593 59.8164 18.3593C59.0624 18.3593 58.4644 18.1902 58.0224 17.8392C57.5674 17.5012 57.3464 17.0202 57.3464 16.4092C57.3464 15.7332 57.5804 15.2002 58.0744 14.8362C58.5554 14.4722 59.2574 14.2772 60.1934 14.2772H61.8704V13.8742C61.8704 13.5102 61.7404 13.2112 61.4804 13.0032C61.2204 12.7952 60.8564 12.6782 60.4014 12.6782C59.9854 12.6782 59.6474 12.7692 59.3874 12.9512C59.1274 13.1332 58.9714 13.3672 58.9194 13.6532H57.5414C57.6064 12.9902 57.9054 12.4702 58.4254 12.1062C58.9454 11.7422 59.6214 11.5472 60.4664 11.5472C61.3504 11.5472 62.0394 11.7552 62.5334 12.1712C63.0144 12.5872 63.2614 13.1852 63.2614 13.9652V16.5912C63.2614 16.9032 63.4044 17.0592 63.7034 17.0592H63.9764ZM61.8704 15.3172H60.1284C59.6864 15.3172 59.3614 15.4082 59.1274 15.5772C58.8934 15.7462 58.7764 15.9932 58.7764 16.3182C58.7764 16.6042 58.8804 16.8382 59.1014 17.0072C59.3224 17.1892 59.6214 17.2672 60.0114 17.2672C60.5834 17.2672 61.0384 17.1112 61.3634 16.7992C61.6884 16.4872 61.8574 16.0712 61.8704 15.5512V15.3172ZM68.4201 11.6252V12.9382H67.7961C67.2111 12.9382 66.7951 13.1332 66.5351 13.5102C66.2751 13.8872 66.1451 14.3682 66.1451 14.9403V18.2812H64.7411V11.6252H65.9891L66.1451 12.6262C66.3271 12.3142 66.5741 12.0802 66.8861 11.8982C67.1851 11.7163 67.5881 11.6252 68.1081 11.6252H68.4201ZM72.7806 9.18125H75.6796C76.6026 9.18125 77.4086 9.37625 78.1106 9.75325C78.7996 10.1432 79.3326 10.6762 79.7096 11.3522C80.0736 12.0412 80.2686 12.8342 80.2686 13.7312C80.2686 14.6282 80.0736 15.4212 79.7096 16.1102C79.3326 16.7992 78.7996 17.3322 78.1106 17.7092C77.4086 18.0992 76.6026 18.2812 75.6796 18.2812H72.7806V9.18125ZM75.6796 16.9812C76.6546 16.9812 77.4086 16.6952 77.9416 16.1102C78.4616 15.5252 78.7346 14.7322 78.7346 13.7312C78.7346 12.7432 78.4616 11.9502 77.9416 11.3652C77.4086 10.7802 76.6546 10.4812 75.6796 10.4812H74.2756V16.9812H75.6796ZM81.5915 13.1722C81.8645 12.6522 82.2415 12.2622 82.7355 11.9762C83.2295 11.6902 83.7885 11.5472 84.4255 11.5472C85.0625 11.5472 85.6215 11.6772 86.1155 11.9372C86.6095 12.1972 86.9865 12.5742 87.2725 13.0422C87.5585 13.5232 87.7015 14.0822 87.7145 14.7192C87.7145 14.9012 87.7015 15.0702 87.6755 15.2522H82.6575V15.3302C82.6835 15.9152 82.8655 16.3703 83.2035 16.7082C83.5285 17.0462 83.9705 17.2152 84.5165 17.2152C84.9455 17.2152 85.3095 17.1242 85.6085 16.9162C85.8945 16.7082 86.0895 16.4222 86.1935 16.0452H87.5975C87.4675 16.7212 87.1425 17.2802 86.6095 17.7092C86.0765 18.1512 85.4135 18.3593 84.6205 18.3593C83.9185 18.3593 83.3205 18.2292 82.8005 17.9432C82.2805 17.6572 81.8905 17.2672 81.6045 16.7472C81.3185 16.2402 81.1885 15.6422 81.1885 14.9662C81.1885 14.2902 81.3185 13.6922 81.5915 13.1722ZM86.2845 14.2252C86.2195 13.7442 86.0245 13.3672 85.6995 13.0942C85.3745 12.8212 84.9715 12.6782 84.4775 12.6782C84.0095 12.6782 83.6195 12.8212 83.2815 13.1072C82.9435 13.3932 82.7615 13.7572 82.7095 14.2252H86.2845ZM87.9326 11.6252H89.4406L91.2736 16.7732L93.0806 11.6252H94.5626L92.1056 18.2812H90.3896L87.9326 11.6252ZM95.1754 13.1722C95.4484 12.6522 95.8254 12.2622 96.3194 11.9762C96.8134 11.6902 97.3724 11.5472 98.0094 11.5472C98.6464 11.5472 99.2054 11.6772 99.6994 11.9372C100.193 12.1972 100.57 12.5742 100.856 13.0422C101.142 13.5232 101.285 14.0822 101.298 14.7192C101.298 14.9012 101.285 15.0702 101.259 15.2522H96.2414V15.3302C96.2674 15.9152 96.4494 16.3703 96.7874 16.7082C97.1124 17.0462 97.5544 17.2152 98.1004 17.2152C98.5294 17.2152 98.8934 17.1242 99.1924 16.9162C99.4784 16.7082 99.6734 16.4222 99.7774 16.0452H101.181C101.051 16.7212 100.726 17.2802 100.193 17.7092C99.6604 18.1512 98.9974 18.3593 98.2044 18.3593C97.5024 18.3593 96.9044 18.2292 96.3844 17.9432C95.8644 17.6572 95.4744 17.2672 95.1884 16.7472C94.9024 16.2402 94.7724 15.6422 94.7724 14.9662C94.7724 14.2902 94.9024 13.6922 95.1754 13.1722ZM99.8684 14.2252C99.8034 13.7442 99.6084 13.3672 99.2834 13.0942C98.9584 12.8212 98.5554 12.6782 98.0614 12.6782C97.5934 12.6782 97.2034 12.8212 96.8654 13.1072C96.5274 13.3932 96.3454 13.7572 96.2934 14.2252H99.8684ZM102.434 9.18125H103.838V18.2812H102.434V9.18125ZM106.579 17.9432C106.059 17.6572 105.669 17.2672 105.383 16.7472C105.097 16.2272 104.967 15.6292 104.967 14.9532C104.967 14.2902 105.097 13.7052 105.383 13.1852C105.669 12.6652 106.059 12.2622 106.579 11.9762C107.099 11.6902 107.684 11.5472 108.36 11.5472C109.023 11.5472 109.608 11.6902 110.128 11.9762C110.648 12.2622 111.038 12.6652 111.324 13.1852C111.61 13.7052 111.753 14.2902 111.753 14.9532C111.753 15.6292 111.61 16.2272 111.324 16.7472C111.038 17.2672 110.648 17.6572 110.128 17.9432C109.608 18.2292 109.023 18.3593 108.36 18.3593C107.684 18.3593 107.099 18.2292 106.579 17.9432ZM109.777 16.5522C110.141 16.1362 110.323 15.6032 110.323 14.9532C110.323 14.3032 110.141 13.7832 109.777 13.3672C109.413 12.9512 108.945 12.7432 108.36 12.7432C107.762 12.7432 107.294 12.9512 106.943 13.3672C106.579 13.7832 106.41 14.3032 106.41 14.9532C106.41 15.6032 106.579 16.1362 106.943 16.5522C107.294 16.9682 107.762 17.1632 108.36 17.1632C108.945 17.1632 109.413 16.9682 109.777 16.5522ZM118.069 11.9632C118.537 12.2362 118.914 12.6262 119.187 13.1462C119.447 13.6662 119.59 14.2642 119.59 14.9532C119.59 15.6292 119.447 16.2272 119.187 16.7472C118.914 17.2672 118.537 17.6572 118.069 17.9432C117.588 18.2292 117.042 18.3593 116.444 18.3593C115.95 18.3593 115.521 18.2682 115.157 18.0862C114.793 17.9042 114.494 17.6572 114.286 17.3452V20.8813H112.882V11.6252H114.104L114.273 12.6132C114.806 11.9112 115.534 11.5472 116.444 11.5472C117.042 11.5472 117.588 11.6902 118.069 11.9632ZM117.614 16.5522C117.978 16.1362 118.16 15.6032 118.16 14.9532C118.16 14.3032 117.978 13.7702 117.614 13.3542C117.25 12.9512 116.782 12.7432 116.21 12.7432C115.625 12.7432 115.157 12.9512 114.806 13.3542C114.442 13.7572 114.273 14.2772 114.273 14.9272C114.273 15.6032 114.442 16.1362 114.806 16.5522C115.157 16.9682 115.625 17.1762 116.21 17.1762C116.782 17.1762 117.25 16.9682 117.614 16.5522ZM120.871 13.1722C121.144 12.6522 121.521 12.2622 122.015 11.9762C122.509 11.6902 123.068 11.5472 123.705 11.5472C124.342 11.5472 124.901 11.6772 125.395 11.9372C125.889 12.1972 126.266 12.5742 126.552 13.0422C126.838 13.5232 126.981 14.0822 126.994 14.7192C126.994 14.9012 126.981 15.0702 126.955 15.2522H121.937V15.3302C121.963 15.9152 122.145 16.3703 122.483 16.7082C122.808 17.0462 123.25 17.2152 123.796 17.2152C124.225 17.2152 124.589 17.1242 124.888 16.9162C125.174 16.7082 125.369 16.4222 125.473 16.0452H126.877C126.747 16.7212 126.422 17.2802 125.889 17.7092C125.356 18.1512 124.693 18.3593 123.9 18.3593C123.198 18.3593 122.6 18.2292 122.08 17.9432C121.56 17.6572 121.17 17.2672 120.884 16.7472C120.598 16.2402 120.468 15.6422 120.468 14.9662C120.468 14.2902 120.598 13.6922 120.871 13.1722ZM125.564 14.2252C125.499 13.7442 125.304 13.3672 124.979 13.0942C124.654 12.8212 124.251 12.6782 123.757 12.6782C123.289 12.6782 122.899 12.8212 122.561 13.1072C122.223 13.3932 122.041 13.7572 121.989 14.2252H125.564ZM131.808 11.6252V12.9382H131.184C130.599 12.9382 130.183 13.1332 129.923 13.5102C129.663 13.8872 129.533 14.3682 129.533 14.9403V18.2812H128.129V11.6252H129.377L129.533 12.6262C129.715 12.3142 129.962 12.0802 130.274 11.8982C130.573 11.7163 130.976 11.6252 131.496 11.6252H131.808Z" fill="black" fill-opacity="0.7"/>
<defs>
<clipPath id="clip0_788_684">
<rect width="12.6067" height="12.6067" fill="white" transform="translate(3.14392 5.97803)"/>
</clipPath>
</defs>
</svg>
