<svg width="154" height="26" viewBox="0 0 154 26" fill="none" xmlns="http://www.w3.org/2000/svg">
<rect x="1.61842" y="0.962402" width="151.487" height="24.2804" rx="3.56698" fill="#F0DB4F" fill-opacity="0.1"/>
<rect x="1.26173" y="0.605705" width="152.2" height="24.9938" rx="3.92367" stroke="#F0DB4F" stroke-opacity="0.2" stroke-width="0.713395"/>
<path d="M6.57014 7.46659C5.95704 7.54785 5.35379 7.88764 4.95983 8.37516C4.753 8.62877 4.56834 8.99319 4.47723 9.32313L4.41075 9.56935V13.1027V16.636L4.47723 16.8822C4.75054 17.8696 5.54092 18.5787 6.53321 18.7289C6.89269 18.7831 13.2305 18.7831 13.59 18.7289C14.5823 18.5787 15.3727 17.8696 15.646 16.8822L15.7125 16.636V13.1027V9.56935L15.646 9.32313C15.3998 8.43672 14.7276 7.76206 13.8412 7.52076L13.5949 7.45182L10.1601 7.44936C8.27155 7.4469 6.65632 7.45428 6.57014 7.46659ZM10.8643 10.8768C10.9628 10.9236 11.0711 11.091 11.0711 11.1969C11.0711 11.32 9.77598 15.171 9.71197 15.2374C9.58885 15.3704 9.41896 15.4049 9.25891 15.3285C9.16042 15.2818 9.05208 15.1143 9.05208 15.0085C9.05208 14.9075 10.3448 11.0393 10.3989 10.9778C10.522 10.8399 10.7043 10.8005 10.8643 10.8768ZM8.26909 11.4776C8.38974 11.5121 8.503 11.6278 8.53501 11.7509C8.58426 11.9356 8.55225 11.9848 7.97362 12.5659L7.44178 13.1027L7.97362 13.637C8.36512 14.0334 8.51285 14.1984 8.53255 14.2649C8.61873 14.5283 8.33803 14.8115 8.07211 14.7253C8.00317 14.7056 7.81111 14.5283 7.2965 14.0162C6.91978 13.6419 6.59476 13.307 6.57507 13.2701C6.53075 13.1839 6.53075 13.0214 6.57507 12.9352C6.63416 12.8244 7.94654 11.5318 8.04256 11.4924C8.14598 11.448 8.15336 11.4456 8.26909 11.4776ZM12.0757 11.4899C12.1742 11.5318 13.4841 12.8171 13.5481 12.9352C13.5925 13.0214 13.5925 13.1839 13.5481 13.2701C13.5284 13.307 13.2034 13.6419 12.8267 14.0162C12.3121 14.5283 12.12 14.7056 12.0511 14.7253C11.7852 14.8115 11.5045 14.5283 11.5907 14.2649C11.6104 14.1984 11.7581 14.0334 12.1496 13.637L12.6814 13.1027L12.1496 12.5659C11.571 11.9848 11.539 11.9356 11.5882 11.7509C11.6202 11.6327 11.7335 11.5121 11.8418 11.4801C11.9551 11.448 11.9723 11.448 12.0757 11.4899Z" fill="#F0DB4F"/>
<path d="M27.3916 9.00254V15.8405C27.3916 16.5685 27.1836 17.1275 26.7936 17.5175C26.4036 17.9075 25.8446 18.1025 25.1166 18.1025H23.7126V16.7635H24.7786C25.1686 16.7635 25.4416 16.6725 25.6236 16.4905C25.8056 16.3085 25.8966 16.0225 25.8966 15.6195V9.00254H27.3916ZM35.2839 16.8805V18.1025H34.5429C34.1009 18.1025 33.7889 18.0115 33.6069 17.8295C33.4119 17.6475 33.3209 17.3875 33.3209 17.0365C32.8139 17.8035 32.0859 18.1805 31.1239 18.1805C30.3699 18.1805 29.7719 18.0115 29.3299 17.6605C28.8749 17.3225 28.6539 16.8415 28.6539 16.2305C28.6539 15.5545 28.8879 15.0215 29.3819 14.6575C29.8629 14.2935 30.5649 14.0985 31.5009 14.0985H33.1779V13.6955C33.1779 13.3315 33.0479 13.0325 32.7879 12.8245C32.5279 12.6165 32.1639 12.4995 31.7089 12.4995C31.2929 12.4995 30.9549 12.5905 30.6949 12.7725C30.4349 12.9545 30.2789 13.1885 30.2269 13.4745H28.8489C28.9139 12.8115 29.2129 12.2915 29.7329 11.9275C30.2529 11.5635 30.9289 11.3685 31.7739 11.3685C32.6579 11.3685 33.3469 11.5765 33.8409 11.9925C34.3219 12.4085 34.5689 13.0065 34.5689 13.7865V16.4125C34.5689 16.7245 34.7119 16.8805 35.0109 16.8805H35.2839ZM33.1779 15.1385H31.4359C30.9939 15.1385 30.6689 15.2295 30.4349 15.3985C30.2009 15.5675 30.0839 15.8145 30.0839 16.1395C30.0839 16.4255 30.1879 16.6595 30.4089 16.8285C30.6299 17.0105 30.9289 17.0885 31.3189 17.0885C31.8909 17.0885 32.3459 16.9325 32.6709 16.6205C32.9959 16.3085 33.1649 15.8925 33.1779 15.3725V15.1385ZM35.1825 11.4465H36.6905L38.5235 16.5945L40.3305 11.4465H41.8125L39.3555 18.1025H37.6395L35.1825 11.4465ZM48.6139 16.8805V18.1025H47.8729C47.4309 18.1025 47.1189 18.0115 46.9369 17.8295C46.7419 17.6475 46.6509 17.3875 46.6509 17.0365C46.1439 17.8035 45.4159 18.1805 44.4539 18.1805C43.6999 18.1805 43.1019 18.0115 42.6599 17.6605C42.2049 17.3225 41.9839 16.8415 41.9839 16.2305C41.9839 15.5545 42.2179 15.0215 42.7119 14.6575C43.1929 14.2935 43.8949 14.0985 44.8309 14.0985H46.5079V13.6955C46.5079 13.3315 46.3779 13.0325 46.1179 12.8245C45.8579 12.6165 45.4939 12.4995 45.0389 12.4995C44.6229 12.4995 44.2849 12.5905 44.0249 12.7725C43.7649 12.9545 43.6089 13.1885 43.5569 13.4745H42.1789C42.2439 12.8115 42.5429 12.2915 43.0629 11.9275C43.5829 11.5635 44.2589 11.3685 45.1039 11.3685C45.9879 11.3685 46.6769 11.5765 47.1709 11.9925C47.6519 12.4085 47.8989 13.0065 47.8989 13.7865V16.4125C47.8989 16.7245 48.0419 16.8805 48.3409 16.8805H48.6139ZM46.5079 15.1385H44.7659C44.3239 15.1385 43.9989 15.2295 43.7649 15.3985C43.5309 15.5675 43.4139 15.8145 43.4139 16.1395C43.4139 16.4255 43.5179 16.6595 43.7389 16.8285C43.9599 17.0105 44.2589 17.0885 44.6489 17.0885C45.2209 17.0885 45.6759 16.9325 46.0009 16.6205C46.3259 16.3085 46.4949 15.8925 46.5079 15.3725V15.1385ZM50.4967 15.9055C50.5227 16.2565 50.6787 16.5425 50.9777 16.7635C51.2767 16.9845 51.6667 17.0885 52.1477 17.0885C52.5637 17.0885 52.9147 17.0105 53.1747 16.8545C53.4347 16.6985 53.5777 16.4775 53.5777 16.2045C53.5777 15.9835 53.5127 15.8145 53.3957 15.6975C53.2657 15.5935 53.1097 15.5155 52.9017 15.4635C52.6937 15.4115 52.3817 15.3595 51.9657 15.3075C51.3807 15.2425 50.8997 15.1515 50.5227 15.0345C50.1457 14.9175 49.8467 14.7355 49.6127 14.4755C49.3787 14.2155 49.2747 13.8775 49.2747 13.4355C49.2747 13.0325 49.3787 12.6685 49.6127 12.3565C49.8467 12.0445 50.1587 11.7975 50.5617 11.6155C50.9647 11.4465 51.4197 11.3555 51.9397 11.3555C52.7717 11.3555 53.4607 11.5505 53.9807 11.9145C54.5007 12.2915 54.7867 12.8115 54.8387 13.4875H53.4737C53.4347 13.1885 53.2787 12.9415 53.0187 12.7465C52.7457 12.5515 52.4077 12.4475 52.0047 12.4475C51.5887 12.4475 51.2637 12.5255 51.0167 12.6815C50.7567 12.8375 50.6397 13.0585 50.6397 13.3185C50.6397 13.5265 50.6917 13.6695 50.8217 13.7735C50.9517 13.8775 51.1077 13.9425 51.3027 13.9815C51.4847 14.0205 51.7967 14.0595 52.2257 14.1115C52.7977 14.1765 53.2787 14.2675 53.6687 14.3975C54.0587 14.5275 54.3707 14.7225 54.6047 14.9955C54.8387 15.2685 54.9557 15.6325 54.9557 16.1005C54.9557 16.5165 54.8257 16.8935 54.5917 17.2055C54.3447 17.5175 54.0067 17.7645 53.5907 17.9335C53.1617 18.1025 52.6807 18.1805 52.1607 18.1805C51.2637 18.1805 50.5357 17.9855 49.9897 17.5825C49.4437 17.1795 49.1577 16.6205 49.1447 15.9055H50.4967ZM61.2295 17.5305C60.6835 17.9725 59.9945 18.1805 59.1625 18.1805C58.4995 18.1805 57.9145 18.0505 57.4205 17.7645C56.9135 17.4785 56.5235 17.0755 56.2505 16.5555C55.9775 16.0355 55.8475 15.4375 55.8475 14.7615C55.8475 14.0855 55.9775 13.5005 56.2635 12.9805C56.5365 12.4735 56.9265 12.0835 57.4335 11.7975C57.9405 11.5115 58.5255 11.3685 59.2015 11.3685C60.0335 11.3685 60.7095 11.5895 61.2425 12.0315C61.7625 12.4735 62.1005 13.0585 62.2305 13.8125H60.7875C60.6835 13.4355 60.5015 13.1365 60.2155 12.9025C59.9295 12.6815 59.5785 12.5645 59.1625 12.5645C58.5905 12.5645 58.1355 12.7725 57.7975 13.1755C57.4595 13.5915 57.2905 14.1115 57.2905 14.7615C57.2905 15.4245 57.4595 15.9575 57.7975 16.3735C58.1355 16.7895 58.5905 16.9845 59.1625 16.9845C59.5915 16.9845 59.9555 16.8805 60.2415 16.6465C60.5275 16.4125 60.7095 16.1005 60.8005 15.7105H62.2305C62.1005 16.4905 61.7625 17.0885 61.2295 17.5305ZM67.0352 11.4465V12.7595H66.4112C65.8262 12.7595 65.4102 12.9545 65.1502 13.3315C64.8902 13.7085 64.7602 14.1895 64.7602 14.7615V18.1025H63.3562V11.4465H64.6042L64.7602 12.4475C64.9422 12.1355 65.1892 11.9015 65.5012 11.7195C65.8002 11.5375 66.2032 11.4465 66.7232 11.4465H67.0352ZM69.2395 9.02854C69.3955 9.18454 69.4865 9.39254 69.4865 9.62654C69.4865 9.87354 69.3955 10.0815 69.2395 10.2375C69.0705 10.3935 68.8625 10.4715 68.6285 10.4715C68.3815 10.4715 68.1735 10.3935 68.0175 10.2375C67.8485 10.0815 67.7705 9.87354 67.7705 9.62654C67.7705 9.39254 67.8485 9.18454 68.0175 9.02854C68.1735 8.87254 68.3815 8.78154 68.6285 8.78154C68.8625 8.78154 69.0705 8.87254 69.2395 9.02854ZM67.9265 11.4465H69.3305V18.1025H67.9265V11.4465ZM75.8938 11.7845C76.3618 12.0575 76.7388 12.4475 77.0118 12.9675C77.2718 13.4875 77.4148 14.0855 77.4148 14.7745C77.4148 15.4505 77.2718 16.0485 77.0118 16.5685C76.7388 17.0885 76.3618 17.4785 75.8938 17.7645C75.4128 18.0505 74.8668 18.1805 74.2688 18.1805C73.7748 18.1805 73.3458 18.0895 72.9818 17.9075C72.6178 17.7255 72.3188 17.4785 72.1108 17.1665V20.7025H70.7068V11.4465H71.9288L72.0978 12.4345C72.6308 11.7325 73.3588 11.3685 74.2688 11.3685C74.8668 11.3685 75.4128 11.5115 75.8938 11.7845ZM75.4388 16.3735C75.8028 15.9575 75.9848 15.4245 75.9848 14.7745C75.9848 14.1245 75.8028 13.5915 75.4388 13.1755C75.0748 12.7725 74.6068 12.5645 74.0348 12.5645C73.4498 12.5645 72.9818 12.7725 72.6308 13.1755C72.2668 13.5785 72.0978 14.0985 72.0978 14.7485C72.0978 15.4245 72.2668 15.9575 72.6308 16.3735C72.9818 16.7895 73.4498 16.9975 74.0348 16.9975C74.6068 16.9975 75.0748 16.7895 75.4388 16.3735ZM78.918 12.6815H77.761V11.4465H78.918V9.58754H80.335V11.4465H81.934V12.6815H80.335V16.1525C80.335 16.4125 80.387 16.6075 80.491 16.7115C80.595 16.8155 80.764 16.8675 81.024 16.8675H82.09V18.1025H80.738C80.101 18.1025 79.633 17.9595 79.347 17.6605C79.061 17.3745 78.918 16.9195 78.918 16.2955V12.6815ZM86.3127 9.00254H89.2117C90.1347 9.00254 90.9407 9.19754 91.6427 9.57454C92.3317 9.96454 92.8647 10.4975 93.2417 11.1735C93.6057 11.8625 93.8007 12.6555 93.8007 13.5525C93.8007 14.4495 93.6057 15.2425 93.2417 15.9315C92.8647 16.6205 92.3317 17.1535 91.6427 17.5305C90.9407 17.9205 90.1347 18.1025 89.2117 18.1025H86.3127V9.00254ZM89.2117 16.8025C90.1867 16.8025 90.9407 16.5165 91.4737 15.9315C91.9937 15.3465 92.2667 14.5535 92.2667 13.5525C92.2667 12.5645 91.9937 11.7715 91.4737 11.1865C90.9407 10.6015 90.1867 10.3025 89.2117 10.3025H87.8077V16.8025H89.2117ZM95.1236 12.9935C95.3966 12.4735 95.7736 12.0835 96.2676 11.7975C96.7616 11.5115 97.3206 11.3685 97.9576 11.3685C98.5946 11.3685 99.1536 11.4985 99.6476 11.7585C100.142 12.0185 100.519 12.3955 100.805 12.8635C101.091 13.3445 101.234 13.9035 101.247 14.5405C101.247 14.7225 101.234 14.8915 101.208 15.0735H96.1896V15.1515C96.2156 15.7365 96.3976 16.1915 96.7356 16.5295C97.0606 16.8675 97.5026 17.0365 98.0486 17.0365C98.4776 17.0365 98.8416 16.9455 99.1406 16.7375C99.4266 16.5295 99.6216 16.2435 99.7256 15.8665H101.13C101 16.5425 100.675 17.1015 100.142 17.5305C99.6086 17.9725 98.9456 18.1805 98.1526 18.1805C97.4506 18.1805 96.8526 18.0505 96.3326 17.7645C95.8126 17.4785 95.4226 17.0885 95.1366 16.5685C94.8506 16.0615 94.7206 15.4635 94.7206 14.7875C94.7206 14.1115 94.8506 13.5135 95.1236 12.9935ZM99.8166 14.0465C99.7516 13.5655 99.5566 13.1885 99.2316 12.9155C98.9066 12.6425 98.5036 12.4995 98.0096 12.4995C97.5416 12.4995 97.1516 12.6425 96.8136 12.9285C96.4756 13.2145 96.2936 13.5785 96.2416 14.0465H99.8166ZM101.465 11.4465H102.973L104.806 16.5945L106.613 11.4465H108.095L105.638 18.1025H103.922L101.465 11.4465ZM108.708 12.9935C108.981 12.4735 109.358 12.0835 109.852 11.7975C110.346 11.5115 110.905 11.3685 111.542 11.3685C112.179 11.3685 112.738 11.4985 113.232 11.7585C113.726 12.0185 114.103 12.3955 114.389 12.8635C114.675 13.3445 114.818 13.9035 114.831 14.5405C114.831 14.7225 114.818 14.8915 114.792 15.0735H109.774V15.1515C109.8 15.7365 109.982 16.1915 110.32 16.5295C110.645 16.8675 111.087 17.0365 111.633 17.0365C112.062 17.0365 112.426 16.9455 112.725 16.7375C113.011 16.5295 113.206 16.2435 113.31 15.8665H114.714C114.584 16.5425 114.259 17.1015 113.726 17.5305C113.193 17.9725 112.53 18.1805 111.737 18.1805C111.035 18.1805 110.437 18.0505 109.917 17.7645C109.397 17.4785 109.007 17.0885 108.721 16.5685C108.435 16.0615 108.305 15.4635 108.305 14.7875C108.305 14.1115 108.435 13.5135 108.708 12.9935ZM113.401 14.0465C113.336 13.5655 113.141 13.1885 112.816 12.9155C112.491 12.6425 112.088 12.4995 111.594 12.4995C111.126 12.4995 110.736 12.6425 110.398 12.9285C110.06 13.2145 109.878 13.5785 109.826 14.0465H113.401ZM115.966 9.00254H117.37V18.1025H115.966V9.00254ZM120.111 17.7645C119.591 17.4785 119.201 17.0885 118.915 16.5685C118.629 16.0485 118.499 15.4505 118.499 14.7745C118.499 14.1115 118.629 13.5265 118.915 13.0065C119.201 12.4865 119.591 12.0835 120.111 11.7975C120.631 11.5115 121.216 11.3685 121.892 11.3685C122.555 11.3685 123.14 11.5115 123.66 11.7975C124.18 12.0835 124.57 12.4865 124.856 13.0065C125.142 13.5265 125.285 14.1115 125.285 14.7745C125.285 15.4505 125.142 16.0485 124.856 16.5685C124.57 17.0885 124.18 17.4785 123.66 17.7645C123.14 18.0505 122.555 18.1805 121.892 18.1805C121.216 18.1805 120.631 18.0505 120.111 17.7645ZM123.309 16.3735C123.673 15.9575 123.855 15.4245 123.855 14.7745C123.855 14.1245 123.673 13.6045 123.309 13.1885C122.945 12.7725 122.477 12.5645 121.892 12.5645C121.294 12.5645 120.826 12.7725 120.475 13.1885C120.111 13.6045 119.942 14.1245 119.942 14.7745C119.942 15.4245 120.111 15.9575 120.475 16.3735C120.826 16.7895 121.294 16.9845 121.892 16.9845C122.477 16.9845 122.945 16.7895 123.309 16.3735ZM131.601 11.7845C132.069 12.0575 132.446 12.4475 132.719 12.9675C132.979 13.4875 133.122 14.0855 133.122 14.7745C133.122 15.4505 132.979 16.0485 132.719 16.5685C132.446 17.0885 132.069 17.4785 131.601 17.7645C131.12 18.0505 130.574 18.1805 129.976 18.1805C129.482 18.1805 129.053 18.0895 128.689 17.9075C128.325 17.7255 128.026 17.4785 127.818 17.1665V20.7025H126.414V11.4465H127.636L127.805 12.4345C128.338 11.7325 129.066 11.3685 129.976 11.3685C130.574 11.3685 131.12 11.5115 131.601 11.7845ZM131.146 16.3735C131.51 15.9575 131.692 15.4245 131.692 14.7745C131.692 14.1245 131.51 13.5915 131.146 13.1755C130.782 12.7725 130.314 12.5645 129.742 12.5645C129.157 12.5645 128.689 12.7725 128.338 13.1755C127.974 13.5785 127.805 14.0985 127.805 14.7485C127.805 15.4245 127.974 15.9575 128.338 16.3735C128.689 16.7895 129.157 16.9975 129.742 16.9975C130.314 16.9975 130.782 16.7895 131.146 16.3735ZM134.403 12.9935C134.676 12.4735 135.053 12.0835 135.547 11.7975C136.041 11.5115 136.6 11.3685 137.237 11.3685C137.874 11.3685 138.433 11.4985 138.927 11.7585C139.421 12.0185 139.798 12.3955 140.084 12.8635C140.37 13.3445 140.513 13.9035 140.526 14.5405C140.526 14.7225 140.513 14.8915 140.487 15.0735H135.469V15.1515C135.495 15.7365 135.677 16.1915 136.015 16.5295C136.34 16.8675 136.782 17.0365 137.328 17.0365C137.757 17.0365 138.121 16.9455 138.42 16.7375C138.706 16.5295 138.901 16.2435 139.005 15.8665H140.409C140.279 16.5425 139.954 17.1015 139.421 17.5305C138.888 17.9725 138.225 18.1805 137.432 18.1805C136.73 18.1805 136.132 18.0505 135.612 17.7645C135.092 17.4785 134.702 17.0885 134.416 16.5685C134.13 16.0615 134 15.4635 134 14.7875C134 14.1115 134.13 13.5135 134.403 12.9935ZM139.096 14.0465C139.031 13.5655 138.836 13.1885 138.511 12.9155C138.186 12.6425 137.783 12.4995 137.289 12.4995C136.821 12.4995 136.431 12.6425 136.093 12.9285C135.755 13.2145 135.573 13.5785 135.521 14.0465H139.096ZM145.34 11.4465V12.7595H144.716C144.131 12.7595 143.715 12.9545 143.455 13.3315C143.195 13.7085 143.065 14.1895 143.065 14.7615V18.1025H141.661V11.4465H142.909L143.065 12.4475C143.247 12.1355 143.494 11.9015 143.806 11.7195C144.105 11.5375 144.508 11.4465 145.028 11.4465H145.34Z" fill="black" fill-opacity="0.7"/>
</svg>
