<svg width="128" height="24" viewBox="0 0 128 24" fill="none" xmlns="http://www.w3.org/2000/svg">
<rect x="1.61838" y="0.901855" width="123.487" height="22.2804" rx="3.56698" fill="#FF2D20" fill-opacity="0.1"/>
<rect x="1.26168" y="0.545158" width="124.2" height="22.9938" rx="3.92367" stroke="#FF2D20" stroke-opacity="0.2" stroke-width="0.713395"/>
<path d="M6.5701 6.40605C5.957 6.4873 5.35375 6.82709 4.95979 7.31462C4.75296 7.56823 4.56829 7.93264 4.47719 8.26258L4.41071 8.5088V12.0421V15.5754L4.47719 15.8217C4.7505 16.809 5.54088 17.5182 6.53316 17.6684C6.89265 17.7225 13.2305 17.7225 13.59 17.6684C14.5822 17.5182 15.3726 16.809 15.6459 15.8217L15.7124 15.5754V12.0421V8.5088L15.6459 8.26258C15.3997 7.37617 14.7275 6.70152 13.8411 6.46022L13.5949 6.39127L10.16 6.38881C8.27151 6.38635 6.65627 6.39373 6.5701 6.40605ZM10.8643 9.81626C10.9627 9.86304 11.0711 10.0305 11.0711 10.1363C11.0711 10.2595 9.77594 14.1104 9.71192 14.1769C9.58881 14.3099 9.41891 14.3443 9.25887 14.268C9.16038 14.2212 9.05204 14.0538 9.05204 13.9479C9.05204 13.847 10.3447 9.97876 10.3989 9.91721C10.522 9.77932 10.7042 9.73993 10.8643 9.81626ZM8.26904 10.417C8.38969 10.4515 8.50296 10.5672 8.53497 10.6904C8.58421 10.875 8.5522 10.9243 7.97358 11.5054L7.44173 12.0421L7.97358 12.5764C8.36507 12.9729 8.51281 13.1378 8.53251 13.2043C8.61868 13.4678 8.33799 13.7509 8.07207 13.6647C8.00312 13.645 7.81107 13.4678 7.29646 12.9556C6.91973 12.5814 6.59472 12.2465 6.57502 12.2096C6.5307 12.1234 6.5307 11.9609 6.57502 11.8747C6.63411 11.7639 7.94649 10.4712 8.04252 10.4318C8.14593 10.3875 8.15332 10.385 8.26904 10.417ZM12.0757 10.4294C12.1742 10.4712 13.4841 11.7565 13.5481 11.8747C13.5924 11.9609 13.5924 12.1234 13.5481 12.2096C13.5284 12.2465 13.2034 12.5814 12.8267 12.9556C12.3121 13.4678 12.12 13.645 12.0511 13.6647C11.7851 13.7509 11.5044 13.4678 11.5906 13.2043C11.6103 13.1378 11.758 12.9729 12.1495 12.5764L12.6814 12.0421L12.1495 11.5054C11.5709 10.9243 11.5389 10.875 11.5882 10.6904C11.6202 10.5722 11.7334 10.4515 11.8418 10.4195C11.955 10.3875 11.9723 10.3875 12.0757 10.4294Z" fill="#FF2D20"/>
<path d="M23.8844 18.042V8.94199H25.3794V16.716H29.2924V18.042H23.8844ZM36.5606 16.82V18.042H35.8196C35.3776 18.042 35.0656 17.951 34.8836 17.769C34.6886 17.587 34.5976 17.327 34.5976 16.976C34.0906 17.743 33.3626 18.12 32.4006 18.12C31.6466 18.12 31.0486 17.951 30.6066 17.6C30.1516 17.262 29.9306 16.781 29.9306 16.17C29.9306 15.494 30.1646 14.961 30.6586 14.597C31.1396 14.233 31.8416 14.038 32.7776 14.038H34.4546V13.635C34.4546 13.271 34.3246 12.972 34.0646 12.764C33.8046 12.556 33.4406 12.439 32.9856 12.439C32.5696 12.439 32.2316 12.53 31.9716 12.712C31.7116 12.894 31.5556 13.128 31.5036 13.414H30.1256C30.1906 12.751 30.4896 12.231 31.0096 11.867C31.5296 11.503 32.2056 11.308 33.0506 11.308C33.9346 11.308 34.6236 11.516 35.1176 11.932C35.5986 12.348 35.8456 12.946 35.8456 13.726V16.352C35.8456 16.664 35.9886 16.82 36.2876 16.82H36.5606ZM34.4546 15.078H32.7126C32.2706 15.078 31.9456 15.169 31.7116 15.338C31.4776 15.507 31.3606 15.754 31.3606 16.079C31.3606 16.365 31.4646 16.599 31.6856 16.768C31.9066 16.95 32.2056 17.028 32.5956 17.028C33.1676 17.028 33.6226 16.872 33.9476 16.56C34.2726 16.248 34.4416 15.832 34.4546 15.312V15.078ZM41.0044 11.386V12.699H40.3804C39.7954 12.699 39.3794 12.894 39.1194 13.271C38.8594 13.648 38.7294 14.129 38.7294 14.701V18.042H37.3254V11.386H38.5734L38.7294 12.387C38.9114 12.075 39.1584 11.841 39.4704 11.659C39.7694 11.477 40.1724 11.386 40.6924 11.386H41.0044ZM48.0118 16.82V18.042H47.2708C46.8288 18.042 46.5168 17.951 46.3348 17.769C46.1398 17.587 46.0488 17.327 46.0488 16.976C45.5418 17.743 44.8138 18.12 43.8518 18.12C43.0978 18.12 42.4998 17.951 42.0578 17.6C41.6028 17.262 41.3818 16.781 41.3818 16.17C41.3818 15.494 41.6158 14.961 42.1098 14.597C42.5908 14.233 43.2928 14.038 44.2288 14.038H45.9058V13.635C45.9058 13.271 45.7758 12.972 45.5158 12.764C45.2558 12.556 44.8918 12.439 44.4368 12.439C44.0208 12.439 43.6828 12.53 43.4228 12.712C43.1628 12.894 43.0068 13.128 42.9548 13.414H41.5768C41.6418 12.751 41.9408 12.231 42.4608 11.867C42.9808 11.503 43.6568 11.308 44.5018 11.308C45.3858 11.308 46.0748 11.516 46.5688 11.932C47.0498 12.348 47.2968 12.946 47.2968 13.726V16.352C47.2968 16.664 47.4398 16.82 47.7388 16.82H48.0118ZM45.9058 15.078H44.1638C43.7218 15.078 43.3968 15.169 43.1628 15.338C42.9288 15.507 42.8118 15.754 42.8118 16.079C42.8118 16.365 42.9158 16.599 43.1368 16.768C43.3578 16.95 43.6568 17.028 44.0468 17.028C44.6188 17.028 45.0738 16.872 45.3988 16.56C45.7238 16.248 45.8928 15.832 45.9058 15.312V15.078ZM47.9105 11.386H49.4185L51.2515 16.534L53.0585 11.386H54.5405L52.0835 18.042H50.3675L47.9105 11.386ZM55.1533 12.933C55.4263 12.413 55.8033 12.023 56.2973 11.737C56.7913 11.451 57.3503 11.308 57.9873 11.308C58.6243 11.308 59.1833 11.438 59.6773 11.698C60.1713 11.958 60.5483 12.335 60.8343 12.803C61.1203 13.284 61.2633 13.843 61.2763 14.48C61.2763 14.662 61.2633 14.831 61.2373 15.013H56.2193V15.091C56.2453 15.676 56.4273 16.131 56.7653 16.469C57.0903 16.807 57.5323 16.976 58.0783 16.976C58.5073 16.976 58.8713 16.885 59.1703 16.677C59.4563 16.469 59.6513 16.183 59.7553 15.806H61.1593C61.0293 16.482 60.7043 17.041 60.1713 17.47C59.6383 17.912 58.9753 18.12 58.1823 18.12C57.4803 18.12 56.8823 17.99 56.3623 17.704C55.8423 17.418 55.4523 17.028 55.1663 16.508C54.8803 16.001 54.7503 15.403 54.7503 14.727C54.7503 14.051 54.8803 13.453 55.1533 12.933ZM59.8463 13.986C59.7813 13.505 59.5863 13.128 59.2613 12.855C58.9363 12.582 58.5333 12.439 58.0393 12.439C57.5713 12.439 57.1813 12.582 56.8433 12.868C56.5053 13.154 56.3233 13.518 56.2713 13.986H59.8463ZM62.4114 8.94199H63.8154V18.042H62.4114V8.94199ZM68.6608 8.94199H71.5598C72.4828 8.94199 73.2888 9.13699 73.9908 9.51399C74.6798 9.90399 75.2128 10.437 75.5898 11.113C75.9538 11.802 76.1488 12.595 76.1488 13.492C76.1488 14.389 75.9538 15.182 75.5898 15.871C75.2128 16.56 74.6798 17.093 73.9908 17.47C73.2888 17.86 72.4828 18.042 71.5598 18.042H68.6608V8.94199ZM71.5598 16.742C72.5348 16.742 73.2888 16.456 73.8218 15.871C74.3418 15.286 74.6148 14.493 74.6148 13.492C74.6148 12.504 74.3418 11.711 73.8218 11.126C73.2888 10.541 72.5348 10.242 71.5598 10.242H70.1558V16.742H71.5598ZM77.4716 12.933C77.7446 12.413 78.1216 12.023 78.6156 11.737C79.1096 11.451 79.6686 11.308 80.3056 11.308C80.9426 11.308 81.5016 11.438 81.9956 11.698C82.4896 11.958 82.8666 12.335 83.1526 12.803C83.4386 13.284 83.5816 13.843 83.5946 14.48C83.5946 14.662 83.5816 14.831 83.5556 15.013H78.5376V15.091C78.5636 15.676 78.7456 16.131 79.0836 16.469C79.4086 16.807 79.8506 16.976 80.3966 16.976C80.8256 16.976 81.1896 16.885 81.4886 16.677C81.7746 16.469 81.9696 16.183 82.0736 15.806H83.4776C83.3476 16.482 83.0226 17.041 82.4896 17.47C81.9566 17.912 81.2936 18.12 80.5006 18.12C79.7986 18.12 79.2006 17.99 78.6806 17.704C78.1606 17.418 77.7706 17.028 77.4846 16.508C77.1986 16.001 77.0686 15.403 77.0686 14.727C77.0686 14.051 77.1986 13.453 77.4716 12.933ZM82.1646 13.986C82.0996 13.505 81.9046 13.128 81.5796 12.855C81.2546 12.582 80.8516 12.439 80.3576 12.439C79.8896 12.439 79.4996 12.582 79.1616 12.868C78.8236 13.154 78.6416 13.518 78.5896 13.986H82.1646ZM83.8128 11.386H85.3208L87.1538 16.534L88.9608 11.386H90.4428L87.9858 18.042H86.2698L83.8128 11.386ZM91.0556 12.933C91.3286 12.413 91.7056 12.023 92.1996 11.737C92.6936 11.451 93.2526 11.308 93.8896 11.308C94.5266 11.308 95.0856 11.438 95.5796 11.698C96.0736 11.958 96.4506 12.335 96.7366 12.803C97.0226 13.284 97.1656 13.843 97.1786 14.48C97.1786 14.662 97.1656 14.831 97.1396 15.013H92.1216V15.091C92.1476 15.676 92.3296 16.131 92.6676 16.469C92.9926 16.807 93.4346 16.976 93.9806 16.976C94.4096 16.976 94.7736 16.885 95.0726 16.677C95.3586 16.469 95.5536 16.183 95.6576 15.806H97.0616C96.9316 16.482 96.6066 17.041 96.0736 17.47C95.5406 17.912 94.8776 18.12 94.0846 18.12C93.3826 18.12 92.7846 17.99 92.2646 17.704C91.7446 17.418 91.3546 17.028 91.0686 16.508C90.7826 16.001 90.6526 15.403 90.6526 14.727C90.6526 14.051 90.7826 13.453 91.0556 12.933ZM95.7486 13.986C95.6836 13.505 95.4886 13.128 95.1636 12.855C94.8386 12.582 94.4356 12.439 93.9416 12.439C93.4736 12.439 93.0836 12.582 92.7456 12.868C92.4076 13.154 92.2256 13.518 92.1736 13.986H95.7486ZM98.3137 8.94199L99.7177 8.94199V18.042H98.3137V8.94199ZM102.459 17.704C101.939 17.418 101.549 17.028 101.263 16.508C100.977 15.988 100.847 15.39 100.847 14.714C100.847 14.051 100.977 13.466 101.263 12.946C101.549 12.426 101.939 12.023 102.459 11.737C102.979 11.451 103.564 11.308 104.24 11.308C104.903 11.308 105.488 11.451 106.008 11.737C106.528 12.023 106.918 12.426 107.204 12.946C107.49 13.466 107.633 14.051 107.633 14.714C107.633 15.39 107.49 15.988 107.204 16.508C106.918 17.028 106.528 17.418 106.008 17.704C105.488 17.99 104.903 18.12 104.24 18.12C103.564 18.12 102.979 17.99 102.459 17.704ZM105.657 16.313C106.021 15.897 106.203 15.364 106.203 14.714C106.203 14.064 106.021 13.544 105.657 13.128C105.293 12.712 104.825 12.504 104.24 12.504C103.642 12.504 103.174 12.712 102.823 13.128C102.459 13.544 102.29 14.064 102.29 14.714C102.29 15.364 102.459 15.897 102.823 16.313C103.174 16.729 103.642 16.924 104.24 16.924C104.825 16.924 105.293 16.729 105.657 16.313ZM113.949 11.724C114.417 11.997 114.794 12.387 115.067 12.907C115.327 13.427 115.47 14.025 115.47 14.714C115.47 15.39 115.327 15.988 115.067 16.508C114.794 17.028 114.417 17.418 113.949 17.704C113.468 17.99 112.922 18.12 112.324 18.12C111.83 18.12 111.401 18.029 111.037 17.847C110.673 17.665 110.374 17.418 110.166 17.106V20.642H108.762V11.386H109.984L110.153 12.374C110.686 11.672 111.414 11.308 112.324 11.308C112.922 11.308 113.468 11.451 113.949 11.724ZM113.494 16.313C113.858 15.897 114.04 15.364 114.04 14.714C114.04 14.064 113.858 13.531 113.494 13.115C113.13 12.712 112.662 12.504 112.09 12.504C111.505 12.504 111.037 12.712 110.686 13.115C110.322 13.518 110.153 14.038 110.153 14.688C110.153 15.364 110.322 15.897 110.686 16.313C111.037 16.729 111.505 16.937 112.09 16.937C112.662 16.937 113.13 16.729 113.494 16.313ZM116.751 12.933C117.024 12.413 117.401 12.023 117.895 11.737C118.389 11.451 118.948 11.308 119.585 11.308C120.222 11.308 120.781 11.438 121.275 11.698C121.769 11.958 122.146 12.335 122.432 12.803C122.718 13.284 122.861 13.843 122.874 14.48C122.874 14.662 122.861 14.831 122.835 15.013H117.817V15.091C117.843 15.676 118.025 16.131 118.363 16.469C118.688 16.807 119.13 16.976 119.676 16.976C120.105 16.976 120.469 16.885 120.768 16.677C121.054 16.469 121.249 16.183 121.353 15.806H122.757C122.627 16.482 122.302 17.041 121.769 17.47C121.236 17.912 120.573 18.12 119.78 18.12C119.078 18.12 118.48 17.99 117.96 17.704C117.44 17.418 117.05 17.028 116.764 16.508C116.478 16.001 116.348 15.403 116.348 14.727C116.348 14.051 116.478 13.453 116.751 12.933ZM121.444 13.986C121.379 13.505 121.184 13.128 120.859 12.855C120.534 12.582 120.131 12.439 119.637 12.439C119.169 12.439 118.779 12.582 118.441 12.868C118.103 13.154 117.921 13.518 117.869 13.986H121.444ZM127.688 11.386V12.699H127.064C126.479 12.699 126.063 12.894 125.803 13.271C125.543 13.648 125.413 14.129 125.413 14.701V18.042H124.009V11.386H125.257L125.413 12.387C125.595 12.075 125.842 11.841 126.154 11.659C126.453 11.477 126.856 11.386 127.376 11.386H127.688Z" fill="black" fill-opacity="0.7"/>
</svg>
