<svg width="130" height="25" viewBox="0 0 130 25" fill="none" xmlns="http://www.w3.org/2000/svg">
<rect x="1.00372" y="1.14111" width="125.487" height="22.2804" rx="3.56698" fill="#84CE24" fill-opacity="0.1"/>
<rect x="0.647025" y="0.784416" width="126.2" height="22.9938" rx="3.92367" stroke="#84CE24" stroke-opacity="0.2" stroke-width="0.713395"/>
<g clip-path="url(#clip0_788_673)">
<path d="M5.95547 6.6453C5.34237 6.72656 4.73912 7.06635 4.34516 7.55387C4.13833 7.80748 3.95367 8.1719 3.86256 8.50184L3.79608 8.74806V12.2814V15.8147L3.86256 16.0609C4.13587 17.0483 4.92625 17.7574 5.91854 17.9076C6.27803 17.9618 12.6158 17.9618 12.9753 17.9076C13.9676 17.7574 14.758 17.0483 15.0313 16.0609L15.0978 15.8147V12.2814V8.74806L15.0313 8.50184C14.7851 7.61543 14.1129 6.94077 13.2265 6.69947L12.9803 6.63053L9.54543 6.62807C7.65688 6.62561 6.04165 6.63299 5.95547 6.6453ZM10.2496 10.0555C10.3481 10.1023 10.4565 10.2697 10.4565 10.3756C10.4565 10.4987 9.16131 14.3497 9.0973 14.4162C8.97418 14.5491 8.80429 14.5836 8.64424 14.5073C8.54575 14.4605 8.43741 14.293 8.43741 14.1872C8.43741 14.0862 9.73009 10.218 9.78426 10.1565C9.90738 10.0186 10.0896 9.97918 10.2496 10.0555ZM7.65442 10.6563C7.77507 10.6908 7.88833 10.8065 7.92034 10.9296C7.96959 11.1143 7.93758 11.1635 7.35895 11.7446L6.82711 12.2814L7.35895 12.8157C7.75045 13.2121 7.89818 13.3771 7.91788 13.4436C8.00406 13.707 7.72336 13.9902 7.45744 13.904C7.3885 13.8843 7.19644 13.707 6.68183 13.1949C6.30511 12.8206 5.98009 12.4858 5.9604 12.4488C5.91608 12.3626 5.91608 12.2001 5.9604 12.114C6.01949 12.0032 7.33187 10.7105 7.42789 10.6711C7.53131 10.6268 7.5387 10.6243 7.65442 10.6563ZM11.4611 10.6686C11.5595 10.7105 12.8695 11.9958 12.9335 12.114C12.9778 12.2001 12.9778 12.3626 12.9335 12.4488C12.9138 12.4858 12.5888 12.8206 12.212 13.1949C11.6974 13.707 11.5054 13.8843 11.4364 13.904C11.1705 13.9902 10.8898 13.707 10.976 13.4436C10.9957 13.3771 11.1434 13.2121 11.5349 12.8157L12.0668 12.2814L11.5349 11.7446C10.9563 11.1635 10.9243 11.1143 10.9735 10.9296C11.0055 10.8114 11.1188 10.6908 11.2271 10.6588C11.3404 10.6268 11.3576 10.6268 11.4611 10.6686Z" fill="#84CE24"/>
</g>
<path d="M23.4241 18.2812V9.18125H24.7891L29.2221 15.6292V9.18125H30.6911V18.2812H29.3261L24.8931 11.8332V18.2812H23.4241ZM33.5709 17.9432C33.0509 17.6572 32.6609 17.2672 32.3749 16.7472C32.0889 16.2272 31.9589 15.6292 31.9589 14.9532C31.9589 14.2902 32.0889 13.7052 32.3749 13.1852C32.6609 12.6652 33.0509 12.2622 33.5709 11.9762C34.0909 11.6902 34.6759 11.5472 35.3519 11.5472C36.0149 11.5472 36.5999 11.6902 37.1199 11.9762C37.6399 12.2622 38.0299 12.6652 38.3159 13.1852C38.6019 13.7052 38.7449 14.2902 38.7449 14.9532C38.7449 15.6292 38.6019 16.2272 38.3159 16.7472C38.0299 17.2672 37.6399 17.6572 37.1199 17.9432C36.5999 18.2292 36.0149 18.3593 35.3519 18.3593C34.6759 18.3593 34.0909 18.2292 33.5709 17.9432ZM36.7689 16.5522C37.1329 16.1362 37.3149 15.6032 37.3149 14.9532C37.3149 14.3032 37.1329 13.7832 36.7689 13.3672C36.4049 12.9512 35.9369 12.7432 35.3519 12.7432C34.7539 12.7432 34.2859 12.9512 33.9349 13.3672C33.5709 13.7832 33.4019 14.3032 33.4019 14.9532C33.4019 15.6032 33.5709 16.1362 33.9349 16.5522C34.2859 16.9682 34.7539 17.1632 35.3519 17.1632C35.9369 17.1632 36.4049 16.9682 36.7689 16.5522ZM46.3349 9.18125V18.2812H45.1129L44.9439 17.2802C44.4109 18.0082 43.6829 18.3593 42.7729 18.3593C42.1619 18.3593 41.6159 18.2292 41.1479 17.9562C40.6669 17.6832 40.2899 17.2932 40.0299 16.7732C39.7569 16.2532 39.6269 15.6552 39.6269 14.9532C39.6269 14.2772 39.7569 13.6922 40.0299 13.1722C40.3029 12.6522 40.6799 12.2622 41.1609 11.9762C41.6289 11.6902 42.1749 11.5472 42.7729 11.5472C43.2539 11.5472 43.6829 11.6382 44.0469 11.8202C44.4109 12.0022 44.6969 12.2362 44.9309 12.5482V9.18125H46.3349ZM44.4109 16.5653C44.7619 16.1622 44.9439 15.6292 44.9439 14.9792C44.9439 14.3162 44.7619 13.7832 44.4109 13.3672C44.0469 12.9512 43.5789 12.7432 43.0069 12.7432C42.4219 12.7432 41.9539 12.9512 41.6029 13.3672C41.2389 13.7832 41.0699 14.3032 41.0699 14.9532C41.0699 15.6162 41.2389 16.1492 41.6029 16.5653C41.9539 16.9812 42.4219 17.1762 43.0069 17.1762C43.5789 17.1762 44.0469 16.9812 44.4109 16.5653ZM47.8629 13.1722C48.1359 12.6522 48.5129 12.2622 49.0069 11.9762C49.5009 11.6902 50.0599 11.5472 50.6969 11.5472C51.3339 11.5472 51.8929 11.6772 52.3869 11.9372C52.8809 12.1972 53.2579 12.5742 53.5439 13.0422C53.8299 13.5232 53.9729 14.0822 53.9859 14.7192C53.9859 14.9012 53.9729 15.0702 53.9469 15.2522H48.9289V15.3302C48.9549 15.9152 49.1369 16.3703 49.4749 16.7082C49.7999 17.0462 50.2419 17.2152 50.7879 17.2152C51.2169 17.2152 51.5809 17.1242 51.8799 16.9162C52.1659 16.7082 52.3609 16.4222 52.4649 16.0452H53.8689C53.7389 16.7212 53.4139 17.2802 52.8809 17.7092C52.3479 18.1512 51.6849 18.3593 50.8919 18.3593C50.1899 18.3593 49.5919 18.2292 49.0719 17.9432C48.5519 17.6572 48.1619 17.2672 47.8759 16.7472C47.5899 16.2402 47.4599 15.6422 47.4599 14.9662C47.4599 14.2902 47.5899 13.6922 47.8629 13.1722ZM52.5559 14.2252C52.4909 13.7442 52.2959 13.3672 51.9709 13.0942C51.6459 12.8212 51.2429 12.6782 50.7489 12.6782C50.2809 12.6782 49.8909 12.8212 49.5529 13.1072C49.2149 13.3932 49.0329 13.7572 48.9809 14.2252H52.5559ZM54.8317 16.8382C55.0007 16.6822 55.2217 16.5912 55.4817 16.5912C55.7417 16.5912 55.9497 16.6822 56.1317 16.8382C56.3007 17.0072 56.3917 17.2152 56.3917 17.4752C56.3917 17.7352 56.3007 17.9562 56.1317 18.1122C55.9497 18.2812 55.7417 18.3593 55.4817 18.3593C55.2217 18.3593 55.0007 18.2812 54.8317 18.1122C54.6627 17.9562 54.5847 17.7352 54.5847 17.4752C54.5847 17.2152 54.6627 17.0072 54.8317 16.8382ZM59.2411 9.20725C59.3971 9.36325 59.4881 9.57125 59.4881 9.80525C59.4881 10.0522 59.3971 10.2602 59.2411 10.4162C59.0851 10.5722 58.8771 10.6502 58.6431 10.6502C58.3831 10.6502 58.1751 10.5722 58.0191 10.4162C57.8631 10.2602 57.7851 10.0522 57.7851 9.80525C57.7851 9.57125 57.8631 9.36325 58.0321 9.20725C58.1881 9.05125 58.3961 8.96025 58.6431 8.96025C58.8771 8.96025 59.0851 9.05125 59.2411 9.20725ZM57.2391 19.6463C57.4731 19.6463 57.6551 19.5943 57.7721 19.4773C57.8761 19.3603 57.9411 19.1783 57.9411 18.9183V11.6252H59.3451V19.0223C59.3451 20.2703 58.7341 20.8813 57.5251 20.8813H56.4851V19.6463H57.2391ZM61.8249 16.0842C61.8509 16.4352 62.0069 16.7212 62.3059 16.9422C62.6049 17.1632 62.9949 17.2672 63.4759 17.2672C63.8919 17.2672 64.2429 17.1892 64.5029 17.0332C64.7629 16.8772 64.9059 16.6562 64.9059 16.3832C64.9059 16.1622 64.8409 15.9932 64.7239 15.8762C64.5939 15.7722 64.4379 15.6942 64.2299 15.6422C64.0219 15.5902 63.7099 15.5382 63.2939 15.4862C62.7089 15.4212 62.2279 15.3302 61.8509 15.2132C61.4739 15.0962 61.1749 14.9142 60.9409 14.6542C60.7069 14.3942 60.6029 14.0562 60.6029 13.6142C60.6029 13.2112 60.7069 12.8472 60.9409 12.5352C61.1749 12.2232 61.4869 11.9762 61.8899 11.7942C62.2929 11.6252 62.7479 11.5342 63.2679 11.5342C64.0999 11.5342 64.7889 11.7292 65.3089 12.0932C65.8289 12.4702 66.1149 12.9902 66.1669 13.6662H64.8019C64.7629 13.3672 64.6069 13.1202 64.3469 12.9252C64.0739 12.7302 63.7359 12.6262 63.3329 12.6262C62.9169 12.6262 62.5919 12.7042 62.3449 12.8602C62.0849 13.0162 61.9679 13.2372 61.9679 13.4972C61.9679 13.7052 62.0199 13.8482 62.1499 13.9522C62.2799 14.0562 62.4359 14.1212 62.6309 14.1602C62.8129 14.1992 63.1249 14.2382 63.5539 14.2902C64.1259 14.3552 64.6069 14.4462 64.9969 14.5762C65.3869 14.7062 65.6989 14.9012 65.9329 15.1742C66.1669 15.4472 66.2839 15.8112 66.2839 16.2792C66.2839 16.6952 66.1539 17.0722 65.9199 17.3842C65.6729 17.6962 65.3349 17.9432 64.9189 18.1122C64.4899 18.2812 64.0089 18.3593 63.4889 18.3593C62.5919 18.3593 61.8639 18.1642 61.3179 17.7612C60.7719 17.3582 60.4859 16.7992 60.4729 16.0842H61.8249ZM70.8919 9.18125H73.7909C74.7139 9.18125 75.5199 9.37625 76.2219 9.75325C76.9109 10.1432 77.4439 10.6762 77.8209 11.3522C78.1849 12.0412 78.3799 12.8342 78.3799 13.7312C78.3799 14.6282 78.1849 15.4212 77.8209 16.1102C77.4439 16.7992 76.9109 17.3322 76.2219 17.7092C75.5199 18.0992 74.7139 18.2812 73.7909 18.2812H70.8919V9.18125ZM73.7909 16.9812C74.7659 16.9812 75.5199 16.6952 76.0529 16.1102C76.5729 15.5252 76.8459 14.7322 76.8459 13.7312C76.8459 12.7432 76.5729 11.9502 76.0529 11.3652C75.5199 10.7802 74.7659 10.4812 73.7909 10.4812H72.3869V16.9812H73.7909ZM79.7027 13.1722C79.9757 12.6522 80.3527 12.2622 80.8467 11.9762C81.3407 11.6902 81.8997 11.5472 82.5367 11.5472C83.1737 11.5472 83.7327 11.6772 84.2267 11.9372C84.7207 12.1972 85.0977 12.5742 85.3837 13.0422C85.6697 13.5232 85.8127 14.0822 85.8257 14.7192C85.8257 14.9012 85.8127 15.0702 85.7867 15.2522H80.7687V15.3302C80.7947 15.9152 80.9767 16.3703 81.3147 16.7082C81.6397 17.0462 82.0817 17.2152 82.6277 17.2152C83.0567 17.2152 83.4207 17.1242 83.7197 16.9162C84.0057 16.7082 84.2007 16.4222 84.3047 16.0452H85.7087C85.5787 16.7212 85.2537 17.2802 84.7207 17.7092C84.1877 18.1512 83.5247 18.3593 82.7317 18.3593C82.0297 18.3593 81.4317 18.2292 80.9117 17.9432C80.3917 17.6572 80.0017 17.2672 79.7157 16.7472C79.4297 16.2402 79.2997 15.6422 79.2997 14.9662C79.2997 14.2902 79.4297 13.6922 79.7027 13.1722ZM84.3957 14.2252C84.3307 13.7442 84.1357 13.3672 83.8107 13.0942C83.4857 12.8212 83.0827 12.6782 82.5887 12.6782C82.1207 12.6782 81.7307 12.8212 81.3927 13.1072C81.0547 13.3932 80.8727 13.7572 80.8207 14.2252H84.3957ZM86.0439 11.6252H87.5519L89.3849 16.7732L91.1919 11.6252H92.6739L90.2169 18.2812H88.5009L86.0439 11.6252ZM93.2867 13.1722C93.5597 12.6522 93.9367 12.2622 94.4307 11.9762C94.9247 11.6902 95.4837 11.5472 96.1207 11.5472C96.7577 11.5472 97.3167 11.6772 97.8107 11.9372C98.3047 12.1972 98.6817 12.5742 98.9677 13.0422C99.2537 13.5232 99.3967 14.0822 99.4097 14.7192C99.4097 14.9012 99.3967 15.0702 99.3707 15.2522H94.3527V15.3302C94.3787 15.9152 94.5607 16.3703 94.8987 16.7082C95.2237 17.0462 95.6657 17.2152 96.2117 17.2152C96.6407 17.2152 97.0047 17.1242 97.3037 16.9162C97.5897 16.7082 97.7847 16.4222 97.8887 16.0452H99.2927C99.1627 16.7212 98.8377 17.2802 98.3047 17.7092C97.7717 18.1512 97.1087 18.3593 96.3157 18.3593C95.6137 18.3593 95.0157 18.2292 94.4957 17.9432C93.9757 17.6572 93.5857 17.2672 93.2997 16.7472C93.0137 16.2402 92.8837 15.6422 92.8837 14.9662C92.8837 14.2902 93.0137 13.6922 93.2867 13.1722ZM97.9797 14.2252C97.9147 13.7442 97.7197 13.3672 97.3947 13.0942C97.0697 12.8212 96.6667 12.6782 96.1727 12.6782C95.7047 12.6782 95.3147 12.8212 94.9767 13.1072C94.6387 13.3932 94.4567 13.7572 94.4047 14.2252H97.9797ZM100.545 9.18125H101.949V18.2812H100.545V9.18125ZM104.69 17.9432C104.17 17.6572 103.78 17.2672 103.494 16.7472C103.208 16.2272 103.078 15.6292 103.078 14.9532C103.078 14.2902 103.208 13.7052 103.494 13.1852C103.78 12.6652 104.17 12.2622 104.69 11.9762C105.21 11.6902 105.795 11.5472 106.471 11.5472C107.134 11.5472 107.719 11.6902 108.239 11.9762C108.759 12.2622 109.149 12.6652 109.435 13.1852C109.721 13.7052 109.864 14.2902 109.864 14.9532C109.864 15.6292 109.721 16.2272 109.435 16.7472C109.149 17.2672 108.759 17.6572 108.239 17.9432C107.719 18.2292 107.134 18.3593 106.471 18.3593C105.795 18.3593 105.21 18.2292 104.69 17.9432ZM107.888 16.5522C108.252 16.1362 108.434 15.6032 108.434 14.9532C108.434 14.3032 108.252 13.7832 107.888 13.3672C107.524 12.9512 107.056 12.7432 106.471 12.7432C105.873 12.7432 105.405 12.9512 105.054 13.3672C104.69 13.7832 104.521 14.3032 104.521 14.9532C104.521 15.6032 104.69 16.1362 105.054 16.5522C105.405 16.9682 105.873 17.1632 106.471 17.1632C107.056 17.1632 107.524 16.9682 107.888 16.5522ZM116.18 11.9632C116.648 12.2362 117.025 12.6262 117.298 13.1462C117.558 13.6662 117.701 14.2642 117.701 14.9532C117.701 15.6292 117.558 16.2272 117.298 16.7472C117.025 17.2672 116.648 17.6572 116.18 17.9432C115.699 18.2292 115.153 18.3593 114.555 18.3593C114.061 18.3593 113.632 18.2682 113.268 18.0862C112.904 17.9042 112.605 17.6572 112.397 17.3452V20.8813H110.993V11.6252H112.215L112.384 12.6132C112.917 11.9112 113.645 11.5472 114.555 11.5472C115.153 11.5472 115.699 11.6902 116.18 11.9632ZM115.725 16.5522C116.089 16.1362 116.271 15.6032 116.271 14.9532C116.271 14.3032 116.089 13.7702 115.725 13.3542C115.361 12.9512 114.893 12.7432 114.321 12.7432C113.736 12.7432 113.268 12.9512 112.917 13.3542C112.553 13.7572 112.384 14.2772 112.384 14.9272C112.384 15.6032 112.553 16.1362 112.917 16.5522C113.268 16.9682 113.736 17.1762 114.321 17.1762C114.893 17.1762 115.361 16.9682 115.725 16.5522ZM118.982 13.1722C119.255 12.6522 119.632 12.2622 120.126 11.9762C120.62 11.6902 121.179 11.5472 121.816 11.5472C122.453 11.5472 123.012 11.6772 123.506 11.9372C124 12.1972 124.377 12.5742 124.663 13.0422C124.949 13.5232 125.092 14.0822 125.105 14.7192C125.105 14.9012 125.092 15.0702 125.066 15.2522H120.048V15.3302C120.074 15.9152 120.256 16.3703 120.594 16.7082C120.919 17.0462 121.361 17.2152 121.907 17.2152C122.336 17.2152 122.7 17.1242 122.999 16.9162C123.285 16.7082 123.48 16.4222 123.584 16.0452H124.988C124.858 16.7212 124.533 17.2802 124 17.7092C123.467 18.1512 122.804 18.3593 122.011 18.3593C121.309 18.3593 120.711 18.2292 120.191 17.9432C119.671 17.6572 119.281 17.2672 118.995 16.7472C118.709 16.2402 118.579 15.6422 118.579 14.9662C118.579 14.2902 118.709 13.6922 118.982 13.1722ZM123.675 14.2252C123.61 13.7442 123.415 13.3672 123.09 13.0942C122.765 12.8212 122.362 12.6782 121.868 12.6782C121.4 12.6782 121.01 12.8212 120.672 13.1072C120.334 13.3932 120.152 13.7572 120.1 14.2252H123.675ZM129.919 11.6252V12.9382H129.295C128.71 12.9382 128.294 13.1332 128.034 13.5102C127.774 13.8872 127.644 14.3682 127.644 14.9403V18.2812H126.24V11.6252H127.488L127.644 12.6262C127.826 12.3142 128.073 12.0802 128.385 11.8982C128.684 11.7163 129.087 11.6252 129.607 11.6252H129.919Z" fill="black" fill-opacity="0.7"/>
<defs>
<clipPath id="clip0_788_673">
<rect width="12.6067" height="12.6067" fill="white" transform="translate(3.14392 5.97803)"/>
</clipPath>
</defs>
</svg>
