<svg width="160" height="25" viewBox="0 0 160 25" fill="none" xmlns="http://www.w3.org/2000/svg">
<rect x="0.824768" y="1.14111" width="153.487" height="22.2804" rx="3.56698" fill="#61DAFB" fill-opacity="0.1"/>
<rect x="0.46807" y="0.784416" width="154.2" height="22.9938" rx="3.92367" stroke="#61DAFB" stroke-opacity="0.2" stroke-width="0.713395"/>
<path d="M5.77652 6.6453C5.16342 6.72656 4.56017 7.06635 4.16621 7.55387C3.95938 7.80748 3.77471 8.1719 3.68361 8.50184L3.61713 8.74806V12.2814V15.8147L3.68361 16.0609C3.95692 17.0483 4.7473 17.7574 5.73958 17.9076C6.09907 17.9618 12.4369 17.9618 12.7964 17.9076C13.7887 17.7574 14.579 17.0483 14.8524 16.0609L14.9188 15.8147V12.2814V8.74806L14.8524 8.50184C14.6061 7.61543 13.9339 6.94077 13.0475 6.69947L12.8013 6.63053L9.36647 6.62807C7.47793 6.62561 5.86269 6.63299 5.77652 6.6453ZM10.0707 10.0555C10.1692 10.1023 10.2775 10.2697 10.2775 10.3756C10.2775 10.4987 8.98236 14.3497 8.91834 14.4162C8.79523 14.5491 8.62533 14.5836 8.46529 14.5073C8.3668 14.4605 8.25846 14.293 8.25846 14.1872C8.25846 14.0862 9.55114 10.218 9.60531 10.1565C9.72842 10.0186 9.91063 9.97918 10.0707 10.0555ZM7.47547 10.6563C7.59612 10.6908 7.70938 10.8065 7.74139 10.9296C7.79063 11.1143 7.75862 11.1635 7.18 11.7446L6.64815 12.2814L7.18 12.8157C7.57149 13.2121 7.71923 13.3771 7.73893 13.4436C7.8251 13.707 7.54441 13.9902 7.27849 13.904C7.20954 13.8843 7.01749 13.707 6.50288 13.1949C6.12615 12.8206 5.80114 12.4858 5.78144 12.4488C5.73712 12.3626 5.73712 12.2001 5.78144 12.114C5.84053 12.0032 7.15291 10.7105 7.24894 10.6711C7.35235 10.6268 7.35974 10.6243 7.47547 10.6563ZM11.2821 10.6686C11.3806 10.7105 12.6905 11.9958 12.7545 12.114C12.7988 12.2001 12.7988 12.3626 12.7545 12.4488C12.7348 12.4858 12.4098 12.8206 12.0331 13.1949C11.5185 13.707 11.3264 13.8843 11.2575 13.904C10.9916 13.9902 10.7109 13.707 10.797 13.4436C10.8167 13.3771 10.9645 13.2121 11.356 12.8157L11.8878 12.2814L11.356 11.7446C10.7773 11.1635 10.7453 11.1143 10.7946 10.9296C10.8266 10.8114 10.9398 10.6908 11.0482 10.6588C11.1614 10.6268 11.1787 10.6268 11.2821 10.6686Z" fill="#61DAFB"/>
<path d="M26.7384 9.18125C27.3624 9.18125 27.9214 9.31125 28.4024 9.54525C28.8704 9.77925 29.2474 10.1172 29.5074 10.5592C29.7674 11.0012 29.9104 11.5082 29.9104 12.0802C29.9104 12.6912 29.7414 13.2242 29.4294 13.6792C29.1044 14.1472 28.6754 14.4722 28.1424 14.6542L30.0664 18.2812H28.4024L26.6734 14.9792H24.6454V18.2812H23.1504V9.18125H26.7384ZM24.6454 13.6792H26.6214C27.1544 13.6792 27.5834 13.5362 27.8954 13.2502C28.2074 12.9642 28.3764 12.5742 28.3764 12.0802C28.3764 11.5993 28.2074 11.2092 27.8954 10.9232C27.5834 10.6373 27.1544 10.4812 26.6214 10.4812H24.6454V13.6792ZM30.971 13.1722C31.244 12.6522 31.621 12.2622 32.115 11.9762C32.609 11.6902 33.168 11.5472 33.805 11.5472C34.442 11.5472 35.001 11.6772 35.495 11.9372C35.989 12.1972 36.366 12.5742 36.652 13.0422C36.938 13.5232 37.081 14.0822 37.094 14.7192C37.094 14.9012 37.081 15.0702 37.055 15.2522H32.037V15.3302C32.063 15.9152 32.245 16.3703 32.583 16.7082C32.908 17.0462 33.35 17.2152 33.896 17.2152C34.325 17.2152 34.689 17.1242 34.988 16.9162C35.274 16.7082 35.469 16.4222 35.573 16.0452H36.977C36.847 16.7212 36.522 17.2802 35.989 17.7092C35.456 18.1512 34.793 18.3593 34 18.3593C33.298 18.3593 32.7 18.2292 32.18 17.9432C31.66 17.6572 31.27 17.2672 30.984 16.7472C30.698 16.2402 30.568 15.6422 30.568 14.9662C30.568 14.2902 30.698 13.6922 30.971 13.1722ZM35.664 14.2252C35.599 13.7442 35.404 13.3672 35.079 13.0942C34.754 12.8212 34.351 12.6782 33.857 12.6782C33.389 12.6782 32.999 12.8212 32.661 13.1072C32.323 13.3932 32.141 13.7572 32.089 14.2252H35.664ZM44.5991 17.0592V18.2812H43.8581C43.4161 18.2812 43.1041 18.1902 42.9221 18.0082C42.7271 17.8262 42.6361 17.5662 42.6361 17.2152C42.1291 17.9822 41.4011 18.3593 40.4391 18.3593C39.6851 18.3593 39.0871 18.1902 38.6451 17.8392C38.1901 17.5012 37.9691 17.0202 37.9691 16.4092C37.9691 15.7332 38.2031 15.2002 38.6971 14.8362C39.1781 14.4722 39.8801 14.2772 40.8161 14.2772H42.4931V13.8742C42.4931 13.5102 42.3631 13.2112 42.1031 13.0032C41.8431 12.7952 41.4791 12.6782 41.0241 12.6782C40.6081 12.6782 40.2701 12.7692 40.0101 12.9512C39.7501 13.1332 39.5941 13.3672 39.5421 13.6532H38.1641C38.2291 12.9902 38.5281 12.4702 39.0481 12.1062C39.5681 11.7422 40.2441 11.5472 41.0891 11.5472C41.9731 11.5472 42.6621 11.7552 43.1561 12.1712C43.6371 12.5872 43.8841 13.1852 43.8841 13.9652V16.5912C43.8841 16.9032 44.0271 17.0592 44.3261 17.0592H44.5991ZM42.4931 15.3172H40.7511C40.3091 15.3172 39.9841 15.4082 39.7501 15.5772C39.5161 15.7462 39.3991 15.9932 39.3991 16.3182C39.3991 16.6042 39.5031 16.8382 39.7241 17.0072C39.9451 17.1892 40.2441 17.2672 40.6341 17.2672C41.2061 17.2672 41.6611 17.1112 41.9861 16.7992C42.3111 16.4872 42.4801 16.0712 42.4931 15.5512V15.3172ZM50.4989 17.7092C49.9529 18.1512 49.2639 18.3593 48.4319 18.3593C47.7689 18.3593 47.1839 18.2292 46.6899 17.9432C46.1829 17.6572 45.7929 17.2542 45.5199 16.7342C45.2469 16.2142 45.1169 15.6162 45.1169 14.9403C45.1169 14.2642 45.2469 13.6792 45.5329 13.1592C45.8059 12.6522 46.1959 12.2622 46.7029 11.9762C47.2099 11.6902 47.7949 11.5472 48.4709 11.5472C49.3029 11.5472 49.9789 11.7682 50.5119 12.2102C51.0319 12.6522 51.3699 13.2372 51.4999 13.9912H50.0569C49.9529 13.6142 49.7709 13.3152 49.4849 13.0812C49.1989 12.8602 48.8479 12.7432 48.4319 12.7432C47.8599 12.7432 47.4049 12.9512 47.0669 13.3542C46.7289 13.7702 46.5599 14.2902 46.5599 14.9403C46.5599 15.6032 46.7289 16.1362 47.0669 16.5522C47.4049 16.9682 47.8599 17.1632 48.4319 17.1632C48.8609 17.1632 49.2249 17.0592 49.5109 16.8252C49.7969 16.5912 49.9789 16.2792 50.0699 15.8892H51.4999C51.3699 16.6692 51.0319 17.2672 50.4989 17.7092ZM53.0546 12.8602H51.8976V11.6252H53.0546V9.76625H54.4716V11.6252H56.0706V12.8602H54.4716V16.3312C54.4716 16.5912 54.5236 16.7862 54.6276 16.8902C54.7316 16.9942 54.9006 17.0462 55.1606 17.0462H56.2266V18.2812H54.8746C54.2376 18.2812 53.7696 18.1382 53.4836 17.8392C53.1976 17.5532 53.0546 17.0982 53.0546 16.4742V12.8602ZM60.4492 18.2812V9.18125H61.8142L66.2472 15.6292V9.18125H67.7162V18.2812H66.3512L61.9182 11.8332V18.2812H60.4492ZM75.6011 17.0592V18.2812H74.8601C74.4181 18.2812 74.1061 18.1902 73.9241 18.0082C73.7291 17.8262 73.6381 17.5662 73.6381 17.2152C73.1311 17.9822 72.4031 18.3593 71.4411 18.3593C70.6871 18.3593 70.0891 18.1902 69.6471 17.8392C69.1921 17.5012 68.9711 17.0202 68.9711 16.4092C68.9711 15.7332 69.2051 15.2002 69.6991 14.8362C70.1801 14.4722 70.8821 14.2772 71.8181 14.2772L73.4951 14.2772V13.8742C73.4951 13.5102 73.3651 13.2112 73.1051 13.0032C72.8451 12.7952 72.4811 12.6782 72.0261 12.6782C71.6101 12.6782 71.2721 12.7692 71.0121 12.9512C70.7521 13.1332 70.5961 13.3672 70.5441 13.6532H69.1661C69.2311 12.9902 69.5301 12.4702 70.0501 12.1062C70.5701 11.7422 71.2461 11.5472 72.0911 11.5472C72.9751 11.5472 73.6641 11.7552 74.1581 12.1712C74.6391 12.5872 74.8861 13.1852 74.8861 13.9652V16.5912C74.8861 16.9032 75.0291 17.0592 75.3281 17.0592H75.6011ZM73.4951 15.3172L71.7531 15.3172C71.3111 15.3172 70.9861 15.4082 70.7521 15.5772C70.5181 15.7462 70.4011 15.9932 70.4011 16.3182C70.4011 16.6042 70.5051 16.8382 70.7261 17.0072C70.9471 17.1892 71.2461 17.2672 71.6361 17.2672C72.2081 17.2672 72.6631 17.1112 72.9881 16.7992C73.3131 16.4872 73.4821 16.0712 73.4951 15.5512V15.3172ZM76.7948 12.8602H75.6378V11.6252H76.7948V9.76625H78.2118V11.6252H79.8108V12.8602H78.2118V16.3312C78.2118 16.5912 78.2638 16.7862 78.3678 16.8902C78.4718 16.9942 78.6408 17.0462 78.9008 17.0462H79.9668V18.2812H78.6148C77.9778 18.2812 77.5098 18.1382 77.2238 17.8392C76.9378 17.5532 76.7948 17.0982 76.7948 16.4742V12.8602ZM82.0333 9.20725C82.1893 9.36325 82.2803 9.57125 82.2803 9.80525C82.2803 10.0522 82.1893 10.2602 82.0333 10.4162C81.8643 10.5722 81.6563 10.6502 81.4223 10.6502C81.1753 10.6502 80.9673 10.5722 80.8113 10.4162C80.6423 10.2602 80.5643 10.0522 80.5643 9.80525C80.5643 9.57125 80.6423 9.36325 80.8113 9.20725C80.9673 9.05125 81.1753 8.96025 81.4223 8.96025C81.6563 8.96025 81.8643 9.05125 82.0333 9.20725ZM80.7203 11.6252H82.1243V18.2812H80.7203V11.6252ZM82.8376 11.6252H84.3456L86.1786 16.7732L87.9856 11.6252H89.4676L87.0106 18.2812H85.2946L82.8376 11.6252ZM90.0804 13.1722C90.3534 12.6522 90.7304 12.2622 91.2244 11.9762C91.7184 11.6902 92.2774 11.5472 92.9144 11.5472C93.5514 11.5472 94.1104 11.6772 94.6044 11.9372C95.0984 12.1972 95.4754 12.5742 95.7614 13.0422C96.0474 13.5232 96.1904 14.0822 96.2034 14.7192C96.2034 14.9012 96.1904 15.0702 96.1644 15.2522H91.1464V15.3302C91.1724 15.9152 91.3544 16.3703 91.6924 16.7082C92.0174 17.0462 92.4594 17.2152 93.0054 17.2152C93.4344 17.2152 93.7984 17.1242 94.0974 16.9162C94.3834 16.7082 94.5784 16.4222 94.6824 16.0452H96.0864C95.9564 16.7212 95.6314 17.2802 95.0984 17.7092C94.5654 18.1512 93.9024 18.3593 93.1094 18.3593C92.4074 18.3593 91.8094 18.2292 91.2894 17.9432C90.7694 17.6572 90.3794 17.2672 90.0934 16.7472C89.8074 16.2402 89.6774 15.6422 89.6774 14.9662C89.6774 14.2902 89.8074 13.6922 90.0804 13.1722ZM94.7734 14.2252C94.7084 13.7442 94.5134 13.3672 94.1884 13.0942C93.8634 12.8212 93.4604 12.6782 92.9664 12.6782C92.4984 12.6782 92.1084 12.8212 91.7704 13.1072C91.4324 13.3932 91.2504 13.7572 91.1984 14.2252H94.7734ZM100.808 9.18125H103.707C104.63 9.18125 105.436 9.37625 106.138 9.75325C106.827 10.1432 107.36 10.6762 107.737 11.3522C108.101 12.0412 108.296 12.8342 108.296 13.7312C108.296 14.6282 108.101 15.4212 107.737 16.1102C107.36 16.7992 106.827 17.3322 106.138 17.7092C105.436 18.0992 104.63 18.2812 103.707 18.2812H100.808V9.18125ZM103.707 16.9812C104.682 16.9812 105.436 16.6952 105.969 16.1102C106.489 15.5252 106.762 14.7322 106.762 13.7312C106.762 12.7432 106.489 11.9502 105.969 11.3652C105.436 10.7802 104.682 10.4812 103.707 10.4812H102.303V16.9812H103.707ZM109.618 13.1722C109.891 12.6522 110.268 12.2622 110.762 11.9762C111.256 11.6902 111.815 11.5472 112.452 11.5472C113.089 11.5472 113.648 11.6772 114.142 11.9372C114.636 12.1972 115.013 12.5742 115.299 13.0422C115.585 13.5232 115.728 14.0822 115.741 14.7192C115.741 14.9012 115.728 15.0702 115.702 15.2522H110.684V15.3302C110.71 15.9152 110.892 16.3703 111.23 16.7082C111.555 17.0462 111.997 17.2152 112.543 17.2152C112.972 17.2152 113.336 17.1242 113.635 16.9162C113.921 16.7082 114.116 16.4222 114.22 16.0452H115.624C115.494 16.7212 115.169 17.2802 114.636 17.7092C114.103 18.1512 113.44 18.3593 112.647 18.3593C111.945 18.3593 111.347 18.2292 110.827 17.9432C110.307 17.6572 109.917 17.2672 109.631 16.7472C109.345 16.2402 109.215 15.6422 109.215 14.9662C109.215 14.2902 109.345 13.6922 109.618 13.1722ZM114.311 14.2252C114.246 13.7442 114.051 13.3672 113.726 13.0942C113.401 12.8212 112.998 12.6782 112.504 12.6782C112.036 12.6782 111.646 12.8212 111.308 13.1072C110.97 13.3932 110.788 13.7572 110.736 14.2252H114.311ZM115.96 11.6252H117.468L119.301 16.7732L121.108 11.6252H122.59L120.133 18.2812H118.417L115.96 11.6252ZM123.202 13.1722C123.475 12.6522 123.852 12.2622 124.346 11.9762C124.84 11.6902 125.399 11.5472 126.036 11.5472C126.673 11.5472 127.232 11.6772 127.726 11.9372C128.22 12.1972 128.597 12.5742 128.883 13.0422C129.169 13.5232 129.312 14.0822 129.325 14.7192C129.325 14.9012 129.312 15.0702 129.286 15.2522H124.268V15.3302C124.294 15.9152 124.476 16.3703 124.814 16.7082C125.139 17.0462 125.581 17.2152 126.127 17.2152C126.556 17.2152 126.92 17.1242 127.219 16.9162C127.505 16.7082 127.7 16.4222 127.804 16.0452H129.208C129.078 16.7212 128.753 17.2802 128.22 17.7092C127.687 18.1512 127.024 18.3593 126.231 18.3593C125.529 18.3593 124.931 18.2292 124.411 17.9432C123.891 17.6572 123.501 17.2672 123.215 16.7472C122.929 16.2402 122.799 15.6422 122.799 14.9662C122.799 14.2902 122.929 13.6922 123.202 13.1722ZM127.895 14.2252C127.83 13.7442 127.635 13.3672 127.31 13.0942C126.985 12.8212 126.582 12.6782 126.088 12.6782C125.62 12.6782 125.23 12.8212 124.892 13.1072C124.554 13.3932 124.372 13.7572 124.32 14.2252H127.895ZM130.461 9.18125H131.865V18.2812H130.461V9.18125ZM134.606 17.9432C134.086 17.6572 133.696 17.2672 133.41 16.7472C133.124 16.2272 132.994 15.6292 132.994 14.9532C132.994 14.2902 133.124 13.7052 133.41 13.1852C133.696 12.6652 134.086 12.2622 134.606 11.9762C135.126 11.6902 135.711 11.5472 136.387 11.5472C137.05 11.5472 137.635 11.6902 138.155 11.9762C138.675 12.2622 139.065 12.6652 139.351 13.1852C139.637 13.7052 139.78 14.2902 139.78 14.9532C139.78 15.6292 139.637 16.2272 139.351 16.7472C139.065 17.2672 138.675 17.6572 138.155 17.9432C137.635 18.2292 137.05 18.3593 136.387 18.3593C135.711 18.3593 135.126 18.2292 134.606 17.9432ZM137.804 16.5522C138.168 16.1362 138.35 15.6032 138.35 14.9532C138.35 14.3032 138.168 13.7832 137.804 13.3672C137.44 12.9512 136.972 12.7432 136.387 12.7432C135.789 12.7432 135.321 12.9512 134.97 13.3672C134.606 13.7832 134.437 14.3032 134.437 14.9532C134.437 15.6032 134.606 16.1362 134.97 16.5522C135.321 16.9682 135.789 17.1632 136.387 17.1632C136.972 17.1632 137.44 16.9682 137.804 16.5522ZM146.096 11.9632C146.564 12.2362 146.941 12.6262 147.214 13.1462C147.474 13.6662 147.617 14.2642 147.617 14.9532C147.617 15.6292 147.474 16.2272 147.214 16.7472C146.941 17.2672 146.564 17.6572 146.096 17.9432C145.615 18.2292 145.069 18.3593 144.471 18.3593C143.977 18.3593 143.548 18.2682 143.184 18.0862C142.82 17.9042 142.521 17.6572 142.313 17.3452V20.8813H140.909V11.6252H142.131L142.3 12.6132C142.833 11.9112 143.561 11.5472 144.471 11.5472C145.069 11.5472 145.615 11.6902 146.096 11.9632ZM145.641 16.5522C146.005 16.1362 146.187 15.6032 146.187 14.9532C146.187 14.3032 146.005 13.7702 145.641 13.3542C145.277 12.9512 144.809 12.7432 144.237 12.7432C143.652 12.7432 143.184 12.9512 142.833 13.3542C142.469 13.7572 142.3 14.2772 142.3 14.9272C142.3 15.6032 142.469 16.1362 142.833 16.5522C143.184 16.9682 143.652 17.1762 144.237 17.1762C144.809 17.1762 145.277 16.9682 145.641 16.5522ZM148.898 13.1722C149.171 12.6522 149.548 12.2622 150.042 11.9762C150.536 11.6902 151.095 11.5472 151.732 11.5472C152.369 11.5472 152.928 11.6772 153.422 11.9372C153.916 12.1972 154.293 12.5742 154.579 13.0422C154.865 13.5232 155.008 14.0822 155.021 14.7192C155.021 14.9012 155.008 15.0702 154.982 15.2522H149.964V15.3302C149.99 15.9152 150.172 16.3703 150.51 16.7082C150.835 17.0462 151.277 17.2152 151.823 17.2152C152.252 17.2152 152.616 17.1242 152.915 16.9162C153.201 16.7082 153.396 16.4222 153.5 16.0452H154.904C154.774 16.7212 154.449 17.2802 153.916 17.7092C153.383 18.1512 152.72 18.3593 151.927 18.3593C151.225 18.3593 150.627 18.2292 150.107 17.9432C149.587 17.6572 149.197 17.2672 148.911 16.7472C148.625 16.2402 148.495 15.6422 148.495 14.9662C148.495 14.2902 148.625 13.6922 148.898 13.1722ZM153.591 14.2252C153.526 13.7442 153.331 13.3672 153.006 13.0942C152.681 12.8212 152.278 12.6782 151.784 12.6782C151.316 12.6782 150.926 12.8212 150.588 13.1072C150.25 13.3932 150.068 13.7572 150.016 14.2252H153.591ZM159.835 11.6252V12.9382H159.211C158.626 12.9382 158.21 13.1332 157.95 13.5102C157.69 13.8872 157.56 14.3682 157.56 14.9403V18.2812H156.156V11.6252H157.404L157.56 12.6262C157.742 12.3142 157.989 12.0802 158.301 11.8982C158.6 11.7163 159.003 11.6252 159.523 11.6252H159.835Z" fill="black" fill-opacity="0.7"/>
</svg>
