<svg width="124" height="27" viewBox="0 0 124 27" fill="none" xmlns="http://www.w3.org/2000/svg">
<rect x="1.61838" y="1.14111" width="121.487" height="24.2804" rx="3.56698" fill="#F05138" fill-opacity="0.1"/>
<rect x="1.26168" y="0.784416" width="122.2" height="24.9938" rx="3.92367" stroke="#F05138" stroke-opacity="0.2" stroke-width="0.713395"/>
<path d="M6.57009 7.6453C5.95699 7.72656 5.35374 8.06635 4.95978 8.55387C4.75295 8.80748 4.56829 9.1719 4.47718 9.50184L4.4107 9.74806V13.2814V16.8147L4.47718 17.0609C4.75049 18.0483 5.54087 18.7574 6.53316 18.9076C6.89265 18.9618 13.2305 18.9618 13.59 18.9076C14.5822 18.7574 15.3726 18.0483 15.6459 17.0609L15.7124 16.8147V13.2814V9.74806L15.6459 9.50184C15.3997 8.61543 14.7275 7.94077 13.8411 7.69947L13.5949 7.63053L10.16 7.62807C8.2715 7.62561 6.65627 7.63299 6.57009 7.6453ZM10.8642 11.0555C10.9627 11.1023 11.0711 11.2697 11.0711 11.3756C11.0711 11.4987 9.77594 15.3497 9.71192 15.4162C9.58881 15.5491 9.41891 15.5836 9.25886 15.5073C9.16037 15.4605 9.05204 15.293 9.05204 15.1872C9.05204 15.0862 10.3447 11.218 10.3989 11.1565C10.522 11.0186 10.7042 10.9792 10.8642 11.0555ZM8.26904 11.6563C8.38969 11.6908 8.50295 11.8065 8.53496 11.9296C8.58421 12.1143 8.5522 12.1635 7.97357 12.7446L7.44173 13.2814L7.97357 13.8157C8.36507 14.2121 8.5128 14.3771 8.5325 14.4436C8.61868 14.707 8.33798 14.9902 8.07206 14.904C8.00312 14.8843 7.81106 14.707 7.29645 14.1949C6.91973 13.8206 6.59471 13.4858 6.57502 13.4488C6.5307 13.3626 6.5307 13.2001 6.57502 13.114C6.63411 13.0032 7.94649 11.7105 8.04252 11.6711C8.14593 11.6268 8.15332 11.6243 8.26904 11.6563ZM12.0757 11.6686C12.1742 11.7105 13.4841 12.9958 13.5481 13.114C13.5924 13.2001 13.5924 13.3626 13.5481 13.4488C13.5284 13.4858 13.2034 13.8206 12.8267 14.1949C12.312 14.707 12.12 14.8843 12.0511 14.904C11.7851 14.9902 11.5044 14.707 11.5906 14.4436C11.6103 14.3771 11.758 14.2121 12.1495 13.8157L12.6814 13.2814L12.1495 12.7446C11.5709 12.1635 11.5389 12.1143 11.5881 11.9296C11.6202 11.8114 11.7334 11.6908 11.8418 11.6588C11.955 11.6268 11.9723 11.6268 12.0757 11.6686Z" fill="#F05138"/>
<path d="M25.0838 15.3172C25.1228 15.8632 25.3438 16.2922 25.7338 16.6172C26.1238 16.9422 26.6438 17.0982 27.2808 17.0982C27.8268 17.0982 28.2818 16.9812 28.6198 16.7472C28.9578 16.5132 29.1398 16.1752 29.1398 15.7462C29.1398 15.4472 29.0358 15.2132 28.8538 15.0312C28.6718 14.8493 28.4118 14.7192 28.0998 14.6152C27.7748 14.5242 27.3198 14.4202 26.7478 14.3162C26.1498 14.2122 25.6428 14.0822 25.2268 13.9132C24.8108 13.7442 24.4598 13.4842 24.1998 13.1332C23.9398 12.7952 23.8098 12.3402 23.8098 11.7682C23.8098 11.2482 23.9398 10.7932 24.2128 10.3772C24.4858 9.97425 24.8628 9.66225 25.3568 9.42825C25.8508 9.20725 26.4098 9.09025 27.0468 9.09025C27.6968 9.09025 28.2688 9.22025 28.7888 9.45425C29.2958 9.70125 29.6988 10.0392 29.9978 10.4552C30.2838 10.8842 30.4528 11.3652 30.4788 11.9112H29.0098C28.9578 11.4432 28.7498 11.0662 28.3988 10.7802C28.0348 10.4942 27.5928 10.3512 27.0468 10.3512C26.5138 10.3512 26.0848 10.4682 25.7728 10.7022C25.4608 10.9363 25.3048 11.2482 25.3048 11.6642C25.3048 11.9632 25.3958 12.1972 25.5778 12.3662C25.7598 12.5482 26.0198 12.6782 26.3318 12.7562C26.6438 12.8472 27.0858 12.9382 27.6708 13.0422C28.2558 13.1462 28.7628 13.2892 29.1918 13.4582C29.6078 13.6402 29.9588 13.8872 30.2318 14.2252C30.4918 14.5632 30.6348 15.0182 30.6348 15.5642C30.6348 16.1102 30.4918 16.5912 30.2058 17.0072C29.9198 17.4362 29.5168 17.7742 29.0098 18.0082C28.4898 18.2422 27.9178 18.3593 27.2678 18.3593C26.5398 18.3593 25.9158 18.2292 25.3698 17.9692C24.8238 17.7092 24.3948 17.3582 24.0828 16.8902C23.7708 16.4222 23.6148 15.8892 23.6148 15.2912L25.0838 15.3172ZM31.082 11.6252H32.564L34.085 16.7212L35.606 11.6252H36.893L38.349 16.7212L39.922 11.6252H41.352L39.142 18.2812H37.634L36.23 13.7572L34.774 18.2812L33.253 18.2943L31.082 11.6252ZM43.404 9.20725C43.56 9.36325 43.651 9.57125 43.651 9.80525C43.651 10.0522 43.56 10.2602 43.404 10.4162C43.235 10.5722 43.027 10.6502 42.793 10.6502C42.546 10.6502 42.338 10.5722 42.182 10.4162C42.013 10.2602 41.935 10.0522 41.935 9.80525C41.935 9.57125 42.013 9.36325 42.182 9.20725C42.338 9.05125 42.546 8.96025 42.793 8.96025C43.027 8.96025 43.235 9.05125 43.404 9.20725ZM42.091 11.6252H43.495V18.2812H42.091V11.6252ZM45.3003 11.6252V10.9622C45.3003 10.3772 45.4433 9.93525 45.7553 9.63625C46.0543 9.33725 46.5223 9.18125 47.1593 9.18125H48.5113V10.4162H47.3543C47.1203 10.4162 46.9643 10.4682 46.8603 10.5722C46.7563 10.6762 46.7173 10.8452 46.7173 11.0662V11.6252H48.4983V12.8602H46.7173V18.2812H45.3003V12.8602H44.1433V11.6252H45.3003ZM49.2004 9.76625H50.6044V11.6252H52.2164V12.8602H50.6044V16.3312C50.6044 16.5912 50.6564 16.7862 50.7604 16.8902C50.8644 16.9942 51.0334 17.0462 51.2934 17.0462H52.3594V18.2812H51.0074C50.3704 18.2812 49.9154 18.1382 49.6294 17.8392C49.3434 17.5532 49.2004 17.0982 49.2004 16.4742V9.76625ZM56.5924 9.18125H59.4914C60.4144 9.18125 61.2204 9.37625 61.9224 9.75325C62.6114 10.1432 63.1444 10.6762 63.5214 11.3522C63.8854 12.0412 64.0804 12.8342 64.0804 13.7312C64.0804 14.6282 63.8854 15.4212 63.5214 16.1102C63.1444 16.7992 62.6114 17.3322 61.9224 17.7092C61.2204 18.0992 60.4144 18.2812 59.4914 18.2812H56.5924V9.18125ZM59.4914 16.9812C60.4664 16.9812 61.2204 16.6952 61.7534 16.1102C62.2734 15.5252 62.5464 14.7322 62.5464 13.7312C62.5464 12.7432 62.2734 11.9502 61.7534 11.3652C61.2204 10.7802 60.4664 10.4812 59.4914 10.4812H58.0874V16.9812H59.4914ZM65.4033 13.1722C65.6763 12.6522 66.0533 12.2622 66.5473 11.9762C67.0413 11.6902 67.6003 11.5472 68.2373 11.5472C68.8743 11.5472 69.4333 11.6772 69.9273 11.9372C70.4213 12.1972 70.7983 12.5742 71.0843 13.0422C71.3703 13.5232 71.5133 14.0822 71.5263 14.7192C71.5263 14.9012 71.5133 15.0702 71.4873 15.2522H66.4693V15.3302C66.4953 15.9152 66.6773 16.3703 67.0153 16.7082C67.3403 17.0462 67.7823 17.2152 68.3283 17.2152C68.7573 17.2152 69.1213 17.1242 69.4203 16.9162C69.7063 16.7082 69.9013 16.4222 70.0053 16.0452H71.4093C71.2793 16.7212 70.9543 17.2802 70.4213 17.7092C69.8883 18.1512 69.2253 18.3593 68.4323 18.3593C67.7303 18.3593 67.1323 18.2292 66.6123 17.9432C66.0923 17.6572 65.7023 17.2672 65.4163 16.7472C65.1303 16.2402 65.0003 15.6422 65.0003 14.9662C65.0003 14.2902 65.1303 13.6922 65.4033 13.1722ZM70.0963 14.2252C70.0313 13.7442 69.8363 13.3672 69.5113 13.0942C69.1863 12.8212 68.7833 12.6782 68.2893 12.6782C67.8213 12.6782 67.4313 12.8212 67.0933 13.1072C66.7553 13.3932 66.5733 13.7572 66.5213 14.2252H70.0963ZM71.7445 11.6252H73.2525L75.0855 16.7732L76.8925 11.6252H78.3745L75.9175 18.2812H74.2015L71.7445 11.6252ZM78.9873 13.1722C79.2603 12.6522 79.6373 12.2622 80.1313 11.9762C80.6253 11.6902 81.1843 11.5472 81.8213 11.5472C82.4583 11.5472 83.0173 11.6772 83.5113 11.9372C84.0053 12.1972 84.3823 12.5742 84.6683 13.0422C84.9543 13.5232 85.0973 14.0822 85.1103 14.7192C85.1103 14.9012 85.0973 15.0702 85.0713 15.2522H80.0533V15.3302C80.0793 15.9152 80.2613 16.3703 80.5993 16.7082C80.9243 17.0462 81.3663 17.2152 81.9123 17.2152C82.3413 17.2152 82.7053 17.1242 83.0043 16.9162C83.2903 16.7082 83.4853 16.4222 83.5893 16.0452H84.9933C84.8633 16.7212 84.5383 17.2802 84.0053 17.7092C83.4723 18.1512 82.8093 18.3593 82.0163 18.3593C81.3143 18.3593 80.7163 18.2292 80.1963 17.9432C79.6763 17.6572 79.2863 17.2672 79.0003 16.7472C78.7143 16.2402 78.5843 15.6422 78.5843 14.9662C78.5843 14.2902 78.7143 13.6922 78.9873 13.1722ZM83.6803 14.2252C83.6153 13.7442 83.4203 13.3672 83.0953 13.0942C82.7703 12.8212 82.3673 12.6782 81.8733 12.6782C81.4053 12.6782 81.0153 12.8212 80.6773 13.1072C80.3393 13.3932 80.1573 13.7572 80.1053 14.2252H83.6803ZM86.2453 9.18125H87.6493V18.2812H86.2453V9.18125ZM90.3906 17.9432C89.8706 17.6572 89.4806 17.2672 89.1946 16.7472C88.9086 16.2272 88.7786 15.6292 88.7786 14.9532C88.7786 14.2902 88.9086 13.7052 89.1946 13.1852C89.4806 12.6652 89.8706 12.2622 90.3906 11.9762C90.9106 11.6902 91.4956 11.5472 92.1716 11.5472C92.8346 11.5472 93.4196 11.6902 93.9396 11.9762C94.4596 12.2622 94.8496 12.6652 95.1356 13.1852C95.4216 13.7052 95.5646 14.2902 95.5646 14.9532C95.5646 15.6292 95.4216 16.2272 95.1356 16.7472C94.8496 17.2672 94.4596 17.6572 93.9396 17.9432C93.4196 18.2292 92.8346 18.3593 92.1716 18.3593C91.4956 18.3593 90.9106 18.2292 90.3906 17.9432ZM93.5886 16.5522C93.9526 16.1362 94.1346 15.6032 94.1346 14.9532C94.1346 14.3032 93.9526 13.7832 93.5886 13.3672C93.2246 12.9512 92.7566 12.7432 92.1716 12.7432C91.5736 12.7432 91.1056 12.9512 90.7546 13.3672C90.3906 13.7832 90.2216 14.3032 90.2216 14.9532C90.2216 15.6032 90.3906 16.1362 90.7546 16.5522C91.1056 16.9682 91.5736 17.1632 92.1716 17.1632C92.7566 17.1632 93.2246 16.9682 93.5886 16.5522ZM101.881 11.9632C102.349 12.2362 102.726 12.6262 102.999 13.1462C103.259 13.6662 103.402 14.2642 103.402 14.9532C103.402 15.6292 103.259 16.2272 102.999 16.7472C102.726 17.2672 102.349 17.6572 101.881 17.9432C101.4 18.2292 100.854 18.3593 100.256 18.3593C99.7616 18.3593 99.3326 18.2682 98.9686 18.0862C98.6046 17.9042 98.3056 17.6572 98.0976 17.3452V20.8813H96.6936V11.6252H97.9156L98.0846 12.6132C98.6176 11.9112 99.3456 11.5472 100.256 11.5472C100.854 11.5472 101.4 11.6902 101.881 11.9632ZM101.426 16.5522C101.79 16.1362 101.972 15.6032 101.972 14.9532C101.972 14.3032 101.79 13.7702 101.426 13.3542C101.062 12.9512 100.594 12.7432 100.022 12.7432C99.4366 12.7432 98.9686 12.9512 98.6176 13.3542C98.2536 13.7572 98.0846 14.2772 98.0846 14.9272C98.0846 15.6032 98.2536 16.1362 98.6176 16.5522C98.9686 16.9682 99.4366 17.1762 100.022 17.1762C100.594 17.1762 101.062 16.9682 101.426 16.5522ZM104.683 13.1722C104.956 12.6522 105.333 12.2622 105.827 11.9762C106.321 11.6902 106.88 11.5472 107.517 11.5472C108.154 11.5472 108.713 11.6772 109.207 11.9372C109.701 12.1972 110.078 12.5742 110.364 13.0422C110.65 13.5232 110.793 14.0822 110.806 14.7192C110.806 14.9012 110.793 15.0702 110.767 15.2522H105.749V15.3302C105.775 15.9152 105.957 16.3703 106.295 16.7082C106.62 17.0462 107.062 17.2152 107.608 17.2152C108.037 17.2152 108.401 17.1242 108.7 16.9162C108.986 16.7082 109.181 16.4222 109.285 16.0452H110.689C110.559 16.7212 110.234 17.2802 109.701 17.7092C109.168 18.1512 108.505 18.3593 107.712 18.3593C107.01 18.3593 106.412 18.2292 105.892 17.9432C105.372 17.6572 104.982 17.2672 104.696 16.7472C104.41 16.2402 104.28 15.6422 104.28 14.9662C104.28 14.2902 104.41 13.6922 104.683 13.1722ZM109.376 14.2252C109.311 13.7442 109.116 13.3672 108.791 13.0942C108.466 12.8212 108.063 12.6782 107.569 12.6782C107.101 12.6782 106.711 12.8212 106.373 13.1072C106.035 13.3932 105.853 13.7572 105.801 14.2252H109.376ZM115.62 11.6252V12.9382H114.996C114.411 12.9382 113.995 13.1332 113.735 13.5102C113.475 13.8872 113.345 14.3682 113.345 14.9403V18.2812H111.941V11.6252H113.189L113.345 12.6262C113.527 12.3142 113.774 12.0802 114.086 11.8982C114.385 11.7163 114.788 11.6252 115.308 11.6252H115.62Z" fill="black" fill-opacity="0.7"/>
</svg>
